<?xml version="1.0" standalone="no"?>
<!DOCTYPE svg PUBLIC "-//W3C//DTD SVG 20010904//EN"
 "http://www.w3.org/TR/2001/REC-SVG-20010904/DTD/svg10.dtd">
<svg version="1.0" xmlns="http://www.w3.org/2000/svg"
 width="915.000000pt" height="915.000000pt" viewBox="0 0 915.000000 915.000000"
 preserveAspectRatio="xMidYMid meet">
<metadata>
Created by potrace 1.14, written by Peter Selinger 2001-2017
</metadata>
<g transform="translate(0.000000,915.000000) scale(0.100000,-0.100000)"
fill="#000000" stroke="none">
<path d="M1935 7952 c-1 -1 -40 -5 -86 -7 -46 -3 -93 -7 -104 -9 -11 -2 -45
-7 -75 -11 -64 -9 -74 -11 -119 -24 -18 -6 -36 -10 -40 -9 -3 1 -13 -1 -21 -4
-8 -4 -37 -12 -65 -19 -27 -6 -56 -16 -62 -22 -7 -5 -13 -6 -13 -1 0 4 -5 3
-12 -4 -7 -7 -20 -12 -30 -12 -10 0 -26 -4 -36 -9 -9 -6 -51 -24 -92 -43 -71
-31 -279 -144 -290 -158 -3 -3 -25 -20 -50 -37 -25 -17 -55 -39 -68 -49 -12
-11 -34 -28 -48 -39 -47 -36 -238 -231 -285 -291 -58 -74 -146 -205 -177 -264
-47 -88 -66 -125 -67 -130 0 -3 -8 -18 -17 -35 -17 -32 -95 -251 -102 -288
-10 -45 -15 -69 -20 -85 -3 -9 -7 -34 -11 -56 -3 -21 -7 -41 -9 -45 -11 -18
-20 -165 -20 -336 0 -183 4 -237 24 -335 5 -25 12 -58 14 -75 3 -16 10 -48 16
-70 6 -22 15 -56 20 -75 20 -74 54 -161 127 -319 9 -20 34 -65 55 -100 21 -34
38 -67 38 -72 0 -5 4 -9 9 -9 5 0 13 -9 16 -20 9 -30 146 -203 224 -284 90
-93 218 -201 321 -270 112 -74 108 -72 161 -100 l47 -24 30 66 c51 110 86 187
87 192 1 3 11 25 22 50 11 25 41 90 66 145 24 55 58 129 74 165 17 36 54 119
84 185 29 66 58 123 64 127 5 4 7 8 2 8 -4 0 6 27 23 60 17 33 27 60 23 60 -5
0 -3 4 3 8 5 4 21 32 33 62 13 30 39 89 58 130 44 95 90 198 107 240 3 8 10
22 14 30 13 21 32 63 156 342 14 32 42 91 61 132 19 41 35 76 35 79 0 3 20 47
44 98 69 148 96 209 96 214 0 3 18 41 40 85 21 44 40 84 41 88 0 4 10 24 20
45 11 20 17 37 14 37 -2 0 4 15 14 33 10 19 34 69 54 113 19 43 47 106 63 139
15 33 28 62 29 65 0 3 8 21 17 40 9 19 34 74 57 122 23 48 41 89 41 92 0 2 18
42 39 88 55 117 98 212 124 272 12 28 29 67 38 86 19 39 10 54 -27 40 -12 -5
-25 -6 -28 -3 -9 9 -351 7 -365 -1 -6 -4 -11 -4 -11 1 0 4 -52 8 -115 8 -63 0
-115 -3 -115 -7 0 -4 -6 -5 -14 -2 -15 6 -146 11 -151 6z m412 -262 l33 0 -23
-47 c-12 -27 -26 -51 -32 -55 -6 -5 -6 -8 0 -8 5 0 4 -5 -3 -12 -7 -7 -12 -20
-12 -30 0 -10 -4 -18 -10 -18 -5 0 -10 -5 -10 -11 0 -5 -10 -31 -21 -57 -12
-26 -35 -76 -51 -112 -31 -68 -39 -86 -83 -185 -15 -33 -44 -98 -65 -145 -21
-47 -41 -92 -44 -100 -3 -8 -10 -22 -16 -30 -5 -8 -19 -37 -31 -65 -20 -47
-136 -304 -200 -443 -16 -35 -29 -65 -29 -68 0 -2 -17 -41 -39 -87 -62 -133
-75 -162 -76 -167 -1 -3 -16 -36 -34 -75 -17 -38 -31 -70 -30 -70 1 0 -7 -18
-18 -40 -12 -22 -22 -43 -23 -47 0 -4 -19 -44 -41 -88 -21 -44 -39 -83 -39
-85 0 -2 -27 -64 -61 -137 -33 -73 -67 -146 -74 -163 -76 -166 -318 -703 -323
-715 -15 -41 -24 -40 -76 1 -157 125 -330 326 -418 488 -39 70 -98 190 -98
197 0 3 -6 20 -14 37 -15 34 -53 150 -61 185 -3 12 -7 32 -10 45 -11 44 -25
117 -32 169 -10 73 -10 370 1 443 4 33 10 71 11 85 2 14 4 25 5 25 1 0 3 7 5
15 2 8 6 26 9 40 3 14 7 35 10 48 3 12 7 26 10 30 3 5 7 19 10 33 26 133 171
410 306 580 98 124 253 262 417 371 157 104 433 215 578 234 6 0 21 4 35 7 45
12 94 17 215 23 66 4 121 7 122 8 1 0 68 0 150 -1 81 -1 163 -3 180 -3z"/>
<path d="M3073 7949 c-10 -3 -18 -10 -19 -15 -1 -12 -14 -42 -57 -134 -19 -41
-45 -97 -57 -125 -27 -62 -46 -104 -104 -229 -25 -54 -46 -100 -46 -101 0 -2
-16 -39 -36 -82 -20 -43 -49 -106 -65 -141 -16 -35 -29 -65 -29 -68 0 -2 -13
-32 -30 -66 -16 -34 -30 -67 -30 -74 0 -6 -7 -17 -15 -24 -8 -7 -15 -18 -15
-26 0 -7 -22 -61 -50 -119 -27 -58 -50 -107 -50 -109 0 -2 -17 -39 -37 -82
-20 -43 -37 -81 -38 -84 -1 -3 -18 -41 -39 -85 -21 -44 -39 -89 -42 -100 -2
-11 -8 -21 -14 -23 -5 -2 -10 -10 -10 -18 0 -7 -9 -30 -19 -51 -17 -33 -61
-129 -66 -143 -2 -6 -30 -69 -68 -151 -13 -30 -35 -76 -47 -104 -13 -27 -34
-75 -47 -105 -14 -30 -35 -77 -48 -105 -13 -27 -44 -95 -68 -150 -25 -55 -59
-131 -77 -170 -17 -38 -47 -106 -67 -150 -19 -44 -39 -87 -44 -95 -5 -8 -12
-22 -15 -30 -3 -8 -19 -43 -35 -78 -16 -35 -29 -65 -29 -67 0 -3 -19 -46 -43
-97 -77 -165 -81 -173 -82 -178 -1 -3 -8 -21 -17 -40 -9 -19 -28 -62 -43 -95
-15 -33 -40 -87 -55 -120 -15 -33 -80 -175 -143 -315 -63 -140 -128 -284 -144
-320 -17 -36 -47 -103 -68 -150 -21 -47 -58 -128 -82 -180 -25 -52 -46 -99
-47 -105 -1 -5 -7 -19 -13 -31 -7 -11 -30 -61 -51 -110 -22 -49 -51 -115 -66
-146 -14 -31 -26 -61 -26 -67 0 -5 -4 -11 -10 -13 -5 -1 -11 -12 -13 -23 -2
-11 -22 -58 -44 -105 -22 -47 -66 -143 -97 -213 -31 -71 -60 -136 -65 -145 -4
-9 -15 -33 -24 -52 -9 -19 -37 -79 -62 -133 -25 -55 -45 -100 -45 -102 0 -2
-20 -46 -44 -98 -25 -52 -58 -125 -74 -163 -16 -38 -46 -105 -67 -149 -20 -44
-45 -98 -55 -120 -66 -149 -153 -343 -160 -356 -7 -14 98 -16 1183 -17 656 0
1201 1 1213 3 13 3 28 20 39 47 11 24 41 90 67 147 26 57 48 105 48 106 0 2
17 41 39 87 43 93 52 112 144 318 36 80 78 174 95 210 54 118 79 174 102 225
12 28 30 68 40 90 10 22 30 66 44 98 14 31 38 83 53 115 15 31 27 59 28 62 0
3 18 41 38 84 20 43 37 80 37 82 0 3 17 40 81 182 16 34 42 90 58 125 35 77
79 173 96 212 7 17 28 62 46 100 18 39 33 72 34 75 2 8 145 325 214 475 15 33
36 81 47 107 10 27 22 48 27 48 4 0 7 8 7 18 0 10 3 22 8 26 4 4 7 11 8 14 0
4 14 36 31 72 17 36 40 88 53 115 12 28 38 83 56 122 19 40 34 75 34 77 0 2
17 42 39 88 21 45 51 112 67 148 15 36 33 68 39 72 5 4 7 8 3 8 -4 0 25 69 63
153 39 83 76 166 84 182 7 17 26 59 43 95 16 36 46 103 67 150 20 47 52 117
70 155 37 79 38 82 165 365 50 113 111 247 136 297 24 51 44 95 44 97 0 3 20
49 45 102 25 53 45 97 45 99 0 2 16 37 35 79 19 42 51 110 70 152 19 42 35 77
35 79 0 2 20 46 45 99 25 53 45 99 45 101 0 2 18 43 41 92 22 48 59 129 81
178 23 50 53 117 68 150 15 33 38 83 50 110 13 28 36 78 51 113 16 34 28 63
26 65 -1 2 6 15 16 31 10 15 17 32 15 38 -4 12 -238 16 -257 4 -6 -4 -11 -4
-11 1 0 4 -52 8 -115 8 -63 0 -115 -4 -115 -8 0 -5 -5 -5 -11 -1 -14 9 -213 9
-227 0 -7 -4 -12 -4 -12 1 0 4 -52 8 -115 8 -63 0 -115 -4 -115 -8 0 -5 -5 -5
-11 -1 -14 9 -213 9 -227 0 -7 -4 -12 -4 -12 1 0 4 -52 8 -115 8 -63 0 -115
-3 -115 -7 0 -4 -6 -5 -14 -2 -23 9 -129 10 -153 2 -12 -4 -24 -4 -27 0 -5 9
-129 8 -144 -1 -6 -4 -13 -4 -15 0 -6 10 -129 9 -145 0 -6 -4 -13 -4 -15 0 -6
10 -129 9 -145 0 -6 -4 -13 -4 -15 0 -6 10 -190 8 -206 -1 -6 -4 -11 -3 -11 1
0 10 -31 11 -57 2z m1998 -266 c5 -5 -3 -31 -16 -58 -48 -97 -115 -248 -121
-271 -3 -13 -12 -28 -20 -35 -8 -6 -14 -17 -14 -23 0 -7 -43 -106 -96 -221
-52 -116 -102 -226 -111 -245 -8 -19 -30 -66 -48 -105 -18 -38 -38 -87 -46
-107 -7 -21 -16 -38 -20 -38 -4 0 -10 -11 -13 -24 -3 -14 -19 -53 -35 -88 -16
-35 -46 -99 -66 -143 -47 -101 -186 -408 -238 -525 -30 -67 -62 -139 -92 -205
-33 -72 -106 -234 -240 -530 -65 -143 -132 -292 -150 -331 -19 -40 -48 -105
-65 -145 -18 -41 -37 -80 -42 -86 -6 -7 -7 -13 -3 -13 4 0 3 -6 -3 -12 -5 -7
-48 -98 -95 -203 -47 -104 -103 -230 -126 -278 -22 -48 -44 -99 -47 -112 -3
-13 -12 -29 -20 -36 -8 -6 -14 -18 -14 -25 0 -8 -13 -42 -29 -76 -17 -35 -32
-70 -35 -78 -3 -8 -10 -22 -15 -30 -5 -8 -16 -31 -24 -50 -16 -38 -46 -105
-102 -227 -20 -43 -44 -96 -54 -118 -10 -22 -26 -58 -36 -80 -10 -22 -19 -42
-20 -45 -1 -3 -13 -30 -27 -60 -14 -30 -90 -197 -168 -370 -78 -173 -152 -335
-164 -360 -13 -25 -24 -48 -25 -52 -3 -12 -36 -88 -68 -158 -32 -67 -53 -114
-96 -210 -29 -66 -56 -126 -108 -238 -22 -46 -39 -90 -39 -98 0 -8 -4 -14 -8
-14 -4 0 -16 -23 -26 -50 -14 -38 -23 -50 -40 -51 -78 -3 -1827 -1 -1830 2 -2
2 20 52 48 112 29 59 51 107 49 107 -2 0 7 19 19 43 12 23 23 44 23 47 3 9 23
54 60 135 20 44 43 94 50 110 7 17 28 62 45 100 46 101 53 119 52 128 -1 4 3
7 8 7 6 0 10 4 10 10 0 5 11 33 24 62 13 29 47 105 76 168 29 63 63 140 77
170 14 30 43 96 65 145 23 50 45 96 51 103 5 6 7 12 4 12 -3 0 7 26 22 58 16
31 35 73 44 92 101 224 137 306 137 317 0 7 5 13 10 13 6 0 10 4 10 9 0 8 144
330 273 611 11 25 21 47 22 50 1 3 11 25 22 50 11 25 53 117 93 205 40 88 82
183 95 210 44 95 65 144 65 150 0 4 10 21 22 38 13 18 21 32 20 32 -8 0 138
328 294 663 24 52 44 95 44 97 0 1 7 20 16 41 9 22 15 41 14 43 -1 2 2 7 7 10
5 3 30 56 57 116 27 61 61 137 77 170 68 150 282 622 289 640 4 11 22 52 40
90 37 80 78 172 82 183 1 4 17 37 35 75 18 37 33 70 33 72 0 3 25 57 55 121
30 64 55 122 55 128 0 7 5 17 12 24 6 6 13 17 14 24 1 7 25 62 53 121 28 60
51 110 51 112 0 3 62 140 82 182 9 18 21 23 67 25 127 7 1775 -2 1782 -9z"/>
<path d="M5809 7948 c-13 -5 -19 -12 -14 -16 11 -8 14 -172 3 -172 -3 0 -3
-12 1 -26 3 -14 4 -53 1 -86 -3 -32 -3 -61 0 -63 7 -4 3 -82 -4 -102 -3 -7 -2
-13 2 -13 4 0 5 -27 2 -61 -3 -33 -3 -62 0 -64 7 -4 3 -82 -4 -102 -3 -7 -2
-13 2 -13 4 0 5 -27 2 -61 -3 -33 -3 -62 0 -64 7 -4 3 -82 -4 -102 -3 -7 -2
-13 2 -13 4 0 5 -27 2 -61 -3 -33 -3 -62 0 -64 7 -4 3 -82 -4 -102 -3 -7 -2
-13 2 -13 4 0 5 -27 2 -60 -3 -34 -4 -63 -2 -65 7 -7 7 -145 0 -145 -3 0 -3
-12 1 -26 3 -14 4 -53 1 -86 -3 -32 -3 -61 0 -63 7 -4 3 -82 -4 -102 -3 -7 -2
-13 2 -13 4 0 5 -27 2 -61 -3 -33 -3 -62 0 -64 7 -4 3 -82 -4 -102 -3 -7 -2
-13 2 -13 4 0 5 -27 2 -61 -3 -33 -3 -62 0 -64 7 -4 3 -82 -4 -102 -3 -7 -2
-13 2 -13 4 0 5 -27 2 -61 -3 -33 -3 -62 0 -64 7 -4 3 -82 -4 -102 -3 -7 -2
-13 2 -13 4 0 5 -27 2 -60 -3 -34 -4 -63 -2 -65 7 -7 7 -145 0 -145 -3 0 -3
-12 1 -26 3 -14 4 -53 1 -86 -3 -32 -3 -61 0 -63 7 -4 3 -82 -4 -102 -3 -7 -2
-13 2 -13 4 0 5 -27 2 -61 -3 -33 -3 -62 0 -64 7 -4 3 -82 -4 -102 -3 -7 -2
-13 2 -13 4 0 5 -27 2 -61 -3 -33 -3 -62 0 -64 7 -4 3 -82 -4 -102 -3 -7 -2
-13 2 -13 4 0 5 -27 2 -61 -3 -33 -3 -62 0 -64 7 -4 3 -82 -4 -102 -3 -7 -2
-13 2 -13 4 0 5 -27 2 -60 -3 -34 -4 -62 -2 -64 6 -7 7 -786 0 -786 -3 0 -3
-12 1 -26 3 -14 4 -53 1 -86 -3 -32 -3 -61 0 -63 7 -4 3 -82 -4 -102 -3 -7 -2
-13 2 -13 4 0 5 -27 2 -61 -3 -33 -3 -62 0 -64 7 -4 3 -82 -4 -102 -3 -7 -2
-13 2 -13 4 0 5 -27 2 -61 -3 -33 -3 -62 0 -64 7 -4 3 -82 -4 -102 -3 -7 -2
-13 2 -13 4 0 5 -27 2 -61 -3 -33 -3 -62 0 -64 7 -4 3 -82 -4 -102 -3 -7 -2
-13 2 -13 4 0 5 -27 2 -60 -3 -34 -4 -63 -2 -65 6 -5 3 -707 -2 -713 -3 -2 -2
-12 3 -21 4 -9 5 -44 2 -79 -4 -35 -4 -65 -1 -67 4 -2 5 -17 2 -33 l-4 -29
649 2 c356 1 659 5 673 8 24 7 83 17 127 22 47 6 271 66 338 90 39 14 75 27
80 29 55 18 286 129 350 169 247 153 454 333 630 548 48 59 125 167 125 177 0
6 4 12 9 14 17 6 128 211 189 348 23 52 92 246 98 275 2 11 15 67 29 125 14
58 27 125 30 150 2 25 8 68 12 95 15 109 8 493 -13 598 -2 12 -6 39 -9 62 -12
81 -93 371 -116 415 -4 8 -16 35 -26 60 -51 128 -200 399 -224 408 -5 2 -9 8
-9 14 0 24 -176 234 -288 343 l-72 71 58 115 c31 63 65 132 73 154 23 55 68
199 74 237 3 17 8 35 11 40 3 5 7 25 10 46 2 20 10 87 17 147 7 61 11 164 9
230 -2 66 -5 139 -6 162 0 24 -4 43 -7 43 -3 0 -6 6 -6 13 -2 117 -86 383
-177 557 -16 30 -34 65 -40 77 -6 13 -14 23 -18 23 -5 0 -8 5 -8 11 0 11 -93
149 -133 197 -183 217 -378 371 -617 489 -41 20 -77 37 -80 37 -3 1 -26 9 -50
20 -25 10 -54 22 -65 26 -37 15 -210 60 -249 65 -21 3 -41 7 -45 9 -12 8 -135
19 -218 20 -46 1 -83 3 -83 6 0 8 -95 4 -107 -3 -7 -4 -14 -4 -16 0 -6 9 -129
9 -144 0 -6 -4 -13 -4 -17 0 -8 9 -351 7 -365 -1 -6 -4 -11 -4 -11 1 0 4 -52
8 -115 8 -63 0 -115 -3 -115 -7 0 -4 -6 -5 -12 -3 -26 10 -97 11 -119 3z"/>
<path d="M5495 7342 c-16 -37 -44 -98 -61 -137 -149 -326 -153 -338 -152 -380
0 -24 -3 -48 -6 -54 -4 -6 -4 -11 1 -11 9 0 7 -284 -1 -307 -3 -7 -2 -13 2
-13 8 0 6 -285 -2 -307 -3 -7 -2 -13 2 -13 8 0 6 -285 -2 -307 -3 -7 -2 -13 2
-13 8 0 6 -285 -2 -307 -3 -7 -2 -13 2 -13 8 0 6 -285 -2 -307 -3 -7 -2 -13 2
-13 8 0 6 -285 -2 -307 -3 -7 -2 -13 2 -13 8 0 6 -285 -2 -307 -3 -7 -2 -13 2
-13 8 0 6 -285 -2 -307 -3 -7 -2 -13 2 -13 4 0 7 -63 7 -140 0 -77 -2 -140 -5
-140 -4 0 -4 -114 0 -130 1 -3 1 -25 1 -50 -2 -58 -2 -46 1 -183 2 -64 1 -117
-2 -117 -3 0 -5 -27 -5 -60 0 -33 2 -60 5 -60 3 0 4 -19 2 -42 -2 -45 -2 -126
1 -246 1 -39 0 -72 -3 -72 -4 0 -4 -114 0 -130 1 -3 1 -25 1 -50 -2 -58 -2
-46 1 -183 2 -64 1 -117 -2 -117 -3 0 -5 -27 -5 -60 0 -33 2 -60 5 -60 3 0 4
-19 2 -42 -2 -45 -2 -126 1 -246 1 -39 0 -72 -3 -72 -4 0 -4 -114 0 -130 1 -3
1 -25 1 -50 -2 -58 -2 -46 1 -183 2 -64 1 -117 -2 -117 -3 0 -5 -14 -5 -32 l0
-31 -967 -1 c-637 -1 -969 2 -971 9 -2 6 -3 254 -2 553 l0 543 -33 -68 c-19
-37 -35 -72 -36 -78 -1 -5 -17 -41 -35 -80 -38 -82 -64 -139 -117 -255 l-38
-85 0 -393 c-1 -385 -1 -393 19 -397 37 -7 2436 -2 2440 5 3 4 4 286 4 626 0
341 0 626 0 634 0 81 0 468 0 480 -1 15 -1 1090 0 1120 0 8 0 116 0 240 0 124
0 232 0 240 0 8 0 44 0 80 1 36 1 72 0 80 0 11 0 282 0 480 0 8 0 44 0 80 1
36 1 72 0 80 0 11 0 282 0 480 0 8 0 44 0 80 1 36 1 72 0 80 0 11 0 282 0 480
0 8 0 44 0 80 1 36 1 72 0 80 0 8 0 116 0 240 0 276 0 242 0 325 1 103 1 125
2 133 4 25 -2 82 -8 82 -5 0 -21 -31 -38 -68z"/>
<path d="M5001 6247 c-8 -18 -33 -74 -57 -125 -24 -51 -44 -95 -44 -97 0 -3
-13 -33 -30 -67 -16 -34 -30 -67 -30 -75 0 -7 -4 -13 -10 -13 -5 0 -10 -6 -10
-13 0 -8 -6 -27 -14 -43 -25 -49 -96 -205 -96 -209 0 -1 -18 -43 -41 -92 -23
-48 -48 -104 -56 -123 -9 -19 -35 -77 -59 -129 -24 -51 -44 -99 -44 -106 0 -7
-7 -18 -15 -25 -8 -7 -15 -19 -15 -27 0 -8 -7 -27 -15 -41 -8 -15 -25 -52 -38
-82 -14 -30 -39 -85 -56 -123 -17 -37 -31 -72 -31 -77 0 -6 -4 -10 -10 -10 -5
0 -9 -3 -9 -7 1 -5 0 -11 -1 -15 -1 -5 -3 -11 -4 -15 -1 -5 -15 -35 -30 -68
-16 -33 -36 -78 -46 -100 -10 -22 -37 -80 -59 -128 -23 -49 -41 -90 -41 -92 0
-2 -21 -48 -47 -102 -25 -54 -47 -102 -49 -108 -1 -5 -19 -46 -39 -90 -76
-164 -105 -227 -105 -231 0 -2 -20 -47 -45 -100 -25 -53 -45 -97 -45 -99 0 -2
-20 -46 -44 -97 -24 -51 -53 -115 -66 -143 -53 -118 -73 -162 -88 -195 -15
-31 -17 -108 -17 -743 0 -421 4 -711 9 -715 13 -8 1407 -8 1412 0 5 7 6 4549
1 4554 -1 2 -9 -11 -16 -29z"/>
</g>
</svg>
