<?xml version="1.0" standalone="no"?>
<!DOCTYPE svg PUBLIC "-//W3C//DTD SVG 20010904//EN"
 "http://www.w3.org/TR/2001/REC-SVG-20010904/DTD/svg10.dtd">
<svg version="1.0" xmlns="http://www.w3.org/2000/svg"
 width="700.000000pt" height="700.000000pt" viewBox="0 0 700.000000 700.000000"
 preserveAspectRatio="xMidYMid meet">
<metadata>
Created by potrace 1.14, written by Peter Selinger 2001-2017
</metadata>
<g transform="translate(0.000000,700.000000) scale(0.100000,-0.100000)"
fill="#000000" stroke="none">
<path d="M1617 5824 c-1 -1 -27 -5 -57 -8 -194 -19 -419 -103 -599 -223 -106
-71 -279 -242 -348 -344 -371 -544 -307 -1259 152 -1722 37 -38 93 -87 124
-110 31 -23 58 -45 61 -48 14 -17 165 -98 171 -91 3 4 57 120 119 257 62 138
123 273 135 300 13 28 53 117 90 199 37 83 80 177 95 210 15 34 40 88 55 121
43 97 51 114 110 245 31 69 126 279 211 467 85 189 170 378 190 420 19 43 41
92 49 108 7 17 29 64 48 105 19 42 37 85 41 97 l7 22 -326 -1 c-179 -1 -326
-2 -328 -4z m303 -228 c0 -2 -35 -83 -79 -178 -43 -95 -88 -195 -101 -223 -12
-27 -44 -97 -70 -155 -26 -58 -89 -197 -140 -310 -50 -113 -102 -227 -115
-255 -19 -41 -98 -216 -227 -505 -12 -25 -33 -72 -48 -105 -48 -105 -67 -149
-94 -208 l-25 -58 -32 28 c-215 188 -357 460 -385 738 -5 46 -4 185 1 235 29
298 195 589 443 775 146 109 338 190 507 213 65 9 365 16 365 8z"/>
<path d="M2360 5577 c-62 -139 -133 -294 -156 -346 -24 -51 -44 -95 -44 -96 0
-2 -15 -36 -34 -77 -18 -40 -97 -212 -174 -383 -77 -170 -151 -335 -165 -365
-14 -30 -43 -95 -65 -145 -22 -49 -53 -119 -69 -155 -50 -107 -75 -162 -100
-220 -14 -30 -35 -77 -48 -105 -37 -83 -61 -135 -110 -245 -26 -58 -58 -130
-72 -160 -14 -30 -162 -359 -330 -730 -168 -371 -313 -693 -323 -715 -10 -22
-64 -141 -120 -265 -55 -124 -110 -245 -122 -270 -11 -25 -29 -64 -39 -87
l-18 -42 851 2 852 2 45 100 c25 56 60 132 77 170 47 104 189 418 404 895 106
234 201 445 212 470 12 25 38 82 59 128 22 46 39 85 39 87 0 2 13 32 29 67 54
117 201 444 383 847 11 25 34 75 51 111 16 36 37 83 47 105 10 22 29 65 43 95
13 30 34 75 45 100 18 41 126 279 185 410 20 43 260 577 322 715 7 17 30 66
51 110 38 84 104 235 104 240 0 2 -382 3 -849 3 l-849 0 -112 -251z m1474 -24
c-19 -43 -44 -96 -54 -118 -10 -22 -71 -157 -136 -300 -64 -143 -127 -284
-140 -312 -13 -29 -35 -77 -48 -105 -77 -172 -281 -623 -423 -938 -91 -201
-173 -383 -183 -405 -41 -92 -164 -364 -187 -415 -14 -30 -45 -100 -70 -155
-24 -55 -57 -127 -73 -161 -15 -33 -57 -125 -93 -205 -36 -79 -76 -169 -90
-199 -14 -30 -65 -145 -115 -255 -49 -110 -105 -234 -124 -275 -19 -41 -61
-135 -94 -207 l-58 -133 -633 0 c-348 0 -633 2 -633 4 0 3 92 208 140 311 10
22 82 182 160 355 78 173 152 338 165 365 13 28 64 142 115 255 51 113 103
230 117 260 14 30 88 195 165 365 77 171 156 343 174 383 19 41 34 75 34 77 0
2 15 37 34 77 18 40 40 89 49 108 15 35 71 157 107 235 10 22 81 180 158 350
77 171 192 427 257 570 64 143 126 280 137 305 11 25 36 79 55 120 19 41 39
85 44 98 l9 22 634 0 635 0 -35 -77z"/>
<path d="M4369 5812 c-13 -2 -15 -286 -15 -2318 l0 -2316 410 5 c226 3 422 8
436 10 14 3 45 8 70 12 254 37 560 174 772 345 189 153 364 382 459 602 42 96
91 260 103 341 4 27 10 59 13 70 9 38 11 300 2 367 -7 60 -10 80 -24 151 -12
64 -59 210 -92 286 -74 173 -177 325 -321 475 -46 47 -79 89 -74 92 12 7 91
169 113 233 75 218 83 454 25 708 -10 48 -51 155 -83 220 -196 395 -598 670
-1040 711 -67 7 -725 12 -754 6z"/>
<path d="M4111 5247 c-30 -67 -72 -160 -93 -206 l-39 -83 0 -1794 0 -1794
-577 -2 -577 -3 0 -95 0 -95 673 -2 c369 -1 673 2 673 5 4 23 3 4192 -1 4192
-3 0 -29 -55 -59 -123z"/>
<path d="M3784 4520 c-7 -14 -25 -54 -42 -90 -16 -36 -93 -207 -172 -380 -78
-173 -151 -333 -161 -355 -16 -37 -135 -302 -181 -405 -11 -25 -31 -70 -45
-100 -83 -182 -228 -501 -243 -535 -10 -22 -28 -62 -40 -90 -13 -27 -35 -77
-49 -110 l-27 -60 1 -417 c0 -229 3 -419 6 -423 7 -6 959 -9 965 -2 2 2 3 676
2 1498 -2 1127 -6 1488 -14 1469z"/>
</g>
</svg>
