<?xml version="1.0" encoding="UTF-8"?>
<svg id="LOGO_Rebranding_2024_" data-name="LOGO (Rebranding 2024)" xmlns="http://www.w3.org/2000/svg" viewBox="0 0 1080 1080">
  <defs>
    <style>
      .cls-1 {
        fill: #ed1c24;
      }

      .cls-1, .cls-2 {
        stroke-width: 0px;
      }

      .cls-2 {
        fill: #fff;
      }
    </style>
  </defs>
  <g id="Full_Logo_WHT" data-name="Full Logo WHT">
    <g id="Logo">
      <path class="cls-2" d="M435.92,721.05h150.24v-464.2l-150.24,332.71v131.48ZM1022.76,533.86c0,134.62-113.26,243.75-252.97,243.75h-98.04V62.97h98.04c110.55,0,200.18,86.36,200.18,192.87,0,36.23-10.37,70.13-28.41,99.09,49.94,44.51,81.2,108.2,81.2,178.93Z"/>
      <path class="cls-1" d="M296.73,95.88l-139.34,308.55c-15.06-12.03-28.09-26.55-38.5-43.01-17.44-27.6-26.66-59.53-26.66-92.37,0-46.26,18.01-89.74,50.72-122.45,32.71-32.71,76.19-50.72,122.45-50.72h31.32M350.93,60.88h-85.53c-114.97,0-208.17,93.2-208.17,208.17,0,81.66,47.03,152.36,115.49,186.46L350.93,60.88h0ZM596.76,91.44l-296.67,656.97H104.57L401.24,91.44h195.52M644.08,60.88h-262.57L57.24,778.97h262.57L644.08,60.88h0ZM613.82,195.59v553.12h-177.91v30.26h208.17V128.58l-30.26,67.01Z"/>
    </g>
    <g>
      <path class="cls-2" d="M120.09,981.39h-7.46l-18.92-26.53c-2.29.23-4.7.46-7.34.46h-22.6v26.07h-6.54v-31.81h29.13c16.75,0,25.81-7.92,25.81-21.36s-9.06-21.36-25.81-21.36h-29.13v-5.86h29.13c20.19,0,32.46,10.11,32.46,27.22,0,12.75-6.88,21.59-18.7,25.15l19.96,28.02Z"/>
      <path class="cls-2" d="M133.63,981.39h-7l36.93-80.4h6.54l36.93,80.4h-7.11l-33.15-73.28-33.15,73.28Z"/>
      <path class="cls-2" d="M227.8,941.19v34.34h25c22.37,0,36.59-14.24,36.59-34.34s-14.22-34.34-36.59-34.34h-31.54v-5.86h32c25.58,0,42.78,16.65,42.78,40.2s-17.21,40.2-42.78,40.2h-32v-40.2h6.54Z"/>
      <path class="cls-2" d="M308.43,941.19c0-23.43,17.89-40.77,41.87-40.77s41.87,17.34,41.87,40.77-17.89,40.77-41.87,40.77-41.87-17.34-41.87-40.77ZM385.51,941.19c0-19.98-15.03-34.8-35.21-34.8s-35.21,14.82-35.21,34.8,15.03,34.8,35.21,34.8,35.21-14.82,35.21-34.8Z"/>
      <path class="cls-2" d="M404.09,971.28l2.87-5.05c5.5,5.63,15.71,9.99,26.5,9.99,15.71,0,22.6-6.78,22.6-15.28,0-23.54-49.89-9.3-49.89-39.05,0-11.37,8.83-21.48,28.79-21.48,8.95,0,18.24,2.64,24.43,7.24l-2.41,5.28c-6.77-4.59-14.8-6.78-22.02-6.78-15.25,0-22.14,7.01-22.14,15.62,0,23.54,49.89,9.53,49.89,38.82,0,11.49-9.18,21.36-29.25,21.36-11.93,0-23.51-4.36-29.36-10.68Z"/>
      <path class="cls-2" d="M482.19,981.39v-80.4h6.54v74.54h45.88v5.86h-52.42Z"/>
      <path class="cls-2" d="M543.44,981.39h-7l36.93-80.4h6.54l36.93,80.4h-7.11l-33.15-73.28-33.15,73.28Z"/>
      <path class="cls-2" d="M656.08,981.39h-6.54l-35.79-80.4h7.23l31.89,72.01,32.12-72.01h6.77l-35.67,80.4Z"/>
      <path class="cls-2" d="M735.79,900.99h33.72c17.43,0,27.87,7.35,27.87,20.56,0,9.42-5.28,15.62-13.08,18.38,11.01,2.18,17.32,9.07,17.32,20.1,0,13.67-9.86,21.36-29.82,21.36h-36.02v-5.63h36.02c15.03,0,23.17-4.94,23.17-16.19s-8.14-16.19-23.17-16.19h-36.02v-5.51h33.49c13.54,0,21.45-5.28,21.45-15.62s-7.91-15.62-21.45-15.62h-33.49v-5.63Z"/>
      <path class="cls-2" d="M822.04,981.39v-80.4h6.54v74.54h45.88v5.86h-52.42Z"/>
      <path class="cls-2" d="M889.25,899.73h54.03v5.86h-54.03v-5.86ZM889.25,937.63h54.03v5.86h-54.03v-5.86ZM889.25,981.39h54.03v-5.86h-54.03v5.86Z"/>
      <path class="cls-2" d="M990.53,981.39h-6.65v-27.68l-32.23-52.72h7.11l28.56,46.75,28.68-46.75h6.77l-32.23,52.72v27.68Z"/>
    </g>
    <g>
      <path class="cls-2" d="M328.26,1013h15.67c10.86,0,17.45,5.44,17.45,14.64s-6.6,14.58-17.45,14.58h-12.15v14.02h-3.51v-17.17h15.67c9,0,13.88-4.2,13.88-11.43s-4.87-11.49-13.88-11.49h-15.67v-3.15Z"/>
      <path class="cls-2" d="M405.6,1056.23h-4.01l-10.18-14.27c-1.23.12-2.53.25-3.95.25h-12.15v14.02h-3.52v-17.11h15.67c9,0,13.88-4.26,13.88-11.49s-4.87-11.49-13.88-11.49h-15.67v-3.15h15.67c10.85,0,17.45,5.44,17.45,14.64,0,6.86-3.7,11.61-10.05,13.53l10.73,15.07Z"/>
      <path class="cls-2" d="M412.2,1034.62c0-12.6,9.62-21.93,22.51-21.93s22.51,9.33,22.51,21.93-9.62,21.93-22.51,21.93-22.51-9.33-22.51-21.93ZM453.65,1034.62c0-10.75-8.08-18.72-18.93-18.72s-18.93,7.97-18.93,18.72,8.08,18.71,18.93,18.71,18.93-7.97,18.93-18.71Z"/>
      <path class="cls-2" d="M471.48,1034.62v18.47h13.45c12.03,0,19.67-7.66,19.67-18.47s-7.65-18.47-19.67-18.47h-16.96v-3.15h17.21c13.75,0,23,8.96,23,21.62s-9.25,21.62-23,21.62h-17.21v-21.62h3.52Z"/>
      <path class="cls-2" d="M518.54,1037.89v-24.89h3.52v24.71c0,10.62,5.06,15.63,13.94,15.63s13.88-5,13.88-15.63v-24.71h3.52v24.89c0,12.35-6.6,18.65-17.46,18.65s-17.39-6.3-17.39-18.65Z"/>
      <path class="cls-2" d="M563.68,1034.62c0-12.6,9.62-21.93,22.45-21.93,6.17,0,11.72,2.04,15.54,6.05l-2.28,2.29c-3.64-3.64-8.14-5.13-13.14-5.13-10.86,0-19,8.03-19,18.72s8.14,18.71,19,18.71c5,0,9.5-1.54,13.14-5.19l2.28,2.29c-3.82,4.08-9.38,6.11-15.54,6.11-12.83,0-22.45-9.33-22.45-21.93Z"/>
      <path class="cls-2" d="M619.69,1056.23v-40.09h-15.42v-3.15h34.42v3.15h-15.42v40.09h-3.58Z"/>
      <path class="cls-2" d="M646.34,1056.23v-43.24h3.52v43.24h-3.52Z"/>
      <path class="cls-2" d="M660.58,1034.62c0-12.6,9.62-21.93,22.51-21.93s22.51,9.33,22.51,21.93-9.62,21.93-22.51,21.93-22.51-9.33-22.51-21.93ZM702.03,1034.62c0-10.75-8.08-18.72-18.93-18.72s-18.93,7.97-18.93,18.72,8.08,18.71,18.93,18.71,18.93-7.97,18.93-18.71Z"/>
      <path class="cls-2" d="M719.86,1056.23h-3.52v-43.24h2.96l28.93,36.81v-36.81h3.51v43.24h-2.96l-28.93-36.81v36.81Z"/>
    </g>
  </g>
</svg>