<?xml version="1.0" encoding="UTF-8" standalone="no"?>
<!DOCTYPE svg PUBLIC "-//W3C//DTD SVG 1.1//EN" "http://www.w3.org/Graphics/SVG/1.1/DTD/svg11.dtd">
<svg width="100%" height="100%" viewBox="0 0 915 676" version="1.1" xmlns="http://www.w3.org/2000/svg" xmlns:xlink="http://www.w3.org/1999/xlink" xml:space="preserve" xmlns:serif="http://www.serif.com/" style="fill-rule:evenodd;clip-rule:evenodd;stroke-linejoin:round;stroke-miterlimit:2;">
    <g transform="matrix(1,0,0,1,-966,0)">
        <g id="monogram_color-dark" transform="matrix(1,0,0,1,-57.8374,-0.6417)">
            <rect x="1024.2" y="0.642" width="914.128" height="675.401" style="fill:none;"/>
            <clipPath id="_clip1">
                <rect x="1024.2" y="0.642" width="914.128" height="675.401"/>
            </clipPath>
            <g clip-path="url(#_clip1)">
                <g id="Letter-B" serif:id="Letter B" transform="matrix(1,0,0,1,965.817,-173.358)">
                    <path d="M559.704,340.628L559.704,798.042L417.263,798.042L417.263,655.429L559.704,340.628ZM637.719,850.042L637.719,174.642L739.784,174.642C839.892,174.642 921.167,255.264 921.167,354.568C921.167,388.382 911.743,420.029 895.361,447.066C942.839,489.379 972.719,550.744 972.719,618.978C972.719,746.506 868.345,850.042 739.784,850.042L637.719,850.042Z" style="fill:rgb(28,28,30);"/>
                </g>
                <g id="Letter-R" serif:id="Letter R" transform="matrix(1,0,0,1,965.817,-173.358)">
                    <path d="M611.704,225.706L611.704,850.042L365.263,850.042L365.263,770.351L391.263,712.89L391.263,824.042L585.704,824.042L585.704,283.167L611.704,225.706ZM166.449,548.602C102.443,515.837 58.591,449.212 58.591,372.426C58.591,263.266 147.215,174.642 256.375,174.642L335.659,174.642L166.449,548.602ZM154.916,511.021L295.356,200.642L256.375,200.642C161.565,200.642 84.591,277.616 84.591,372.426C84.591,429.296 112.291,479.745 154.916,511.021ZM300.666,850.042L58.591,850.042L364.196,174.642L606.272,174.642L300.666,850.042ZM565.97,200.642L380.97,200.642L98.893,824.042L283.893,824.042L565.97,200.642Z" style="fill:rgb(255,81,1);"/>
                </g>
            </g>
        </g>
    </g>
</svg>
