<?xml version="1.0" encoding="UTF-8"?>
<svg id="LOGO_Rebranding_2024_" data-name="LOGO (Rebranding 2024)" xmlns="http://www.w3.org/2000/svg" viewBox="0 0 1080 1080">
  <defs>
    <style>
      .cls-1 {
        fill: #1c1c1d;
        stroke-width: 0px;
      }
    </style>
  </defs>
  <g id="monogram-dark">
    <g id="Logo">
      <path class="cls-1" d="M435.92,841.12h150.24v-464.2l-150.24,332.71v131.48ZM1022.76,653.94c0,134.62-113.26,243.75-252.97,243.75h-98.04V183.05h98.04c110.55,0,200.18,86.36,200.18,192.87,0,36.23-10.37,70.13-28.41,99.09,49.94,44.51,81.2,108.2,81.2,178.93Z"/>
      <path class="cls-1" d="M296.73,215.96l-139.34,308.55c-15.06-12.03-28.09-26.55-38.5-43.01-17.44-27.6-26.66-59.53-26.66-92.37,0-46.26,18.01-89.74,50.72-122.45,32.71-32.71,76.19-50.72,122.45-50.72h31.32M350.93,180.96h-85.53c-114.97,0-208.17,93.2-208.17,208.17,0,81.66,47.03,152.36,115.49,186.46l178.21-394.63h0ZM596.76,211.51l-296.67,656.97H104.57L401.24,211.51h195.52M644.08,180.96h-262.57L57.24,899.04h262.57L644.08,180.96h0ZM613.82,315.66v553.12h-177.91v30.26h208.17V248.66l-30.26,67.01Z"/>
    </g>
  </g>
</svg>