<?xml version="1.0" encoding="UTF-8"?>
<svg id="Layer_1" data-name="Layer 1" xmlns="http://www.w3.org/2000/svg" viewBox="0 0 512 512">
  <defs>
    <style>
      .cls-1 {
        fill: #000;
        stroke-width: 0px;
      }
    </style>
  </defs>
  <path class="cls-1" d="M512,215.99c-10.03,18.2-32.83,31.57-53.72,25.94-32.45-6.61-64.92-7.12-97.56-1.39-18.55,3.31-37.53,5.53-56.38,3.1,38.63-3.19,76.66-11.33,115.42-13.49,18.55-2.47,35.15,9.34,53.66,3.11-80.91-19.87-167.11-53.14-249.92-26.08-19.15,5.35-37.52,13.57-56.65,18.79,87.96-53.16,191.36-38.98,284.53-8.07,20.51,6.76,41.38,12.49,59.93-2.43.23.17.47.34.7.51ZM-1.75,265.27c126.14-45.56,264.71-5.1,392.2-44.53-47.28,4.03-95.47,11.24-143.38,11.31-95.37.75-159.21-14.09-249.11,32.46l.3.75ZM185.44,318.13c69.72,4.18,140.5,6.41,209.78-3.95-70.14-2.63-140-1.72-209.78,3.95ZM65.89,255.18c-20.39,2.37-37.26,10.61-53.95,21.7,16.25-1.51,48.53-3.41,53.95-21.7Z"/>
  <g>
    <path class="cls-1" d="M470.57,300.47h-32.12v-48.72h-13.62v56.74h45.75v-8.02Z"/>
    <path class="cls-1" d="M419.29,251.75h-13.74v56.03l.34.71h13.4v-56.74Z"/>
    <path class="cls-1" d="M350.83,294.1h28.25l6.87,14.39h14.07l-27.03-56.74h-13.96l-27.69,56.74h12.63l6.87-14.39ZM354.04,286.49l10.63-22.66h.33l10.63,22.66h-21.6Z"/>
    <path class="cls-1" d="M313.89,259.78h21.6v-8.02h-48.02v8.02h12.79v48.72h13.62v-48.72Z"/>
    <path class="cls-1" d="M282.6,300.47h-34.45v-17.2h26.25v-7.94h-26.25v-15.55h33.78v-8.02h-47.41v4.67l1.19.96,2.3,2.39,1.93,2.62,1.56,2.84,1.2,3.05.85,3.25.5,3.44.16,3.58v1.79l-.15,3.52-.46,3.42-.78,3.25-1.11,3.09-1.45,2.91-1.81,2.72-2.18,2.51-1.76,1.58v5.14h48.07v-8.02Z"/>
    <path class="cls-1" d="M206.88,308.38l4.13-.35,3.84-.58,3.55-.8,3.26-1.03,2.97-1.25,2.68-1.47,2.4-1.68,2.11-1.9,1.83-2.11,1.54-2.32,1.26-2.52.98-2.72.7-2.92.42-3.12.14-3.32v-1.65l-.15-3.36-.45-3.12-.75-2.89-1.05-2.66-1.34-2.43-1.62-2.2-1.9-1.98-2.18-1.76-2.45-1.54-2.72-1.33-2.98-1.12-3.24-.91-3.5-.7-3.75-.5-4-.3-4.24-.1h-24.92v25.72h9.69v16.21h-9.69v14.81h25.03l4.42-.12ZM191.05,300.47v-40.69h10.52l5.11.22,4.51.7,2.02.55,1.87.7,1.7.85,1.54,1.01,1.37,1.17,1.2,1.35,1.02,1.53.84,1.72.66,1.92.48,2.13.29,2.35.1,2.57v2.73l-.32,4.77-.98,4.02-.74,1.74-.91,1.57-1.08,1.4-1.25,1.24-1.43,1.08-1.6.92-1.78.77-1.96.62-2.14.47-2.32.33-5.19.26h-11.52Z"/>
    <path class="cls-1" d="M181.57,281.61h-20.77v7.94h20.77v-7.94Z"/>
    <path class="cls-1" d="M79.72,308.49h11.96v-44.08h.33l18.94,44.08h11.19l19.05-44.08h.44v44.08h13.62v-56.74h-19.05l-18.5,42.76h-.33l-18.5-42.76h-19.16v56.74Z"/>
  </g>
</svg>