<?xml version="1.0" encoding="UTF-8"?>
<svg id="Layer_1" data-name="Layer 1" xmlns="http://www.w3.org/2000/svg" viewBox="0 0 512 512">
  <defs>
    <style>
      .cls-1 {
        fill: #000;
        stroke-width: 0px;
      }
    </style>
  </defs>
  <path class="cls-1" d="M68.65,197.62v-78.27h18.46v34.07l25.85-34.07h22.24l-29.52,37.24,31.84,41.03h-22.55l-27.86-36.06v36.06h-18.46ZM165.16,133.62h-3.08v21.66h3.94c4.72,0,8.31-.96,10.79-2.86,2.49-1.9,3.73-4.64,3.73-8.2,0-3.74-1.2-6.43-3.61-8.11-2.41-1.68-6.34-2.51-11.77-2.51ZM143.95,197.62v-78.27h20.12c6.45,0,11.44.43,15,1.28,3.56.84,6.69,2.25,9.43,4.23,2.91,2.08,5.18,4.67,6.78,7.74,1.61,3.08,2.4,6.32,2.4,9.73,0,4.94-1.26,9.25-3.76,12.95-2.51,3.7-6.12,6.6-10.83,8.7l23.88,33.65h-21.34l-20.89-30.74h-2.65v30.74h-18.13ZM214.39,197.62v-78.27h48.2v16.14h-30.07v14.15h25.76v16.03h-25.76v15.48h30.51v16.47h-48.64ZM294.3,172.75h20.56l-10.15-24.5-10.41,24.5ZM265,197.62l39.93-80.7h1.18l39.04,80.7h-19.55l-4.95-11.39h-31.76l-5.07,11.39h-18.81ZM358.87,197.62v-61.91h-24.87v-16.36h68.32v16.36h-24.76v61.91h-18.69ZM411.51,197.62v-78.27h18.68v78.27h-18.68ZM475.06,200.61h-1.29l-36.94-81.25h19.77l18.46,42.8,18.62-42.8h18.32l-36.94,81.25ZM13.47,279.48c-3.72.09-6.65-1.15-8.77-3.75-2.1-2.58-3.51-5.72-4.18-9.44-.67-3.73-.69-7.67-.06-11.8.62-4.14,1.79-7.82,3.49-11.04,1.19-2.1,2.6-4.07,4.26-5.89,1.65-1.82,3.51-3.36,5.56-4.57,2.08-1.23,4.38-2.12,6.87-2.66,2.49-.56,5.22-.62,8.19-.19-.61-3.14-1.43-7.04-2.49-11.74-1.04-4.7-2.1-9.81-3.16-15.35-1.06-5.54-2.06-11.34-2.99-17.45-.93-6.09-1.64-12.06-2.14-17.95-.52-5.86-.68-11.45-.46-16.73.22-5.29.93-9.92,2.16-13.9,1.21-3.96,3.01-7.12,5.39-9.44,2.36-2.34,5.54-3.51,9.51-3.51,3.31,0,5.91,1.36,7.82,4.07,1.89,2.71,3.27,6.32,4.12,10.85.84,4.52,1.23,9.68,1.14,15.48-.08,5.78-.43,11.83-1.02,18.08-.58,6.26-1.36,12.54-2.29,18.84-.94,6.3-1.89,12.13-2.84,17.52-.97,5.37-1.88,10.05-2.73,14.07-.84,4.01-1.45,6.91-1.77,8.69.24,3.31.76,6.8,1.51,10.48.76,3.68,1.52,7.32,2.28,10.91.76,3.59,1.45,7.04,2.03,10.33.58,3.29.94,6.19,1.02,8.69.09,2.51-.2,4.48-.82,5.91-.63,1.43-1.84,2.12-3.62,2.03l-5.46-27.28c-.76,3.05-1.73,6.13-2.92,9.27-1.19,3.12-2.6,5.98-4.24,8.55-1.65,2.58-3.59,4.7-5.84,6.35-2.24,1.65-4.75,2.51-7.54,2.6ZM28.82,236.87c-2.04-.52-3.96-.56-5.78-.13-1.82.41-3.53,1.14-5.13,2.21-1.6,1.06-3.09,2.4-4.44,4.01-1.36,1.6-2.49,3.33-3.42,5.19-1.1,2.21-1.89,4.72-2.36,7.56-.46,2.82-.56,5.5-.33,7.99.26,2.49.89,4.59,1.91,6.28,1.02,1.69,2.42,2.49,4.2,2.4,1.52-.09,2.95-.8,4.31-2.16s2.6-3.09,3.74-5.26c1.15-2.14,2.15-4.57,3.03-7.23.89-2.66,1.67-5.29,2.3-7.86.62-2.58,1.12-5.03,1.45-7.36.35-2.32.52-4.2.52-5.63ZM33.39,215.93c.41-1.95.95-4.68,1.58-8.19.62-3.51,1.26-7.45,1.91-11.8.62-4.36,1.21-8.99,1.77-13.9.54-4.89.98-9.77,1.26-14.6.3-4.81.46-9.42.46-13.82s-.24-8.29-.7-11.67c-.47-3.4-1.23-6.11-2.29-8.12-1.06-2.04-2.47-3.05-4.24-3.05-1.87,0-3.36,1.23-4.51,3.68-1.15,2.45-1.93,5.8-2.34,10.03-.43,4.22-.58,9.18-.45,14.83.13,5.68.52,11.67,1.21,17.97.67,6.3,1.54,12.76,2.6,19.4,1.06,6.65,2.3,13.06,3.75,19.23ZM74.23,229.24c1.77,0,3.64.26,5.58.76,1.95.52,3.75,1.3,5.4,2.34,1.64,1.06,3.03,2.42,4.11,4.07,1.11,1.65,1.67,3.66,1.67,6.02-.09,2.71-.72,4.98-1.84,6.8-1.15,1.82-2.6,3.27-4.4,4.38-1.77,1.1-3.75,1.91-5.96,2.4-2.19.52-4.42.76-6.67.76s-4.36-.19-6.35-.62c-1.97-.41-3.64-1.02-5-1.78-.09,2.36.15,4.65.69,6.87.56,2.19,1.45,4.11,2.66,5.76,1.23,1.65,2.79,2.97,4.7,3.94,1.91.98,4.14,1.45,6.67,1.45,1.11,0,2.36-.21,3.79-.62,1.45-.43,2.9-.93,4.4-1.51,1.47-.61,2.88-1.26,4.24-1.97,1.35-.74,2.5-1.39,3.43-1.97.43,1.34.45,2.64.06,3.88-.39,1.21-.97,2.32-1.77,3.29-.8.97-1.77,1.84-2.92,2.6-1.13.76-2.21,1.36-3.23,1.77-1.61.67-3.23,1.19-4.83,1.51-1.61.35-3.03.52-4.31.52-2.12,0-4.42-.41-6.91-1.21-2.51-.8-4.83-2.23-6.99-4.31-2.14-2.08-3.94-4.87-5.39-8.38-1.43-3.51-2.1-8.01-2.01-13.51.67-7.19,2.73-12.86,6.15-17,3.42-4.14,8.42-6.22,15.03-6.22ZM61.41,247.52c1.63.58,3.55,1.04,5.85,1.38,2.28.35,4.55.41,6.78.2,2.25-.22,4.26-.82,6.04-1.84,1.78-1.02,2.91-2.62,3.43-4.83,0-1.17-.33-2.17-.96-2.96-.62-.82-1.43-1.45-2.4-1.91-.97-.48-2.06-.8-3.25-1.02-1.19-.21-2.27-.33-3.29-.33-2.97,0-5.5,1.15-7.62,3.43-2.1,2.29-3.64,4.91-4.57,7.88ZM98.46,264.78c2.36-.26,4.07.02,5.13.82,1.06.8,1.97,1.75,2.73,2.86.76,1.08,1.65,2.14,2.66,3.16,1.02,1.02,2.66,1.56,4.96,1.65,1.6,0,3.01-.3,4.24-.89,1.23-.58,2.23-1.36,3.05-2.34.8-.98,1.37-2.08,1.71-3.31.33-1.21.45-2.42.37-3.61-.26-2.36-.98-4.2-2.14-5.5-1.19-1.32-2.62-2.38-4.26-3.18-1.65-.8-3.43-1.47-5.33-2.04-1.91-.54-3.68-1.23-5.33-2.08-1.65-.84-3.03-1.95-4.18-3.31-1.15-1.34-1.84-3.2-2.1-5.58-.26-2.1.02-4,.82-5.7.8-1.69,1.91-3.12,3.31-4.26,1.39-1.13,3.01-2.01,4.87-2.66,1.87-.63,3.77-.98,5.72-1.06,1.34-.09,2.9,0,4.63.24,1.73.26,3.31.76,4.74,1.47,1.45.71,2.58,1.69,3.45,2.9.84,1.23,1.04,2.77.62,4.63-1.77-.41-3.7-.95-5.78-1.58-2.05-.63-4.42-.91-7.03-.82-.93,0-1.89.17-2.86.49-.98.35-1.84.8-2.6,1.35-.76.54-1.37,1.21-1.84,1.97-.46.76-.61,1.52-.44,2.28.09,1.53.72,2.75,1.91,3.68,1.17.94,2.62,1.76,4.31,2.47,1.69.74,3.53,1.45,5.52,2.16,1.97.72,3.83,1.63,5.56,2.73,1.75,1.1,3.23,2.51,4.46,4.24,1.21,1.73,1.95,3.96,2.21,6.67.26,2.53-.02,4.87-.82,6.97-.8,2.12-1.99,3.94-3.55,5.46-1.56,1.51-3.4,2.75-5.52,3.68-2.12.93-4.35,1.43-6.71,1.51-2.46.09-4.63-.24-6.54-1-1.9-.78-3.55-1.84-4.95-3.25-1.39-1.39-2.52-3.03-3.36-4.93-.84-1.91-1.41-4.01-1.65-6.28ZM138.67,227.97c2.62-.41,4.61.69,5.96,3.31.43.67.76,1.62.95,2.86.22,1.21.33,3.27.33,6.15l.39,39.2c-.7.43-1.43.58-2.23.46-.8-.13-1.58-.46-2.34-.96-.76-.52-1.41-1.21-1.91-2.1-.52-.89-.8-1.89-.89-2.99l-.26-45.93ZM137.42,217.31c0-1.34.45-2.29,1.39-2.86.93-.54,1.95-.8,3.05-.76,1.08.04,2.1.39,3.03,1.02.93.63,1.41,1.41,1.41,2.34,0,1.45-.48,2.45-1.41,2.99-.93.56-1.95.78-3.03.7-1.1-.09-2.12-.44-3.05-1.06-.94-.65-1.39-1.43-1.39-2.36ZM89.95,357.01c0-7.28,1.52-13.86,4.57-19.79,3.05-5.91,7.1-11.08,12.17-15.55,5.09-4.44,10.92-8.15,17.52-11.15,6.6-3.01,13.45-5.24,20.55-6.73,7.1-1.47,14.21-2.21,21.33-2.21s13.68.76,19.79,2.27c.15-6.34.24-12.52.24-18.51s.13-12.36.39-19.04c-2.3,3.81-5.22,6.97-8.81,9.51-3.6,2.53-7.69,3.81-12.26,3.81-2.28,0-4.25-.41-5.89-1.28-1.65-.84-2.99-1.97-4.01-3.42-1.02-1.43-1.75-3.12-2.21-5.07-.48-1.95-.72-4.03-.72-6.22,0-4.31.8-8.57,2.36-12.76,1.56-4.18,3.75-7.9,6.54-11.18,2.79-3.25,6.1-5.86,9.96-7.86,3.83-1.99,8.05-2.98,12.62-2.98,2.36,0,4.24.19,5.63.58,1.41.37,2.47,1,3.18,1.84.72.84,1.19,1.93,1.39,3.23.21,1.32.33,2.86.33,4.63,0,4.22-.07,8.51-.2,12.82-.13,4.31-.3,9.05-.5,14.21-.21,5.15-.39,10.96-.52,17.39-.13,6.43-.19,13.82-.19,22.2.78.43,1.77,1.06,2.99,1.91,1.23.84,2.55,1.88,4,3.12,1.43,1.21,2.92,2.62,4.5,4.18,1.56,1.56,3.05,3.31,4.51,5.26,1.02,1.37,1.93,2.82,2.73,4.38.8,1.58,1.51,3.1,2.14,4.57.65,1.49,1.19,2.9,1.67,4.24.45,1.37.78,2.52.95,3.45-1.45.41-2.75.28-3.94-.39-1.19-.67-2.31-1.65-3.35-2.92-1.06-1.26-2.08-2.69-3.05-4.24-.98-1.56-1.88-3.07-2.73-4.51-.67-1.02-1.47-2.08-2.4-3.16-.93-1.1-1.88-2.14-2.86-3.12-.98-.98-1.91-1.82-2.79-2.54-.89-.72-1.62-1.17-2.23-1.34,0,6.69-.69,13.32-2.08,19.85-1.41,6.57-3.47,12.82-6.17,18.78-2.71,5.98-6,11.5-9.9,16.57-3.87,5.09-8.31,9.5-13.31,13.25-4.98,3.77-10.48,6.71-16.5,8.84-6,2.1-12.43,3.16-19.27,3.16-5.5,0-10.48-1.08-14.92-3.23-4.44-2.16-8.23-5.02-11.41-8.57-3.16-3.55-5.61-7.6-7.3-12.17-1.69-4.57-2.54-9.27-2.54-14.1ZM185.62,311.97c-5.24-1.95-11.11-3.03-17.58-3.29-6.45-.26-13.01.24-19.66,1.45-6.63,1.23-13.06,3.22-19.28,5.98-6.24,2.75-11.73,6.17-16.56,10.27-4.83,4.11-8.62,8.88-11.41,14.33-2.79,5.46-4.07,11.5-3.81,18.08.17,4.83,1.13,9.03,2.86,12.63,1.73,3.59,3.9,6.58,6.52,8.94,2.64,2.38,5.48,4.18,8.58,5.39,3.07,1.23,6.1,1.89,9.07,1.97,6.52.26,12.54-.6,18.08-2.6s10.59-4.79,15.16-8.38c4.57-3.6,8.6-7.88,12.06-12.86,3.47-5.01,6.39-10.33,8.75-16,2.36-5.65,4.16-11.57,5.39-17.7,1.23-6.13,1.84-12.19,1.84-18.21ZM159.35,265.02c0,1.95.52,3.81,1.58,5.58,1.06,1.77,2.64,2.66,4.77,2.66,2.44,0,4.7-.65,6.73-1.97,2.01-1.3,3.86-3.01,5.5-5.13,1.67-2.12,3.12-4.51,4.4-7.17,1.26-2.66,2.32-5.39,3.16-8.19.85-2.79,1.47-5.48,1.91-8.05.44-2.58.63-4.89.63-6.91-3.73-.6-7.3-.24-10.72,1.06-3.43,1.32-6.47,3.31-9.14,5.98-2.67,2.66-4.79,5.91-6.41,9.77-1.6,3.85-2.4,7.97-2.4,12.36ZM205.67,227.97c2.04-.33,3.61.13,4.74,1.41,1.15,1.26,1.93,3.12,2.36,5.58,1.35-1.28,3.08-2.42,5.13-3.44,2.08-1,4.25-1.71,6.54-2.08,2.28-.39,4.53-.33,6.71.17,2.21.52,4.16,1.62,5.85,3.31,1.51,1.51,2.73,3.53,3.61,6.02.89,2.49,1.56,5.22,2.04,8.19.46,2.97.72,6,.76,9.14.05,3.14.02,6.13-.07,9.01-.09,1.02-.17,2.1-.26,3.23-.09,1.15-.22,2.29-.43,3.44-.22,1.13-.5,2.21-.82,3.23-.35,1.02-.76,1.82-1.28,2.4-1.19,1.45-2.88,2.16-5.07,2.16.24-6.26.37-11.63.37-16.11s-.09-8.29-.24-11.41c-.17-3.14-.48-5.69-.89-7.68-.43-2-.93-3.57-1.53-4.77-1.02-1.86-2.47-2.97-4.38-3.35-1.91-.39-3.88-.26-5.89.39-2.04.63-3.96,1.65-5.78,3.03-1.82,1.41-3.12,2.9-3.88,4.5v35.15c-.67.43-1.4.58-2.21.46-.8-.13-1.58-.46-2.36-.96-.76-.52-1.38-1.21-1.91-2.1-.49-.89-.8-1.89-.86-2.99l-.26-45.93ZM337.43,344.35h-14.15l-2.18-63.59h14.15l2.17,63.59ZM475.84,344.35h14.05l4.85-63.59h-14.05l-4.85,63.59ZM362.5,390.93h88.63v3.69h-88.63v-3.69ZM349.48,235.91l-3.38,79.64-10.87-93.56,140.44,2.71-14.57,93.18,10.59-87.4-122.22,5.42ZM473.88,330.63l.36,12.85-132.01.19h0s0,0,0,0h-2.86s1.43-13.04,1.43-13.04l-1.43-13.04h2.86s0,0,0,0h0s132.01.19,132.01.19l-.36,12.84ZM464.22,340.68l4.1-10.06-4.1-10.05-120.92-1.44-.51,11.5.51,11.5,120.92-1.44ZM398.34,346.56h16.95v43.42h-16.95v-43.42Z"/>
</svg>