<?xml version="1.0" encoding="UTF-8"?>
<svg id="Layer_1" data-name="Layer 1" xmlns="http://www.w3.org/2000/svg" xmlns:xlink="http://www.w3.org/1999/xlink" viewBox="0 0 512 512">
  <defs>
    <style>
      .cls-1 {
        fill: url(#radial-gradient-65);
        stroke: url(#linear-gradient-65);
      }

      .cls-1, .cls-2, .cls-3, .cls-4, .cls-5, .cls-6, .cls-7, .cls-8, .cls-9, .cls-10, .cls-11, .cls-12, .cls-13, .cls-14, .cls-15, .cls-16, .cls-17, .cls-18, .cls-19, .cls-20, .cls-21, .cls-22, .cls-23, .cls-24, .cls-25, .cls-26, .cls-27, .cls-28, .cls-29, .cls-30, .cls-31, .cls-32, .cls-33, .cls-34, .cls-35, .cls-36, .cls-37, .cls-38, .cls-39, .cls-40, .cls-41, .cls-42, .cls-43, .cls-44, .cls-45, .cls-46, .cls-47, .cls-48, .cls-49, .cls-50, .cls-51, .cls-52, .cls-53, .cls-54, .cls-55, .cls-56, .cls-57, .cls-58, .cls-59, .cls-60, .cls-61, .cls-62, .cls-63, .cls-64, .cls-65, .cls-66, .cls-67, .cls-68, .cls-69, .cls-70, .cls-71, .cls-72, .cls-73, .cls-74, .cls-75, .cls-76, .cls-77 {
        stroke-miterlimit: 10;
      }

      .cls-1, .cls-2, .cls-3, .cls-4, .cls-5, .cls-6, .cls-7, .cls-8, .cls-9, .cls-10, .cls-11, .cls-12, .cls-13, .cls-14, .cls-17, .cls-18, .cls-19, .cls-20, .cls-21, .cls-22, .cls-23, .cls-24, .cls-25, .cls-26, .cls-27, .cls-28, .cls-29, .cls-30, .cls-32, .cls-33, .cls-34, .cls-35, .cls-37, .cls-38, .cls-39, .cls-40, .cls-41, .cls-42, .cls-43, .cls-44, .cls-45, .cls-46, .cls-47, .cls-48, .cls-49, .cls-50, .cls-51, .cls-52, .cls-53, .cls-54, .cls-55, .cls-56, .cls-57, .cls-58, .cls-59, .cls-60, .cls-61, .cls-62, .cls-63, .cls-64, .cls-65, .cls-66, .cls-67, .cls-68, .cls-69, .cls-70, .cls-71, .cls-72, .cls-73, .cls-74, .cls-75, .cls-76, .cls-77 {
        stroke-width: .49px;
      }

      .cls-2 {
        fill: url(#radial-gradient-27);
        stroke: url(#linear-gradient-27);
      }

      .cls-3 {
        fill: url(#radial-gradient-43);
        stroke: url(#linear-gradient-43);
      }

      .cls-4 {
        fill: url(#radial-gradient-72);
        stroke: url(#linear-gradient-72);
      }

      .cls-5 {
        fill: url(#radial-gradient-15);
        stroke: url(#linear-gradient-15);
      }

      .cls-6 {
        fill: url(#radial-gradient-41);
        stroke: url(#linear-gradient-41);
      }

      .cls-7 {
        fill: url(#radial-gradient-49);
        stroke: url(#linear-gradient-49);
      }

      .cls-78 {
        fill: #000;
      }

      .cls-78, .cls-79, .cls-80, .cls-81 {
        stroke-width: 0px;
      }

      .cls-8 {
        fill: url(#radial-gradient-36);
        stroke: url(#linear-gradient-36);
      }

      .cls-9 {
        fill: url(#radial-gradient-19);
        stroke: url(#linear-gradient-19);
      }

      .cls-10 {
        fill: url(#radial-gradient-30);
        stroke: url(#linear-gradient-30);
      }

      .cls-11 {
        fill: url(#radial-gradient-20);
        stroke: url(#linear-gradient-20);
      }

      .cls-12 {
        fill: url(#radial-gradient-9);
        stroke: url(#linear-gradient-9);
      }

      .cls-13 {
        fill: url(#radial-gradient-64);
        stroke: url(#linear-gradient-64);
      }

      .cls-14 {
        fill: url(#radial-gradient-35);
        stroke: url(#linear-gradient-35);
      }

      .cls-82 {
        opacity: .5;
      }

      .cls-15 {
        stroke-width: 59.14px;
      }

      .cls-15, .cls-16 {
        stroke: #323031;
      }

      .cls-15, .cls-16, .cls-36 {
        fill: none;
      }

      .cls-16, .cls-31 {
        stroke-width: 4.93px;
      }

      .cls-17 {
        fill: url(#radial-gradient-54);
        stroke: url(#linear-gradient-54);
      }

      .cls-18 {
        fill: url(#radial-gradient-24);
        stroke: url(#linear-gradient-24);
      }

      .cls-19 {
        fill: url(#radial-gradient-17);
        stroke: url(#linear-gradient-17);
      }

      .cls-20 {
        fill: url(#radial-gradient-55);
        stroke: url(#linear-gradient-55);
      }

      .cls-21 {
        fill: url(#radial-gradient-60);
        stroke: url(#linear-gradient-60);
      }

      .cls-22 {
        fill: url(#radial-gradient-6);
        stroke: url(#linear-gradient-6);
      }

      .cls-23 {
        fill: url(#radial-gradient-10);
        stroke: url(#linear-gradient-10);
      }

      .cls-24 {
        fill: url(#radial-gradient-67);
        stroke: url(#linear-gradient-67);
      }

      .cls-25 {
        fill: url(#radial-gradient-29);
        stroke: url(#linear-gradient-29);
      }

      .cls-26 {
        fill: url(#radial-gradient-7);
        stroke: url(#linear-gradient-7);
      }

      .cls-27 {
        fill: url(#radial-gradient-38);
        stroke: url(#linear-gradient-38);
      }

      .cls-28 {
        fill: url(#radial-gradient-16);
        stroke: url(#linear-gradient-16);
      }

      .cls-29 {
        fill: url(#radial-gradient-46);
        stroke: url(#linear-gradient-46);
      }

      .cls-30 {
        fill: url(#radial-gradient-40);
        stroke: url(#linear-gradient-40);
      }

      .cls-79 {
        fill: url(#linear-gradient-73);
      }

      .cls-31, .cls-36 {
        stroke: #fff;
      }

      .cls-31, .cls-53, .cls-81 {
        fill: #323031;
      }

      .cls-32 {
        fill: url(#radial-gradient-42);
        stroke: url(#linear-gradient-42);
      }

      .cls-33 {
        fill: url(#radial-gradient-39);
        stroke: url(#linear-gradient-39);
      }

      .cls-34 {
        fill: url(#radial-gradient-52);
        stroke: url(#linear-gradient-52);
      }

      .cls-35 {
        fill: url(#radial-gradient-51);
        stroke: url(#linear-gradient-51);
      }

      .cls-36 {
        stroke-width: 2.46px;
      }

      .cls-37 {
        fill: url(#radial-gradient-11);
        stroke: url(#linear-gradient-11);
      }

      .cls-38 {
        fill: url(#radial-gradient-25);
        stroke: url(#linear-gradient-25);
      }

      .cls-39 {
        fill: url(#radial-gradient-28);
        stroke: url(#linear-gradient-28);
      }

      .cls-40 {
        fill: url(#radial-gradient-59);
        stroke: url(#linear-gradient-59);
      }

      .cls-41 {
        fill: url(#radial-gradient-56);
        stroke: url(#linear-gradient-56);
      }

      .cls-42 {
        fill: url(#radial-gradient-14);
        stroke: url(#linear-gradient-14);
      }

      .cls-43 {
        fill: url(#radial-gradient-37);
        stroke: url(#linear-gradient-37);
      }

      .cls-44 {
        fill: url(#radial-gradient-61);
        stroke: url(#linear-gradient-61);
      }

      .cls-45 {
        fill: url(#radial-gradient-62);
        stroke: url(#linear-gradient-62);
      }

      .cls-46 {
        fill: url(#radial-gradient-53);
        stroke: url(#linear-gradient-53);
      }

      .cls-47 {
        fill: url(#radial-gradient-12);
        stroke: url(#linear-gradient-12);
      }

      .cls-48 {
        fill: url(#radial-gradient-2);
        stroke: url(#linear-gradient-2);
      }

      .cls-49 {
        fill: url(#radial-gradient-22);
        stroke: url(#linear-gradient-22);
      }

      .cls-50 {
        fill: url(#radial-gradient);
        stroke: url(#linear-gradient);
      }

      .cls-51 {
        fill: url(#radial-gradient-50);
        stroke: url(#linear-gradient-50);
      }

      .cls-52 {
        fill: url(#radial-gradient-18);
        stroke: url(#linear-gradient-18);
      }

      .cls-83 {
        font-family: MyriadPro-Regular, 'Myriad Pro';
        font-size: 35.49px;
      }

      .cls-83, .cls-80 {
        fill: #fff;
      }

      .cls-53 {
        stroke: #000;
      }

      .cls-54 {
        fill: url(#radial-gradient-21);
        stroke: url(#linear-gradient-21);
      }

      .cls-55 {
        fill: url(#radial-gradient-13);
        stroke: url(#linear-gradient-13);
      }

      .cls-56 {
        fill: url(#radial-gradient-4);
        stroke: url(#linear-gradient-4);
      }

      .cls-57 {
        fill: url(#radial-gradient-32);
        stroke: url(#linear-gradient-32);
      }

      .cls-58 {
        fill: url(#radial-gradient-34);
        stroke: url(#linear-gradient-34);
      }

      .cls-59 {
        fill: url(#radial-gradient-23);
        stroke: url(#linear-gradient-23);
      }

      .cls-60 {
        fill: url(#radial-gradient-71);
        stroke: url(#linear-gradient-71);
      }

      .cls-61 {
        fill: url(#radial-gradient-69);
        stroke: url(#linear-gradient-69);
      }

      .cls-62 {
        fill: url(#radial-gradient-66);
        stroke: url(#linear-gradient-66);
      }

      .cls-63 {
        fill: url(#radial-gradient-26);
        stroke: url(#linear-gradient-26);
      }

      .cls-64 {
        fill: url(#radial-gradient-47);
        stroke: url(#linear-gradient-47);
      }

      .cls-65 {
        fill: url(#radial-gradient-63);
        stroke: url(#linear-gradient-63);
      }

      .cls-66 {
        fill: url(#radial-gradient-8);
        stroke: url(#linear-gradient-8);
      }

      .cls-67 {
        fill: url(#radial-gradient-57);
        stroke: url(#linear-gradient-57);
      }

      .cls-68 {
        fill: url(#radial-gradient-44);
        stroke: url(#linear-gradient-44);
      }

      .cls-69 {
        fill: url(#radial-gradient-31);
        stroke: url(#linear-gradient-31);
      }

      .cls-70 {
        fill: url(#radial-gradient-5);
        stroke: url(#linear-gradient-5);
      }

      .cls-71 {
        fill: url(#radial-gradient-68);
        stroke: url(#linear-gradient-68);
      }

      .cls-72 {
        fill: url(#radial-gradient-3);
        stroke: url(#linear-gradient-3);
      }

      .cls-73 {
        fill: url(#radial-gradient-45);
        stroke: url(#linear-gradient-45);
      }

      .cls-74 {
        fill: url(#radial-gradient-48);
        stroke: url(#linear-gradient-48);
      }

      .cls-75 {
        fill: url(#radial-gradient-58);
        stroke: url(#linear-gradient-58);
      }

      .cls-76 {
        fill: url(#radial-gradient-70);
        stroke: url(#linear-gradient-70);
      }

      .cls-77 {
        fill: url(#radial-gradient-33);
        stroke: url(#linear-gradient-33);
      }
    </style>
    <radialGradient id="radial-gradient" cx="256.35" cy="167.8" fx="256.35" fy="167.8" r="63.09" gradientUnits="userSpaceOnUse">
      <stop offset="0" stop-color="#fff"/>
      <stop offset="1" stop-color="#000"/>
    </radialGradient>
    <linearGradient id="linear-gradient" x1="252.75" y1="167.68" x2="259.96" y2="167.68" gradientUnits="userSpaceOnUse">
      <stop offset="0" stop-color="#fff"/>
      <stop offset="1" stop-color="#323031"/>
    </linearGradient>
    <radialGradient id="radial-gradient-2" cx="246.9" cy="168" fx="246.9" fy="168" r="63.26" xlink:href="#radial-gradient"/>
    <linearGradient id="linear-gradient-2" x1="237.18" y1="167.87" x2="256.6" y2="167.87" xlink:href="#linear-gradient"/>
    <radialGradient id="radial-gradient-3" cx="239.2" cy="168.87" fx="239.2" fy="168.87" r="63.46" xlink:href="#radial-gradient"/>
    <linearGradient id="linear-gradient-3" x1="221.76" y1="168.75" x2="256.6" y2="168.75" xlink:href="#linear-gradient"/>
    <radialGradient id="radial-gradient-4" cx="231.63" cy="170.41" fx="231.63" fy="170.41" r="63.65" xlink:href="#radial-gradient"/>
    <linearGradient id="linear-gradient-4" x1="206.6" y1="170.29" x2="256.59" y2="170.29" xlink:href="#linear-gradient"/>
    <radialGradient id="radial-gradient-5" cx="224.24" cy="172.61" fx="224.24" fy="172.61" r="63.82" xlink:href="#radial-gradient"/>
    <linearGradient id="linear-gradient-5" x1="191.81" y1="172.49" x2="256.59" y2="172.49" xlink:href="#linear-gradient"/>
    <radialGradient id="radial-gradient-6" cx="217.1" cy="175.45" fx="217.1" fy="175.45" r="63.97" xlink:href="#radial-gradient"/>
    <linearGradient id="linear-gradient-6" x1="177.52" y1="175.34" x2="256.58" y2="175.34" xlink:href="#linear-gradient"/>
    <radialGradient id="radial-gradient-7" cx="210.26" cy="178.91" fx="210.26" fy="178.91" r="64.1" xlink:href="#radial-gradient"/>
    <linearGradient id="linear-gradient-7" x1="163.83" y1="178.81" x2="256.57" y2="178.81" xlink:href="#linear-gradient"/>
    <radialGradient id="radial-gradient-8" cx="203.77" cy="182.97" fx="203.77" fy="182.97" r="64.19" xlink:href="#radial-gradient"/>
    <linearGradient id="linear-gradient-8" x1="150.84" y1="182.87" x2="256.56" y2="182.87" xlink:href="#linear-gradient"/>
    <radialGradient id="radial-gradient-9" cx="197.68" cy="187.59" fx="197.68" fy="187.59" r="64.25" xlink:href="#radial-gradient"/>
    <linearGradient id="linear-gradient-9" x1="138.66" y1="187.49" x2="256.55" y2="187.49" xlink:href="#linear-gradient"/>
    <radialGradient id="radial-gradient-10" cx="192.04" cy="192.73" fx="192.04" fy="192.73" r="64.27" xlink:href="#radial-gradient"/>
    <linearGradient id="linear-gradient-10" x1="127.37" y1="192.65" x2="256.53" y2="192.65" xlink:href="#linear-gradient"/>
    <radialGradient id="radial-gradient-11" cx="186.88" cy="198.37" fx="186.88" fy="198.37" r="64.26" xlink:href="#radial-gradient"/>
    <linearGradient id="linear-gradient-11" x1="117.06" y1="198.29" x2="256.52" y2="198.29" xlink:href="#linear-gradient"/>
    <radialGradient id="radial-gradient-12" cx="182.26" cy="204.45" fx="182.26" fy="204.45" r="64.22" xlink:href="#radial-gradient"/>
    <linearGradient id="linear-gradient-12" x1="107.81" y1="204.38" x2="256.5" y2="204.38" xlink:href="#linear-gradient"/>
    <radialGradient id="radial-gradient-13" cx="178.19" cy="210.93" fx="178.19" fy="210.93" r="64.14" xlink:href="#radial-gradient"/>
    <linearGradient id="linear-gradient-13" x1="99.7" y1="210.87" x2="256.48" y2="210.87" xlink:href="#linear-gradient"/>
    <radialGradient id="radial-gradient-14" cx="174.73" cy="217.76" fx="174.73" fy="217.76" r="64.03" xlink:href="#radial-gradient"/>
    <linearGradient id="linear-gradient-14" x1="92.77" y1="217.71" x2="256.46" y2="217.71" xlink:href="#linear-gradient"/>
    <radialGradient id="radial-gradient-15" cx="171.88" cy="224.9" fx="171.88" fy="224.9" r="63.89" xlink:href="#radial-gradient"/>
    <linearGradient id="linear-gradient-15" x1="87.09" y1="224.85" x2="256.44" y2="224.85" xlink:href="#linear-gradient"/>
    <radialGradient id="radial-gradient-16" cx="169.68" cy="232.27" fx="169.68" fy="232.27" r="63.73" xlink:href="#radial-gradient"/>
    <linearGradient id="linear-gradient-16" x1="82.7" y1="232.24" x2="256.42" y2="232.24" xlink:href="#linear-gradient"/>
    <radialGradient id="radial-gradient-17" cx="168.14" cy="239.83" fx="168.14" fy="239.83" r="63.55" xlink:href="#radial-gradient"/>
    <linearGradient id="linear-gradient-17" x1="79.63" y1="239.81" x2="256.4" y2="239.81" xlink:href="#linear-gradient"/>
    <radialGradient id="radial-gradient-18" cx="167.26" cy="247.52" fx="167.26" fy="247.52" r="63.35" xlink:href="#radial-gradient"/>
    <linearGradient id="linear-gradient-18" x1="77.91" y1="247.51" x2="256.38" y2="247.51" xlink:href="#linear-gradient"/>
    <radialGradient id="radial-gradient-19" cx="167.07" cy="256.96" fx="167.07" fy="256.96" r="63.18" xlink:href="#radial-gradient"/>
    <linearGradient id="linear-gradient-19" x1="77.54" y1="256.96" x2="256.36" y2="256.96" xlink:href="#linear-gradient"/>
    <radialGradient id="radial-gradient-20" cx="167.26" cy="266.4" fx="167.26" fy="266.4" r="63.35" xlink:href="#radial-gradient"/>
    <linearGradient id="linear-gradient-20" x1="77.91" y1="266.41" x2="256.38" y2="266.41" xlink:href="#linear-gradient"/>
    <radialGradient id="radial-gradient-21" cx="168.14" cy="274.09" fx="168.14" fy="274.09" r="63.55" xlink:href="#radial-gradient"/>
    <linearGradient id="linear-gradient-21" x1="79.63" y1="274.11" x2="256.4" y2="274.11" xlink:href="#linear-gradient"/>
    <radialGradient id="radial-gradient-22" cx="169.68" cy="281.65" fx="169.68" fy="281.65" r="63.73" xlink:href="#radial-gradient"/>
    <linearGradient id="linear-gradient-22" x1="82.7" y1="281.69" x2="256.42" y2="281.69" xlink:href="#linear-gradient"/>
    <radialGradient id="radial-gradient-23" cx="171.88" cy="289.03" fx="171.88" fy="289.03" r="63.89" xlink:href="#radial-gradient"/>
    <linearGradient id="linear-gradient-23" x1="87.09" y1="289.07" x2="256.44" y2="289.07" xlink:href="#linear-gradient"/>
    <radialGradient id="radial-gradient-24" cx="174.73" cy="296.16" fx="174.73" fy="296.16" r="64.03" xlink:href="#radial-gradient"/>
    <linearGradient id="linear-gradient-24" x1="92.77" y1="296.21" x2="256.46" y2="296.21" xlink:href="#linear-gradient"/>
    <radialGradient id="radial-gradient-25" cx="178.19" cy="302.99" fx="178.19" fy="302.99" r="64.14" xlink:href="#radial-gradient"/>
    <linearGradient id="linear-gradient-25" x1="99.7" y1="303.05" x2="256.48" y2="303.05" xlink:href="#linear-gradient"/>
    <radialGradient id="radial-gradient-26" cx="182.26" cy="309.47" fx="182.26" fy="309.47" r="64.22" xlink:href="#radial-gradient"/>
    <linearGradient id="linear-gradient-26" x1="107.81" y1="309.54" x2="256.5" y2="309.54" xlink:href="#linear-gradient"/>
    <radialGradient id="radial-gradient-27" cx="186.88" cy="315.55" fx="186.88" fy="315.55" r="64.26" xlink:href="#radial-gradient"/>
    <linearGradient id="linear-gradient-27" x1="117.06" y1="315.63" x2="256.52" y2="315.63" xlink:href="#linear-gradient"/>
    <radialGradient id="radial-gradient-28" cx="192.04" cy="321.19" fx="192.04" fy="321.19" r="64.27" xlink:href="#radial-gradient"/>
    <linearGradient id="linear-gradient-28" x1="127.37" y1="321.28" x2="256.53" y2="321.28" xlink:href="#linear-gradient"/>
    <radialGradient id="radial-gradient-29" cx="197.68" cy="326.34" fx="197.68" fy="326.34" r="64.25" xlink:href="#radial-gradient"/>
    <linearGradient id="linear-gradient-29" x1="138.66" y1="326.43" x2="256.55" y2="326.43" xlink:href="#linear-gradient"/>
    <radialGradient id="radial-gradient-30" cx="203.77" cy="330.96" fx="203.77" fy="330.96" r="64.19" xlink:href="#radial-gradient"/>
    <linearGradient id="linear-gradient-30" x1="150.84" y1="331.06" x2="256.56" y2="331.06" xlink:href="#linear-gradient"/>
    <radialGradient id="radial-gradient-31" cx="210.26" cy="335.01" fx="210.26" fy="335.01" r="64.1" xlink:href="#radial-gradient"/>
    <linearGradient id="linear-gradient-31" x1="163.83" y1="335.12" x2="256.57" y2="335.12" xlink:href="#linear-gradient"/>
    <radialGradient id="radial-gradient-32" cx="217.1" cy="338.47" fx="217.1" fy="338.47" r="63.97" xlink:href="#radial-gradient"/>
    <linearGradient id="linear-gradient-32" x1="177.52" y1="338.58" x2="256.58" y2="338.58" xlink:href="#linear-gradient"/>
    <radialGradient id="radial-gradient-33" cx="224.24" cy="341.32" fx="224.24" fy="341.32" r="63.82" xlink:href="#radial-gradient"/>
    <linearGradient id="linear-gradient-33" x1="191.81" y1="341.43" x2="256.59" y2="341.43" xlink:href="#linear-gradient"/>
    <radialGradient id="radial-gradient-34" cx="231.63" cy="343.52" fx="231.63" fy="343.52" r="63.65" xlink:href="#radial-gradient"/>
    <linearGradient id="linear-gradient-34" x1="206.6" y1="343.63" x2="256.59" y2="343.63" xlink:href="#linear-gradient"/>
    <radialGradient id="radial-gradient-35" cx="239.2" cy="345.06" fx="239.2" fy="345.06" r="63.46" xlink:href="#radial-gradient"/>
    <linearGradient id="linear-gradient-35" x1="221.76" y1="345.18" x2="256.6" y2="345.18" xlink:href="#linear-gradient"/>
    <radialGradient id="radial-gradient-36" cx="246.9" cy="345.93" fx="246.9" fy="345.93" r="63.26" xlink:href="#radial-gradient"/>
    <linearGradient id="linear-gradient-36" x1="237.18" y1="346.05" x2="256.6" y2="346.05" xlink:href="#linear-gradient"/>
    <radialGradient id="radial-gradient-37" cx="256.35" cy="346.12" fx="256.35" fy="346.12" r="63.09" xlink:href="#radial-gradient"/>
    <linearGradient id="linear-gradient-37" x1="252.75" y1="346.24" x2="259.96" y2="346.24" xlink:href="#linear-gradient"/>
    <radialGradient id="radial-gradient-38" cx="265.81" cy="345.93" fx="265.81" fy="345.93" r="63.26" xlink:href="#radial-gradient"/>
    <linearGradient id="linear-gradient-38" x1="256.11" y1="346.05" x2="275.53" y2="346.05" xlink:href="#linear-gradient"/>
    <radialGradient id="radial-gradient-39" cx="273.51" cy="345.06" fx="273.51" fy="345.06" r="63.46" xlink:href="#radial-gradient"/>
    <linearGradient id="linear-gradient-39" x1="256.11" y1="345.18" x2="290.95" y2="345.18" xlink:href="#linear-gradient"/>
    <radialGradient id="radial-gradient-40" cx="281.08" cy="343.52" fx="281.08" fy="343.52" r="63.65" xlink:href="#radial-gradient"/>
    <linearGradient id="linear-gradient-40" x1="256.12" y1="343.63" x2="306.11" y2="343.63" xlink:href="#linear-gradient"/>
    <radialGradient id="radial-gradient-41" cx="288.47" cy="341.32" fx="288.47" fy="341.32" r="63.82" xlink:href="#radial-gradient"/>
    <linearGradient id="linear-gradient-41" x1="256.12" y1="341.43" x2="320.9" y2="341.43" xlink:href="#linear-gradient"/>
    <radialGradient id="radial-gradient-42" cx="295.61" cy="338.47" fx="295.61" fy="338.47" r="63.97" xlink:href="#radial-gradient"/>
    <linearGradient id="linear-gradient-42" x1="256.13" y1="338.58" x2="335.19" y2="338.58" xlink:href="#linear-gradient"/>
    <radialGradient id="radial-gradient-43" cx="302.45" cy="335.01" fx="302.45" fy="335.01" r="64.1" xlink:href="#radial-gradient"/>
    <linearGradient id="linear-gradient-43" x1="256.14" y1="335.12" x2="348.88" y2="335.12" xlink:href="#linear-gradient"/>
    <radialGradient id="radial-gradient-44" cx="308.94" cy="330.96" fx="308.94" fy="330.96" r="64.19" xlink:href="#radial-gradient"/>
    <linearGradient id="linear-gradient-44" x1="256.15" y1="331.06" x2="361.87" y2="331.06" xlink:href="#linear-gradient"/>
    <radialGradient id="radial-gradient-45" cx="315.03" cy="326.34" fx="315.03" fy="326.34" r="64.25" xlink:href="#radial-gradient"/>
    <linearGradient id="linear-gradient-45" x1="256.16" y1="326.43" x2="374.05" y2="326.43" xlink:href="#linear-gradient"/>
    <radialGradient id="radial-gradient-46" cx="320.67" cy="321.19" fx="320.67" fy="321.19" r="64.27" xlink:href="#radial-gradient"/>
    <linearGradient id="linear-gradient-46" x1="256.18" y1="321.28" x2="385.34" y2="321.28" xlink:href="#linear-gradient"/>
    <radialGradient id="radial-gradient-47" cx="325.83" cy="315.55" fx="325.83" fy="315.55" r="64.26" xlink:href="#radial-gradient"/>
    <linearGradient id="linear-gradient-47" x1="256.19" y1="315.63" x2="395.65" y2="315.63" xlink:href="#linear-gradient"/>
    <radialGradient id="radial-gradient-48" cx="330.45" cy="309.47" fx="330.45" fy="309.47" r="64.22" xlink:href="#radial-gradient"/>
    <linearGradient id="linear-gradient-48" x1="256.21" y1="309.54" x2="404.9" y2="309.54" xlink:href="#linear-gradient"/>
    <radialGradient id="radial-gradient-49" cx="334.52" cy="302.99" fx="334.52" fy="302.99" r="64.14" xlink:href="#radial-gradient"/>
    <linearGradient id="linear-gradient-49" x1="256.23" y1="303.05" x2="413.01" y2="303.05" xlink:href="#linear-gradient"/>
    <radialGradient id="radial-gradient-50" cx="337.98" cy="296.16" fx="337.98" fy="296.16" r="64.03" xlink:href="#radial-gradient"/>
    <linearGradient id="linear-gradient-50" x1="256.25" y1="296.21" x2="419.94" y2="296.21" xlink:href="#linear-gradient"/>
    <radialGradient id="radial-gradient-51" cx="340.83" cy="289.03" fx="340.83" fy="289.03" r="63.89" xlink:href="#radial-gradient"/>
    <linearGradient id="linear-gradient-51" x1="256.27" y1="289.07" x2="425.62" y2="289.07" xlink:href="#linear-gradient"/>
    <radialGradient id="radial-gradient-52" cx="343.03" cy="281.65" fx="343.03" fy="281.65" r="63.73" xlink:href="#radial-gradient"/>
    <linearGradient id="linear-gradient-52" x1="256.29" y1="281.69" x2="430.01" y2="281.69" xlink:href="#linear-gradient"/>
    <radialGradient id="radial-gradient-53" cx="344.57" cy="274.09" fx="344.57" fy="274.09" r="63.55" xlink:href="#radial-gradient"/>
    <linearGradient id="linear-gradient-53" x1="256.31" y1="274.11" x2="433.08" y2="274.11" xlink:href="#linear-gradient"/>
    <radialGradient id="radial-gradient-54" cx="345.45" cy="266.4" fx="345.45" fy="266.4" r="63.35" xlink:href="#radial-gradient"/>
    <linearGradient id="linear-gradient-54" x1="256.33" y1="266.41" x2="434.8" y2="266.41" xlink:href="#linear-gradient"/>
    <radialGradient id="radial-gradient-55" cx="345.64" cy="256.96" fx="345.64" fy="256.96" r="63.18" xlink:href="#radial-gradient"/>
    <linearGradient id="linear-gradient-55" x1="256.35" y1="256.96" x2="435.17" y2="256.96" xlink:href="#linear-gradient"/>
    <radialGradient id="radial-gradient-56" cx="345.45" cy="247.52" fx="345.45" fy="247.52" r="63.35" xlink:href="#radial-gradient"/>
    <linearGradient id="linear-gradient-56" x1="256.33" y1="247.51" x2="434.8" y2="247.51" xlink:href="#linear-gradient"/>
    <radialGradient id="radial-gradient-57" cx="344.57" cy="239.83" fx="344.57" fy="239.83" r="63.55" xlink:href="#radial-gradient"/>
    <linearGradient id="linear-gradient-57" x1="256.31" y1="239.81" x2="433.08" y2="239.81" xlink:href="#linear-gradient"/>
    <radialGradient id="radial-gradient-58" cx="343.03" cy="232.27" fx="343.03" fy="232.27" r="63.73" xlink:href="#radial-gradient"/>
    <linearGradient id="linear-gradient-58" x1="256.29" y1="232.24" x2="430.01" y2="232.24" xlink:href="#linear-gradient"/>
    <radialGradient id="radial-gradient-59" cx="340.83" cy="224.9" fx="340.83" fy="224.9" r="63.89" xlink:href="#radial-gradient"/>
    <linearGradient id="linear-gradient-59" x1="256.27" y1="224.85" x2="425.62" y2="224.85" xlink:href="#linear-gradient"/>
    <radialGradient id="radial-gradient-60" cx="337.98" cy="217.76" fx="337.98" fy="217.76" r="64.03" xlink:href="#radial-gradient"/>
    <linearGradient id="linear-gradient-60" x1="256.25" y1="217.71" x2="419.94" y2="217.71" xlink:href="#linear-gradient"/>
    <radialGradient id="radial-gradient-61" cx="334.52" cy="210.93" fx="334.52" fy="210.93" r="64.14" xlink:href="#radial-gradient"/>
    <linearGradient id="linear-gradient-61" x1="256.23" y1="210.87" x2="413.01" y2="210.87" xlink:href="#linear-gradient"/>
    <radialGradient id="radial-gradient-62" cx="330.45" cy="204.45" fx="330.45" fy="204.45" r="64.22" xlink:href="#radial-gradient"/>
    <linearGradient id="linear-gradient-62" x1="256.21" y1="204.38" x2="404.9" y2="204.38" xlink:href="#linear-gradient"/>
    <radialGradient id="radial-gradient-63" cx="325.83" cy="198.37" fx="325.83" fy="198.37" r="64.26" xlink:href="#radial-gradient"/>
    <linearGradient id="linear-gradient-63" x1="256.19" y1="198.29" x2="395.65" y2="198.29" xlink:href="#linear-gradient"/>
    <radialGradient id="radial-gradient-64" cx="320.67" cy="192.73" fx="320.67" fy="192.73" r="64.27" xlink:href="#radial-gradient"/>
    <linearGradient id="linear-gradient-64" x1="256.18" y1="192.65" x2="385.34" y2="192.65" xlink:href="#linear-gradient"/>
    <radialGradient id="radial-gradient-65" cx="315.03" cy="187.59" fx="315.03" fy="187.59" r="64.25" xlink:href="#radial-gradient"/>
    <linearGradient id="linear-gradient-65" x1="256.16" y1="187.49" x2="374.05" y2="187.49" xlink:href="#linear-gradient"/>
    <radialGradient id="radial-gradient-66" cx="308.94" cy="182.97" fx="308.94" fy="182.97" r="64.19" xlink:href="#radial-gradient"/>
    <linearGradient id="linear-gradient-66" x1="256.15" y1="182.87" x2="361.87" y2="182.87" xlink:href="#linear-gradient"/>
    <radialGradient id="radial-gradient-67" cx="302.45" cy="178.91" fx="302.45" fy="178.91" r="64.1" xlink:href="#radial-gradient"/>
    <linearGradient id="linear-gradient-67" x1="256.14" y1="178.81" x2="348.88" y2="178.81" xlink:href="#linear-gradient"/>
    <radialGradient id="radial-gradient-68" cx="295.61" cy="175.45" fx="295.61" fy="175.45" r="63.97" xlink:href="#radial-gradient"/>
    <linearGradient id="linear-gradient-68" x1="256.13" y1="175.34" x2="335.19" y2="175.34" xlink:href="#linear-gradient"/>
    <radialGradient id="radial-gradient-69" cx="288.47" cy="172.61" fx="288.47" fy="172.61" r="63.82" xlink:href="#radial-gradient"/>
    <linearGradient id="linear-gradient-69" x1="256.12" y1="172.49" x2="320.9" y2="172.49" xlink:href="#linear-gradient"/>
    <radialGradient id="radial-gradient-70" cx="281.08" cy="170.41" fx="281.08" fy="170.41" r="63.65" xlink:href="#radial-gradient"/>
    <linearGradient id="linear-gradient-70" x1="256.12" y1="170.29" x2="306.11" y2="170.29" xlink:href="#linear-gradient"/>
    <radialGradient id="radial-gradient-71" cx="273.51" cy="168.87" fx="273.51" fy="168.87" r="63.46" xlink:href="#radial-gradient"/>
    <linearGradient id="linear-gradient-71" x1="256.11" y1="168.75" x2="290.95" y2="168.75" xlink:href="#linear-gradient"/>
    <radialGradient id="radial-gradient-72" cx="265.81" cy="168" fx="265.81" fy="168" r="63.26" xlink:href="#radial-gradient"/>
    <linearGradient id="linear-gradient-72" x1="256.11" y1="167.87" x2="275.53" y2="167.87" xlink:href="#linear-gradient"/>
    <linearGradient id="linear-gradient-73" x1="254.83" y1="434.89" x2="254.83" y2="215.41" gradientUnits="userSpaceOnUse">
      <stop offset="0" stop-color="#fff"/>
      <stop offset="1" stop-color="#000"/>
    </linearGradient>
  </defs>
  <circle id="Pozadie" class="cls-80" cx="256" cy="256.96" r="252.35"/>
  <g id="Pruhy" class="cls-82">
    <polygon class="cls-50" points="256.35 256.96 256.35 256.96 259.71 78.64 253 78.64 256.35 256.96"/>
    <polygon class="cls-48" points="256.35 256.96 256.35 256.96 244.13 79.03 237.45 79.61 256.35 256.96"/>
    <polygon class="cls-72" points="256.35 256.96 256.35 256.96 228.65 80.77 222.05 81.93 256.35 256.96"/>
    <polygon class="cls-56" points="256.35 256.96 256.35 256.96 213.37 83.85 206.9 85.58 256.35 256.96"/>
    <polygon class="cls-70" points="256.35 256.96 256.35 256.96 198.43 88.25 192.13 90.54 256.35 256.96"/>
    <polygon class="cls-22" points="256.35 256.96 256.35 256.96 183.92 93.94 177.85 96.76 256.35 256.96"/>
    <polygon class="cls-26" points="256.35 256.96 256.35 256.96 169.97 100.86 164.17 104.21 256.35 256.96"/>
    <polygon class="cls-66" points="256.35 256.96 256.35 256.96 156.68 108.97 151.19 112.81 256.35 256.96"/>
    <polygon class="cls-12" points="256.35 256.96 256.35 256.96 144.14 118.21 139.01 122.51 256.35 256.96"/>
    <polygon class="cls-23" points="256.35 256.96 256.35 256.96 132.46 128.51 127.72 133.24 256.35 256.96"/>
    <polygon class="cls-37" points="256.35 256.96 256.35 256.96 121.72 139.78 117.41 144.9 256.35 256.96"/>
    <polygon class="cls-47" points="256.35 256.96 256.35 256.96 112 151.94 108.16 157.42 256.35 256.96"/>
    <polygon class="cls-55" points="256.35 256.96 256.35 256.96 103.38 164.9 100.03 170.7 256.35 256.96"/>
    <polygon class="cls-42" points="256.35 256.96 256.35 256.96 95.93 178.57 93.1 184.63 256.35 256.96"/>
    <polygon class="cls-5" points="256.35 256.96 256.35 256.96 89.7 192.83 87.41 199.12 256.35 256.96"/>
    <polygon class="cls-28" points="256.35 256.96 256.35 256.96 84.74 207.58 83 214.04 256.35 256.96"/>
    <polygon class="cls-19" points="256.35 256.96 256.35 256.96 81.08 222.7 79.92 229.29 256.35 256.96"/>
    <polygon class="cls-52" points="256.35 256.96 256.35 256.96 78.76 238.09 78.17 244.75 256.35 256.96"/>
    <polygon class="cls-9" points="256.35 256.96 256.35 256.96 77.79 253.62 77.79 260.31 256.35 256.96"/>
    <polygon class="cls-11" points="256.35 256.96 256.35 256.96 78.17 269.17 78.76 275.84 256.35 256.96"/>
    <polygon class="cls-54" points="256.35 256.96 256.35 256.96 79.92 284.63 81.08 291.22 256.35 256.96"/>
    <polygon class="cls-49" points="256.35 256.96 256.35 256.96 83 299.88 84.74 306.35 256.35 256.96"/>
    <polygon class="cls-59" points="256.35 256.96 256.35 256.96 87.41 314.81 89.7 321.09 256.35 256.96"/>
    <polygon class="cls-18" points="256.35 256.96 256.35 256.96 93.1 329.29 95.93 335.35 256.35 256.96"/>
    <polygon class="cls-38" points="256.35 256.96 256.35 256.96 100.03 343.22 103.38 349.02 256.35 256.96"/>
    <polygon class="cls-63" points="256.35 256.96 256.35 256.96 108.16 356.5 112 361.98 256.35 256.96"/>
    <polygon class="cls-2" points="256.35 256.96 256.35 256.96 117.41 369.02 121.72 374.15 256.35 256.96"/>
    <polygon class="cls-39" points="256.35 256.96 256.35 256.96 127.72 380.69 132.46 385.42 256.35 256.96"/>
    <polygon class="cls-25" points="256.35 256.96 256.35 256.96 139.01 391.41 144.14 395.71 256.35 256.96"/>
    <polygon class="cls-10" points="256.35 256.96 256.35 256.96 151.19 401.11 156.68 404.95 256.35 256.96"/>
    <polygon class="cls-69" points="256.35 256.96 256.35 256.96 164.17 409.72 169.97 413.06 256.35 256.96"/>
    <polygon class="cls-57" points="256.35 256.96 256.35 256.96 177.85 417.16 183.92 419.99 256.35 256.96"/>
    <polygon class="cls-77" points="256.35 256.96 256.35 256.96 192.13 423.38 198.43 425.67 256.35 256.96"/>
    <polygon class="cls-58" points="256.35 256.96 256.35 256.96 206.9 428.34 213.37 430.07 256.35 256.96"/>
    <polygon class="cls-14" points="256.35 256.96 256.35 256.96 222.05 431.99 228.65 433.15 256.35 256.96"/>
    <polygon class="cls-8" points="256.35 256.96 256.35 256.96 237.45 434.31 244.13 434.89 256.35 256.96"/>
    <polygon class="cls-43" points="256.35 256.96 256.35 256.96 253 435.28 259.71 435.28 256.35 256.96"/>
    <polygon class="cls-27" points="256.35 256.96 256.35 256.96 268.58 434.89 275.26 434.31 256.35 256.96"/>
    <polygon class="cls-33" points="256.35 256.96 256.35 256.96 284.06 433.15 290.66 431.99 256.35 256.96"/>
    <polygon class="cls-30" points="256.35 256.96 256.35 256.96 299.34 430.07 305.81 428.34 256.35 256.96"/>
    <polygon class="cls-6" points="256.35 256.96 256.35 256.96 314.28 425.67 320.58 423.38 256.35 256.96"/>
    <polygon class="cls-32" points="256.35 256.96 256.35 256.96 328.78 419.99 334.86 417.16 256.35 256.96"/>
    <polygon class="cls-3" points="256.35 256.96 256.35 256.96 342.74 413.06 348.54 409.72 256.35 256.96"/>
    <polygon class="cls-68" points="256.35 256.96 256.35 256.96 356.03 404.95 361.52 401.11 256.35 256.96"/>
    <polygon class="cls-73" points="256.35 256.96 256.35 256.96 368.57 395.71 373.7 391.41 256.35 256.96"/>
    <polygon class="cls-29" points="256.35 256.96 256.35 256.96 380.25 385.42 384.99 380.69 256.35 256.96"/>
    <polygon class="cls-64" points="256.35 256.96 256.35 256.96 390.99 374.15 395.3 369.02 256.35 256.96"/>
    <polygon class="cls-74" points="256.35 256.96 256.35 256.96 400.71 361.98 404.55 356.5 256.35 256.96"/>
    <polygon class="cls-7" points="256.35 256.96 256.35 256.96 409.33 349.02 412.68 343.22 256.35 256.96"/>
    <polygon class="cls-51" points="256.35 256.96 256.35 256.96 416.78 335.35 419.61 329.29 256.35 256.96"/>
    <polygon class="cls-35" points="256.35 256.96 256.35 256.96 423.01 321.09 425.3 314.81 256.35 256.96"/>
    <polygon class="cls-34" points="256.35 256.96 256.35 256.96 427.97 306.35 429.71 299.88 256.35 256.96"/>
    <polygon class="cls-46" points="256.35 256.96 256.35 256.96 431.63 291.22 432.79 284.63 256.35 256.96"/>
    <polygon class="cls-17" points="256.35 256.96 256.35 256.96 433.95 275.84 434.54 269.17 256.35 256.96"/>
    <polygon class="cls-20" points="256.35 256.96 256.35 256.96 434.92 260.31 434.92 253.62 256.35 256.96"/>
    <polygon class="cls-41" points="256.35 256.96 256.35 256.96 434.54 244.75 433.95 238.09 256.35 256.96"/>
    <polygon class="cls-67" points="256.35 256.96 256.35 256.96 432.79 229.29 431.63 222.7 256.35 256.96"/>
    <polygon class="cls-75" points="256.35 256.96 256.35 256.96 429.71 214.04 427.97 207.58 256.35 256.96"/>
    <polygon class="cls-40" points="256.35 256.96 256.35 256.96 425.3 199.12 423.01 192.83 256.35 256.96"/>
    <polygon class="cls-21" points="256.35 256.96 256.35 256.96 419.61 184.63 416.78 178.57 256.35 256.96"/>
    <polygon class="cls-44" points="256.35 256.96 256.35 256.96 412.68 170.7 409.33 164.9 256.35 256.96"/>
    <polygon class="cls-45" points="256.35 256.96 256.35 256.96 404.55 157.42 400.71 151.94 256.35 256.96"/>
    <polygon class="cls-65" points="256.35 256.96 256.35 256.96 395.3 144.9 390.99 139.78 256.35 256.96"/>
    <polygon class="cls-13" points="256.35 256.96 256.35 256.96 384.99 133.24 380.25 128.51 256.35 256.96"/>
    <polygon class="cls-1" points="256.35 256.96 256.35 256.96 373.7 122.51 368.57 118.21 256.35 256.96"/>
    <polygon class="cls-62" points="256.35 256.96 256.35 256.96 361.52 112.81 356.03 108.97 256.35 256.96"/>
    <polygon class="cls-24" points="256.35 256.96 256.35 256.96 348.54 104.21 342.74 100.86 256.35 256.96"/>
    <polygon class="cls-71" points="256.35 256.96 256.35 256.96 334.86 96.76 328.78 93.94 256.35 256.96"/>
    <polygon class="cls-61" points="256.35 256.96 256.35 256.96 320.58 90.54 314.28 88.25 256.35 256.96"/>
    <polygon class="cls-76" points="256.35 256.96 256.35 256.96 305.81 85.58 299.34 83.85 256.35 256.96"/>
    <polygon class="cls-60" points="256.35 256.96 256.35 256.96 290.66 81.93 284.06 80.77 256.35 256.96"/>
    <polygon class="cls-4" points="256.35 256.96 256.35 256.96 275.26 79.61 268.58 79.03 256.35 256.96"/>
  </g>
  <g id="Tatry">
    <polygon class="cls-79" points="79.96 280.52 81.08 291.22 83 299.88 89.7 321.09 100.03 343.22 114.19 365.09 130.76 383.72 151.19 401.11 174.73 415.72 203.77 427.51 244.13 434.89 268.58 434.89 299.34 430.07 325.43 421.26 342.74 413.06 373.7 391.41 395.3 368.29 412.68 343.22 423.01 321.09 429.71 299.88 424.06 294.97 411.06 284.35 403.16 275.84 391.33 264.62 382.04 262.3 373.7 265 358.12 258.87 331.24 232.27 326.8 228.41 317.9 229.69 310.78 232.27 293.54 242.65 282.42 250.51 278.08 252.71 270.22 250.82 263.91 253.62 232.98 236.61 206.9 215.41 199.59 217.76 186.88 220.75 180.33 224.9 156.65 244.19 141.1 254.8 135.31 259.23 123.92 262.07 109.08 259.72 103.49 256.96 92.12 266.4 79.96 280.52"/>
    <path class="cls-81" d="M208.09,211.06c6.48,3.53,10.65,10.22,15.78,15.58,3.13,3.27,6.93,3.69,10.74,4.07,2.28.23,3.94,1,5.43,3.13,1.8,2.57,3.51,5.77,7.18,4.77.21-.06.53.03.68.2,2.27,2.47,4.49,4.99,6.77,7.45.82.88,1.66,1.98,2.67,2.36,3.52,1.33,6.69,3.25,10.94,1.09,3.26-1.66,7.67-2.35,11.33,1.09,6.36-7.07,14.65-10,22.42-14.19,7.45-4.02,14.5-9.1,21.59-13.99,3.76-2.6,5.55-1.91,7.49,2.8.92,2.24,2.66,4.45,4.51,5.67,4.15,2.72,7.66,5.97,10.41,10.56,1.21,2.01,3.27,3.34,4.98,4.93,2.1,1.95,4.23,3.86,6.36,5.77,1.62,1.45,3.19,3,4.91,4.27,4.65,3.45,9.66,5.67,15.09,2.92,5.83-2.96,10.83-.33,15.77,2.55,1.68.98,2.84,3.09,4.35,4.51,1.94,1.83,3.94,3.58,6.03,5.17,1.43,1.09,3.05,1.84,4.57,2.75,1.87,1.12,3.01,2.8,4.03,5.04,1.23,2.67,3.21,4.98,5.15,7.08,3.29,3.55,6.88,6.72,10.18,10.26,1.02,1.09,1.5,2.86,2.23,4.32-.24.2-.48.41-.72.61-2.43-2.31-4.75-4.8-7.33-6.87-3.01-2.41-6.3-4.32-9.34-6.68-1.31-1.02-2.57-2.43-3.35-4-1.82-3.63-4.29-5.25-7.9-4.79-2.52.32-5.06.38-7.59.54-.49.03-1.03.18-1.46,0-1.24-.54-3.13-7.97-2.46-9.4,1.84-3.9,1.78-4.34-2.01-5.04-1.84-.34-3.95-.13-5.7.6-4.58,1.92-8.91,2.7-13.45-.34-2.35-1.58-4.91-1.53-7.11,1.19-1.19,1.47-2.86,2.51-4.44,3.44-2.54,1.48-5.02,1.48-7.22-1.04-1.13-1.3-2.33-1.46-3.68-.17-.86.83-1.96,1.33-2.88,1.92.24,3.08.44,6.08.75,9.06.06.6.4,1.28.79,1.7,2.1,2.3,2.69,5.22,3.1,8.43.26,2.04,1.37,3.95,2.22,5.85.9,2.02,1.95,3.95,2.94,5.92-.26.24-.52.47-.78.71-.88-.84-1.65-1.93-2.65-2.49-8.01-4.54-13.51-12.36-19.44-19.67-2.66-3.28-4.97-6.44-5.82-11.2-.56-3.09-2.78-5.89-4.57-8.54-2.85-4.21-3.46-9.34-4.67-14.21-.18-.74.61-1.89,1.09-2.75,1.46-2.62,3-5.19,4.59-7.94,1.78,1.86,3.67,3.83,5.56,5.8.25-.14.51-.28.76-.41-.36-3.2-.72-6.39-1.1-9.8-4.68-.19-8.94-2.01-13.64,1.5-7.12,5.32-14.98,9.29-22.44,14.03-2.79,1.77-5.31,4.11-7.97,6.15-1.89,1.45-3.72,1.86-5.97.55-1.36-.79-3.37-1.16-4.72-.57-1.28.56-2.09,2.6-3.25,4.19-.69-.33-1.57-.74-2.59-1.22-1.03,2.12.33,3.05,1.33,4.43,5.4,7.4,13.24,9.77,20.37,13.62.36.19.72.36,1.42.71-2.12,3.04-1.47,5.79.37,8.5.4.59.24,1.71.33,2.59-.21.13-.42.26-.63.39-1.42-1.85-2.72-3.87-4.3-5.5-1.36-1.4-2.99-2.48-4.6-3.48-2.64-1.65-5.46-2.93-8.03-4.72-1.81-1.26-3.52-2.4-5.7-1.98-2.06.4-3.61-.59-5-2.27-1.87-2.26-3.84-4.41-5.79-6.59-.56-.63-1.18-1.19-1.78-1.78-.19.14-.39.29-.58.43.48,1.34.8,2.79,1.46,3.99,2.09,3.85,4.08,7.82,6.54,11.33,1.98,2.82,4.56,5.1,6.95,7.52,1.7,1.72,3.8,3.02,4.11,6.89-2.03-1.01-3.75-1.68-5.32-2.67-3.95-2.49-7.93-4.94-11.7-7.75-2.68-2-5.2-4.14-5.12-8.81.06-3.67-1.38-7.18-4.97-8.23-3.3-.97-3.98-4.81-6.11-7.06-1.3-1.37-2.34-3.23-3.09-5.1-.91-2.25-2.1-2.37-3.92-1.81-5.3,1.62-4.32,1.82-5.6-4.04-.47-2.16-.96-4.32-1.44-6.48-.24-.04-.47-.09-.71-.13-1.75,3.17-3.6,6.27-5.2,9.53-.84,1.72-1.67,2.12-3.1,1.12-.91-.64-1.87-1.17-2.8-1.77-3.19-2.03-6.4-3.88-10.26-1.82-.14-.31-.28-.61-.41-.92,1.21-1.65,2.38-3.34,3.65-4.92.43-.53,1.15-.72,1.7-1.12,4.11-3,4.28-4.65.44-8.16-2.19-2-2.96-4.24-2.57-7.41.43-3.46-.79-4.37-3.72-3.69-3.52.81-7.13,1.08-10.62,2.02-2.49.67-5.31,1.4-7.18,3.21-11.75,11.42-25.04,20.06-38.05,29.23-3.63,2.56-7.27,5.15-11.08,7.3-2.3,1.3-4.94,1.79-7.62,2.71,5.3,5.28,13.36,5.08,19.01,11.04-2.01.15-3.84.3-5.68.41-2.3.14-4.33.72-5.68,3.25-.27.51-1.71.83-2.18.47-7.25-5.45-15.82-8.03-22.49-14.91-5.66-5.85-5.97-5.34-11.82.11-6,5.59-12.06,11.09-18.14,16.57-.7.63-1.64.88-2.47,1.31-.13-.24-.27-.48-.4-.72,1.33-1.47,2.67-2.92,3.99-4.4,7.4-8.33,14.77-16.7,22.21-24.98,2.3-2.56,2.82-2.33,5.44-.12,1.89,1.59,4,2.83,6.04,4.16,1.71,1.12,3.6,1.94,5.14,3.3,1.8,1.57,3.41,1.98,5.35.56.46-.33,1.12-.54,1.64-.46,4.5.66,8.02-1.98,11.6-4.51,9.43-6.64,18.98-13.07,28.3-19.92,4.69-3.44,9.08-7.46,13.4-11.51,2.45-2.29,4.95-3.94,8.11-4.22,1.63-.15,3.24-.66,4.86-.76,4.23-.26,8.03-1.57,11.05-5.26.65-.8,1.57-1.3,2.37-1.94.49,0,.98,0,1.47,0Z"/>
  </g>
  <g id="Body">
    <g id="Body-2" data-name="Body">
      <path class="cls-31" d="M188.32,408.25c-.58-8.1-1.69-16.2-2.11-24.29,16.16-8.37,31.16-18.29,46.32-27.94-.42.19-.86.36-1.26.58-3.51,1.97-7.04,3.9-10.51,5.93-7.96,4.67-15.86,9.44-23.85,14.06-4.63,2.67-9.45,5.01-14.63,6.46-1.17.33-2.4.55-3.61.66-2.17.19-4.35.14-6.51.38-3.05.34-6.09.78-9.11,1.32-2.97.54-5.9,1.29-8.86,1.89-3.33.68-6.31,0-8.7-2.55-.97-1.03-1.9-2.1-2.82-3.18-2-2.36-3.64-4.9-4.85-7.78-1.62-3.9-1.94-7.86-1.21-11.95.66-3.72,1.46-7.42,2.02-11.15.76-5.14,1.47-10.3,1.96-15.47.38-4.05.38-8.13.59-12.19.17-3.19.91-6.25,2.27-9.15,1.53-3.25,3.05-6.51,4.44-9.81.84-1.98.97-4.1.8-6.27-.21-2.78-.41-5.58-.25-8.36.21-3.63.78-7.23,1.2-10.85.6-5.24,2.95-9.64,6.64-13.32,4.42-4.4,9.8-7.21,15.66-9.13,5.06-1.66,10.28-2.58,15.61-2.64,4.08-.04,8.14.15,12.05,1.54.26.09.55.08,1.13.15-.48-.39-.69-.57-.91-.74-.23-.17-.46-.34-.7-.48-4.53-2.49-9.38-3.42-14.51-3.01-.68.05-1.36.11-2.29.19.27-.46.35-.68.5-.83,1.16-1.18,2.24-2.46,3.51-3.51,3.69-3.06,7.81-5.49,12.02-7.76,4.53-2.45,9.13-4.78,13.67-7.21,3.38-1.81,6.71-3.69,9.44-6.47.59-.61,1.27-1.14,1.94-1.66.96-.75,1.91-1.53,3.28-1.91.09,1.05.22,2.02.26,3,.17,3.97.32,7.95.47,11.92,0,.24,0,.48.05.71.04.23.11.45.17.67.57-3.74.88-7.47.61-11.21-.24-3.39-.54-6.79-.94-10.17-.31-2.63-.78-5.23-1.22-7.84-.45-2.7-.91-5.4-1.41-8.09-.36-1.94-.79-3.87-1.19-5.81-.25,0-.45-.04-.62,0-1.22.33-2-.23-2.57-1.23-.54-.95-1.05-1.91-1.58-2.85-.54-.96-.88-1.96-1-3.07-.3-2.91-.7-5.82-.99-8.73-.13-1.28-.02-2.55.5-3.76.71-1.68,1.69-2.01,3.26-1.12.32.18.61.39,1.02.66,0-.44.04-.76,0-1.07-.16-1.12-.41-2.23-.53-3.36-.41-4.03-.21-8.04.8-11.97,1.17-4.6,3.18-8.79,6.35-12.38,4.46-5.05,9.99-8.28,16.5-9.95,5.88-1.51,11.75-1.67,17.69-.4,6.91,1.47,12.84,4.62,17.68,9.82,2.75,2.96,4.74,6.36,6.03,10.16,1.84,5.44,2.24,10.99,1.29,16.65-.13.78-.19,1.58-.3,2.47.33-.18.6-.28.82-.45,1.72-1.38,3.27-.54,3.77,1.5.43,1.74.27,3.47.07,5.22-.24,2.06-.45,4.13-.71,6.19-.09.75-.17,1.53-.47,2.21-.56,1.3-1.27,2.53-1.92,3.79-.67,1.29-1.57,2.14-3.17,1.65-.07-.02-.17.07-.3.12-.41,2.58-.83,5.17-1.22,7.78-.63,4.16-1.2,8.33-1.88,12.48-1.16,7.19-1.34,14.41-.7,21.65.06.64.2,1.28.3,1.92.21-.36.23-.69.25-1.02.19-4.49.38-8.99.59-13.48.03-.67.17-1.34.29-2.26,1.05.73,1.9,1.25,2.66,1.86,1.96,1.57,3.87,3.18,5.82,4.77,3.95,3.21,8.38,5.65,12.81,8.1,3.52,1.94,7.05,3.87,10.51,5.92,3.23,1.91,6.19,4.19,8.6,7.12.25.31.45.66.85,1.24-3.97-.79-7.64-.71-11.28.06-3.61.77-7.02,2.07-10.11,4.16.44.05.85.01,1.25-.06,4.28-.8,8.59-1.43,12.94-1.71,6.56-.42,13.03-.03,19.37,1.94,7.35,2.28,13.15,6.63,17.44,12.91,4.72,6.9,6.92,14.64,6.99,22.99,0,1.04-.06,2.09.03,3.12.17,1.83.35,3.67.71,5.47.56,2.78,1.99,5.21,3.51,7.55,2.05,3.15,3.28,6.57,3.89,10.26.55,3.34.45,6.71.33,10.06-.14,4,.23,7.95.97,11.86.77,4.04,1.82,8.02,2.69,12.04.65,3,1.41,5.99,1.77,9.03.32,2.71.15,5.48.24,8.22.06,1.69-.42,3.22-1.47,4.49-1.3,1.56-2.63,3.11-4.14,4.46-3.44,3.07-7.29,5.56-11.31,7.8-3.56,1.98-7.17,3.83-11.13,4.9-8.75,2.38-17.5,4.78-26.25,7.16-3.6.98-7.2,1.96-10.66,3.37-1.47.6-2.63,1.52-3.23,3-.51,1.27-.96,2.57-1.39,3.86-.52,1.54-1.22,2.92-2.38,4.12-3.2,3.31-7.05,5.71-10.95,8.03-1.43.85-3.09,1.15-4.75,1.29-1.09.1-1.75-.47-2.26-1.38-.48-.88-.58-1.63.13-2.47.73-.87,1.32-1.85,1.96-2.78.65-.95,1.3-1.9,1.95-2.85-.52.16-.88.45-1.2.78-1.63,1.71-3.26,3.43-4.87,5.16-1.4,1.5-3.22,1.85-5.02.88-.62-.34-1.23-.72-1.79-1.15-1.96-1.51-2.16-2.61-.9-4.74.1-.16.21-.32.32-.47.75-.98,1.5-1.95,2.25-2.93.71-.92,1.41-1.85,2.11-2.77-.31-.01-.5.1-.63.25-1.53,1.68-3.09,3.33-4.56,5.06-.6.7-1.19,1.01-2.09.76-.83-.23-1.67-.41-2.51-.61-.02.06-.04.12-.07.19,1.1.52,2.2,1.04,3.4,1.61-.1.59-.19,1.17-.29,1.8-1.02.04-1.93.09-2.7-.47-.95-.69-1.9-1.41-2.77-2.2-.35-.32-.67-.87-.69-1.33-.13-3.17.11-6.26,2.47-8.73.03-.03.06-.07.09-.11,1.21-1.64,2.42-3.27,3.62-4.92.17-.23.26-.52.38-.78-.08-.06-.17-.12-.25-.18-.37.42-.75.84-1.11,1.26-1.5,1.77-3.06,3.49-4.48,5.33-.65.84-1.34.97-2.22.64-.95-.36-1.87-.76-2.81-1.14-.04.07-.09.14-.13.21,1.16.86,2.32,1.73,3.28,2.44,0,1.8,0,3.42,0,5.05-1.19.11-2.15.08-2.65-.95-1.43-2.95-2.72-5.95-2.55-9.34.01-.22-.08-.44-.13-.69-1.15,0-2.24.09-3.32-.03-.97-.11-1.96-.34-2.85-.73-1.32-.58-2.03-1.69-1.97-3.16.06-1.5,1.07-2.24,2.35-2.71.61-.22,1.25-.38,2.06-.61-1.28-.07-2.35.13-3.17.55-1.46.74-2.14,2-1.84,3.63.18,1.02.47,2.02.73,3.1,1.69.5,3.34,1.09,5.04,1.45,1.39.3,2.09,1.13,2.52,2.35.05.13.07.27.12.41.63,2.03,1.3,4.05,1.87,6.1.25.89.62,1.48,1.52,1.86,2.59,1.09,4.96,2.54,6.86,4.67.61.68,1.39,1.07,2.27,1.39,6.01,2.15,12,4.35,18,6.54.23.08.41.32.61.49-.21.22-.4.46-.63.64-.14.1-.36.1-.54.14-2.11.49-4.22,1.03-6.35,1.47-2.54.52-5.09,1.03-7.66,1.41-2.95.43-5.91.74-8.87,1.02-3.01.28-6.02.57-9.04.67-7.49.24-14.96-.1-22.37-1.16-4.58-.65-9.16-1.38-13.68-2.35-5.64-1.2-11.16-2.89-16.59-4.83-6.43-2.3-10.38-3.87-16.43-7.02l-.59-6.98ZM285.11,322.91c-.4,3.34-.79,6.68-.5,10.05.24,2.84.28,2.91,3.13,2.74.75-.05,1.51-.15,2.26-.23.55-.06.83-.39.88-.94.1-1.27.26-2.54.3-3.82.14-3.93.23-7.85.34-11.78.01-.49.08-.99.29-1.47.07,1.26.15,2.53.24,4.07,2.41-2.04,4.16-4.41,6.21-6.39-1.94-1.96-3.82-3.86-5.54-5.6.71-1.74,1.3-3.21,1.91-4.67.19-.47,0-.8-.3-1.14-.65-.75-1.27-1.53-1.84-2.22.63-2.77,1.24-5.43,1.86-8.14-.83-.48-1.66-.35-2.39-.13-1.19.35-2.41.32-3.61.45-1.83.2-3.66.46-5.47.83-2.92.6-5.81,1.28-8.71,1.97-.64.15-1.31.37-1.83.74-1.04.73-2.04.57-3.08.12-2.74-1.17-4.57-3.28-6.04-5.78-.6-1.02-1.27-1.99-1.94-2.96-.15-.22-.4-.38-.68-.63-2.02,1.36-4.01,2.7-6.22,4.19,3.62,1.61,7.05,3.13,10.47,4.65-.03.09-.06.18-.1.27-.5-.17-1.02-.31-1.51-.5-4.24-1.63-8.47-3.28-12.7-4.91-.38-.15-.79-.21-1.34-.36-.63,5.66-.77,11.18-1.16,16.87,3.09-.04,6.01-.53,8.95-.8,2.96-.28,5.92-.57,8.91-.66-5.9.93-11.8,1.86-17.85,2.81-.18,1.09-.37,2.19-.54,3.16,1.49.6,2.93,1.06,4.26,1.73,2.05,1.04,3.72,2.61,5.17,4.37.57.69,1.13,1.03,2.04.95,1.46-.12,2.94-.07,4.39-.22.72-.07,1.44-.38,2.1-.69.59-.28,1.1-.72,1.81-.9-1.11.96-2.2,1.93-3.33,2.86-1.13.93-2.3,1.8-3.49,2.73,2.39,4.86,4.1,9.79,2.43,15.24.07-.91.18-1.81.22-2.72.12-2.6-.49-5.07-1.46-7.46-2.05-5.08-4.88-9.62-9.26-13.04-1.51-1.18-3.13-2.12-5.21-2.16-.47,1.01-1.37,1.37-2.38,1.73-5.03,1.79-10.03,3.67-15.05,5.53-.17.06-.32.17-.55.3.1.21.14.43.26.5,3.07,1.83,5.1,4.62,6.91,7.59,3.14,5.14,5.18,10.72,6.34,16.62.24,1.24.19,2.54.27,3.81.02.23.05.46.09.89.47-.23.83-.38,1.18-.57,4.51-2.51,9-5.04,13.51-7.53,1.77-.98,3.62-1.79,5.63-2.18.28-.05.54-.2.81-.25,1.46-.24,1.89-1.1,2.03-2.55.4-4.19,1.03-8.36,1.55-12.53.33-2.63.57-5.27.94-7.89.45-3.18.98-6.34,1.72-9.48-3.23,30.08-6.46,60.15-9.69,90.23.05.03.11.05.16.08.14-.24.31-.47.4-.73.9-2.56,2.16-4.96,3.78-7.12.92-1.24,2.11-2.29,3.25-3.36.83-.77,1.71-1.51,2.67-2.12.8-.51,1.14-1.17,1.31-2.05.64-3.34,1.33-6.68,2.01-10.02,1.27-6.21,2.54-12.41,3.81-18.62,2.38-11.63,4.76-23.26,7.14-34.88.07-.36.2-.71.3-1.07.07.02.14.03.22.05-.24,1.72-.51,3.44-.72,5.16ZM348.03,343.14c-5.4-.31-10.55.77-15.42,3.09-1.19.57-2.16.47-2.93-.44-1.18-1.41-2.38-2.84-3.27-4.43-2.16-3.86-3.58-8.03-4.54-12.34-.15-.69-.22-1.4-.25-2.11-.05-1.21-.39-2.33-.99-3.37-.15-.26-.42-.46-.7-.76-.22.25-.41.39-.51.59-2.23,4.17-4.47,8.34-6.66,12.53-1.39,2.66-2.36,5.44-2.44,8.52-.04,1.55-.33,3.11-.69,4.62-.64,2.72-1.08,5.47-1.3,8.26-.41,5.14-.87,10.28-1.23,15.43-.06.89-.57,1.24-1.19,1.59-3.27,1.81-6.64,3.43-10.23,4.53-1.81.55-3.62,1.12-5.47,1.46-2.51.46-4.99-.06-7.45-.6-1.15-.25-2.32-.48-3.5-.55-2.17-.14-3.98.67-5.35,2.38-.09.11-.17.23-.22.36-.03.07.02.17.05.35.18-.08.36-.12.48-.22,2.2-1.85,4.62-1.55,7.12-.77,1.44.45,2.91.83,4.39,1.11,3.11.59,6.17.16,9.07-.96,6.02-2.33,11.8-5.15,16.74-9.42,2.59-2.24,4.83-4.81,6.89-7.53,2.17-2.87,4.31-5.76,6.46-8.65,3.4-4.57,7.56-8.21,12.9-10.36,4.37-1.76,8.88-2.17,13.51-1.25.42.08.83.14,1.25.21.02,0,.05-.06.13-.16-1.48-.75-3.06-1-4.65-1.09ZM150.79,344.62c4.47-3.94,9.55-6.83,15.28-8.42,2.4-.66,4.92-.93,7.4-1.2,4.99-.54,9.92-1.43,14.82-2.49,10.68-2.32,21.2-5.22,31.67-8.35.4-.12.8-.28,1.15-.61-3.92.76-7.84,1.56-11.77,2.27-3.95.71-7.93,1.34-11.89,2-3.99.66-7.99,1.18-12.09,1.47.07-.29.06-.41.11-.45,2.78-1.99,3.9-4.91,4.46-8.11.56-3.26.33-6.51-.25-9.74-.03-.16-.14-.31-.36-.77-.09.6-.16.89-.17,1.18-.11,3.48-.72,6.87-1.79,10.17-.63,1.94-1.6,3.75-2.92,5.32-1.33,1.59-2.93,2.82-4.99,3.34-3.58.9-7.15,1.79-10.73,2.65-3.6.87-7.13,1.91-10.39,3.71-3.47,1.92-6.21,4.62-8.38,7.91-.17.26-.3.56-.45.84.08.06.15.12.23.18.35-.31.7-.61,1.05-.92ZM230.22,216.56c1.21,1.91,2.42,3.85,3.85,5.6,1.91,2.34,3.87,4.64,5.69,7.07,2.09,2.79,4.71,5.01,8.19,5.75,2.15.46,4.41.4,6.62.54.71.04,1.42-.06,2.13-.04,4.87.11,8.64-2.05,11.68-5.69.79-.94,1.45-1.99,2.23-2.94,1.13-1.39,2.37-2.7,3.45-4.13,1.43-1.88,2.82-3.79,4.1-5.78.81-1.26,1.32-2.68,1.23-4.28-.67,1.01-1.31,2.05-2.03,3.01-1.48,1.96-3.01,3.89-4.51,5.83-1.56,2.02-3.07,4.09-4.7,6.05-1.98,2.37-4.39,4.16-7.45,4.93-.73.18-1.48.34-2.23.36-2.36.07-4.73.09-7.09.11-4.48.03-7.98-2.01-10.88-5.26-.16-.18-.32-.35-.46-.54-3.03-3.93-6.07-7.86-9.07-11.81-.65-.86-1.19-1.8-1.78-2.7-.13,1.46.3,2.77,1.03,3.92ZM330.18,303.84c-1.51-1.56-3.5-2-5.55-2.22-3.65-.39-7.29,0-10.91.37-4.38.45-8.73,1.06-13.1,1.62-1.5.19-3,.4-4.5.62-.2.03-.4.15-.8.31,1.32.68,2.5.57,3.64.42,4.69-.64,9.38-1.28,14.11-1.48,4.06-.17,8.13-.77,12.19-.11.92.15,1.85.43,2.69.84,1.83.89,2.25,2.48,1.24,4.24-.07.12-.12.25-.29.59,2.58-1.17,3.05-3.35,1.28-5.19ZM292.33,322.37c-.42.99-.62,4.71-.39,6.6.76-.28.99-1,1.38-1.53.92-1.22.9-1.24,2.28-.62.43.19.87.38,1.26.64,2.17,1.42,4.58,1.98,7.14,1.94,2.02-.03,3.78.71,5.44,1.76.16.1.31.21.46.33,1.67,1.33,1.86,2.22.83,4.27.89-.15,1.27-.62,1.45-1.36.42-1.75-.29-3.6-1.9-4.69-1.89-1.27-3.99-1.9-6.27-1.97-3.42-.11-7.23-.96-10.44-2.32.72-1.53-.89-1.96-1.26-3.07ZM328.69,320.02c.08-1.17-.26-2.24-1.03-3.15-1.28-1.5-2.95-2.44-4.86-2.68-1.96-.25-3.96-.29-5.93-.24-4.02.1-8.04.31-12.05.49-1.68.08-3.35.21-5.03.32,0,.11,0,.22-.01.33.38.02.76.06,1.14.07,6.58.13,13.15.25,19.73.39,1.63.03,3.2.4,4.64,1.16,2.34,1.23,2.79,2.33,2.03,5,1.08-.2,1.33-.9,1.38-1.68ZM324.89,294.35c-.45-.56-1.12-1.09-1.79-1.3-1.48-.47-3.01-.91-4.54-1.03-5.81-.46-11.63-.51-17.42.22-1.03.13-2.04.35-3.05.78.31,0,.62,0,.93,0,5.34-.05,10.69-.18,16.03-.1,1.92.03,3.82.56,5.73.87.23.04.45.14.67.22,2.46.88,2.92,1.8,2.15,4.26,1.71-.57,2.39-2.52,1.28-3.92ZM248.43,280.89c-.7-1.71-1.5-3.37-2.25-5.05-.17-.39-.36-.77-.48-1.18-.4-1.4.17-2.21,1.64-2.25,2.9-.08,5.38.97,7.36,3.07,1.84,1.95,3.08,4.29,4.15,6.73.2.46.4.93.69,1.36-.81-3.11-1.7-6.19-3.88-8.67-1.64-1.87-3.74-3.05-6.17-3.56-.77-.16-1.62-.17-2.39-.03-2.02.37-2.92,2.19-2.13,4.08,1.03,2.49,2.16,4.94,3.04,7.47.68,1.94,1.05,4,1.59,6.12.41-2.89-.13-5.54-1.17-8.1ZM291.44,334.96c1.25.07,2.44.14,3.73.21-.19-1.21-.97-2.01-1.54-2.88-.52-.8-.78-1.85-1.82-2.42-.13,1.74-.24,3.33-.37,5.09Z"/>
      <g>
        <path class="cls-81" d="M263.96,383.72c4.04-26.2,8.02-52.43,10.39-78.87-3.89,26.23-7.39,52.5-10.39,78.87Z"/>
        <path class="cls-80" d="M274.36,304.86c-3.89,26.23-7.39,52.5-10.39,78.87,4.04-26.2,8.02-52.43,10.39-78.87h0Z"/>
      </g>
      <g>
        <path class="cls-81" d="M270.13,356.74c-1.91,9.57-3.82,19.15-5.73,28.72,1.29-1.84,5.79-25.15,5.73-28.72Z"/>
        <path class="cls-80" d="M270.13,356.74c-1.91,9.57-3.82,19.15-5.73,28.72,1.29-1.84,5.79-25.15,5.73-28.72h0Z"/>
      </g>
    </g>
    <rect class="cls-80" x="224.24" y="282.19" width="77.83" height="118.77"/>
    <g id="Body-3" data-name="Body">
      <path class="cls-53" d="M188.32,408.25c-.58-8.1-1.69-16.2-2.11-24.29,16.16-8.37,31.16-18.29,46.32-27.94-.42.19-.86.36-1.26.58-3.51,1.97-7.04,3.9-10.51,5.93-7.96,4.67-15.86,9.44-23.85,14.06-4.63,2.67-9.45,5.01-14.63,6.46-1.17.33-2.4.55-3.61.66-2.17.19-4.35.14-6.51.38-3.05.34-6.09.78-9.11,1.32-2.97.54-5.9,1.29-8.86,1.89-3.33.68-6.31,0-8.7-2.55-.97-1.03-1.9-2.1-2.82-3.18-2-2.36-3.64-4.9-4.85-7.78-1.62-3.9-1.94-7.86-1.21-11.95.66-3.72,1.46-7.42,2.02-11.15.76-5.14,1.47-10.3,1.96-15.47.38-4.05.38-8.13.59-12.19.17-3.19.91-6.25,2.27-9.15,1.53-3.25,3.05-6.51,4.44-9.81.84-1.98.97-4.1.8-6.27-.21-2.78-.41-5.58-.25-8.36.21-3.63.78-7.23,1.2-10.85.6-5.24,2.95-9.64,6.64-13.32,4.42-4.4,9.8-7.21,15.66-9.13,5.06-1.66,10.28-2.58,15.61-2.64,4.08-.04,8.14.15,12.05,1.54.26.09.55.08,1.13.15-.48-.39-.69-.57-.91-.74-.23-.17-.46-.34-.7-.48-4.53-2.49-9.38-3.42-14.51-3.01-.68.05-1.36.11-2.29.19.27-.46.35-.68.5-.83,1.16-1.18,2.24-2.46,3.51-3.51,3.69-3.06,7.81-5.49,12.02-7.76,4.53-2.45,9.13-4.78,13.67-7.21,3.38-1.81,6.71-3.69,9.44-6.47.59-.61,1.27-1.14,1.94-1.66.96-.75,1.91-1.53,3.28-1.91.09,1.05.22,2.02.26,3,.17,3.97.32,7.95.47,11.92,0,.24,0,.48.05.71.04.23.11.45.17.67.57-3.74.88-7.47.61-11.21-.24-3.39-.54-6.79-.94-10.17-.31-2.63-.78-5.23-1.22-7.84-.45-2.7-.91-5.4-1.41-8.09-.36-1.94-.79-3.87-1.19-5.81-.25,0-.45-.04-.62,0-1.22.33-2-.23-2.57-1.23-.54-.95-1.05-1.91-1.58-2.85-.54-.96-.88-1.96-1-3.07-.3-2.91-.7-5.82-.99-8.73-.13-1.28-.02-2.55.5-3.76.71-1.68,1.69-2.01,3.26-1.12.32.18.61.39,1.02.66,0-.44.04-.76,0-1.07-.16-1.12-.41-2.23-.53-3.36-.41-4.03-.21-8.04.8-11.97,1.17-4.6,3.18-8.79,6.35-12.38,4.46-5.05,9.99-8.28,16.5-9.95,5.88-1.51,11.75-1.67,17.69-.4,6.91,1.47,12.84,4.62,17.68,9.82,2.75,2.96,4.74,6.36,6.03,10.16,1.84,5.44,2.24,10.99,1.29,16.65-.13.78-.19,1.58-.3,2.47.33-.18.6-.28.82-.45,1.72-1.38,3.27-.54,3.77,1.5.43,1.74.27,3.47.07,5.22-.24,2.06-.45,4.13-.71,6.19-.09.75-.17,1.53-.47,2.21-.56,1.3-1.27,2.53-1.92,3.79-.67,1.29-1.57,2.14-3.17,1.65-.07-.02-.17.07-.3.12-.41,2.58-.83,5.17-1.22,7.78-.63,4.16-1.2,8.33-1.88,12.48-1.16,7.19-1.34,14.41-.7,21.65.06.64.2,1.28.3,1.92.21-.36.23-.69.25-1.02.19-4.49.38-8.99.59-13.48.03-.67.17-1.34.29-2.26,1.05.73,1.9,1.25,2.66,1.86,1.96,1.57,3.87,3.18,5.82,4.77,3.95,3.21,8.38,5.65,12.81,8.1,3.52,1.94,7.05,3.87,10.51,5.92,3.23,1.91,6.19,4.19,8.6,7.12.25.31.45.66.85,1.24-3.97-.79-7.64-.71-11.28.06-3.61.77-7.02,2.07-10.11,4.16.44.05.85.01,1.25-.06,4.28-.8,8.59-1.43,12.94-1.71,6.56-.42,13.03-.03,19.37,1.94,7.35,2.28,13.15,6.63,17.44,12.91,4.72,6.9,6.92,14.64,6.99,22.99,0,1.04-.06,2.09.03,3.12.17,1.83.35,3.67.71,5.47.56,2.78,1.99,5.21,3.51,7.55,2.05,3.15,3.28,6.57,3.89,10.26.55,3.34.45,6.71.33,10.06-.14,4,.23,7.95.97,11.86.77,4.04,1.82,8.02,2.69,12.04.65,3,1.41,5.99,1.77,9.03.32,2.71.15,5.48.24,8.22.06,1.69-.42,3.22-1.47,4.49-1.3,1.56-2.63,3.11-4.14,4.46-3.44,3.07-7.29,5.56-11.31,7.8-3.56,1.98-7.17,3.83-11.13,4.9-8.75,2.38-17.5,4.78-26.25,7.16-3.6.98-7.2,1.96-10.66,3.37-1.47.6-2.63,1.52-3.23,3-.51,1.27-.96,2.57-1.39,3.86-.52,1.54-1.22,2.92-2.38,4.12-3.2,3.31-7.05,5.71-10.95,8.03-1.43.85-3.09,1.15-4.75,1.29-1.09.1-1.75-.47-2.26-1.38-.48-.88-.58-1.63.13-2.47.73-.87,1.32-1.85,1.96-2.78.65-.95,1.3-1.9,1.95-2.85-.52.16-.88.45-1.2.78-1.63,1.71-3.26,3.43-4.87,5.16-1.4,1.5-3.22,1.85-5.02.88-.62-.34-1.23-.72-1.79-1.15-1.96-1.51-2.16-2.61-.9-4.74.1-.16.21-.32.32-.47.75-.98,1.5-1.95,2.25-2.93.71-.92,1.41-1.85,2.11-2.77-.31-.01-.5.1-.63.25-1.53,1.68-3.09,3.33-4.56,5.06-.6.7-1.19,1.01-2.09.76-.83-.23-1.67-.41-2.51-.61-.02.06-.04.12-.07.19,1.1.52,2.2,1.04,3.4,1.61-.1.59-.19,1.17-.29,1.8-1.02.04-1.93.09-2.7-.47-.95-.69-1.9-1.41-2.77-2.2-.35-.32-.67-.87-.69-1.33-.13-3.17.11-6.26,2.47-8.73.03-.03.06-.07.09-.11,1.21-1.64,2.42-3.27,3.62-4.92.17-.23.26-.52.38-.78-.08-.06-.17-.12-.25-.18-.37.42-.75.84-1.11,1.26-1.5,1.77-3.06,3.49-4.48,5.33-.65.84-1.34.97-2.22.64-.95-.36-1.87-.76-2.81-1.14-.04.07-.09.14-.13.21,1.16.86,2.32,1.73,3.28,2.44,0,1.8,0,3.42,0,5.05-1.19.11-2.15.08-2.65-.95-1.43-2.95-2.72-5.95-2.55-9.34.01-.22-.08-.44-.13-.69-1.15,0-2.24.09-3.32-.03-.97-.11-1.96-.34-2.85-.73-1.32-.58-2.03-1.69-1.97-3.16.06-1.5,1.07-2.24,2.35-2.71.61-.22,1.25-.38,2.06-.61-1.28-.07-2.35.13-3.17.55-1.46.74-2.14,2-1.84,3.63.18,1.02.47,2.02.73,3.1,1.69.5,3.34,1.09,5.04,1.45,1.39.3,2.09,1.13,2.52,2.35.05.13.07.27.12.41.63,2.03,1.3,4.05,1.87,6.1.25.89.62,1.48,1.52,1.86,2.59,1.09,4.96,2.54,6.86,4.67.61.68,1.39,1.07,2.27,1.39,6.01,2.15,12,4.35,18,6.54.23.08.41.32.61.49-.21.22-.4.46-.63.64-.14.1-.36.1-.54.14-2.11.49-4.22,1.03-6.35,1.47-2.54.52-5.09,1.03-7.66,1.41-2.95.43-5.91.74-8.87,1.02-3.01.28-6.02.57-9.04.67-7.49.24-14.96-.1-22.37-1.16-4.58-.65-9.16-1.38-13.68-2.35-5.64-1.2-11.16-2.89-16.59-4.83-6.43-2.3-10.38-3.87-16.43-7.02l-.59-6.98ZM285.11,322.91c-.4,3.34-.79,6.68-.5,10.05.24,2.84.28,2.91,3.13,2.74.75-.05,1.51-.15,2.26-.23.55-.06.83-.39.88-.94.1-1.27.26-2.54.3-3.82.14-3.93.23-7.85.34-11.78.01-.49.08-.99.29-1.47.07,1.26.15,2.53.24,4.07,2.41-2.04,4.16-4.41,6.21-6.39-1.94-1.96-3.82-3.86-5.54-5.6.71-1.74,1.3-3.21,1.91-4.67.19-.47,0-.8-.3-1.14-.65-.75-1.27-1.53-1.84-2.22.63-2.77,1.24-5.43,1.86-8.14-.83-.48-1.66-.35-2.39-.13-1.19.35-2.41.32-3.61.45-1.83.2-3.66.46-5.47.83-2.92.6-5.81,1.28-8.71,1.97-.64.15-1.31.37-1.83.74-1.04.73-2.04.57-3.08.12-2.74-1.17-4.57-3.28-6.04-5.78-.6-1.02-1.27-1.99-1.94-2.96-.15-.22-.4-.38-.68-.63-2.02,1.36-4.01,2.7-6.22,4.19,3.62,1.61,7.05,3.13,10.47,4.65-.03.09-.06.18-.1.27-.5-.17-1.02-.31-1.51-.5-4.24-1.63-8.47-3.28-12.7-4.91-.38-.15-.79-.21-1.34-.36-.63,5.66-.77,11.18-1.16,16.87,3.09-.04,6.01-.53,8.95-.8,2.96-.28,5.92-.57,8.91-.66-5.9.93-11.8,1.86-17.85,2.81-.18,1.09-.37,2.19-.54,3.16,1.49.6,2.93,1.06,4.26,1.73,2.05,1.04,3.72,2.61,5.17,4.37.57.69,1.13,1.03,2.04.95,1.46-.12,2.94-.07,4.39-.22.72-.07,1.44-.38,2.1-.69.59-.28,1.1-.72,1.81-.9-1.11.96-2.2,1.93-3.33,2.86-1.13.93-2.3,1.8-3.49,2.73,2.39,4.86,4.1,9.79,2.43,15.24.07-.91.18-1.81.22-2.72.12-2.6-.49-5.07-1.46-7.46-2.05-5.08-4.88-9.62-9.26-13.04-1.51-1.18-3.13-2.12-5.21-2.16-.47,1.01-1.37,1.37-2.38,1.73-5.03,1.79-10.03,3.67-15.05,5.53-.17.06-.32.17-.55.3.1.21.14.43.26.5,3.07,1.83,5.1,4.62,6.91,7.59,3.14,5.14,5.18,10.72,6.34,16.62.24,1.24.19,2.54.27,3.81.02.23.05.46.09.89.47-.23.83-.38,1.18-.57,4.51-2.51,9-5.04,13.51-7.53,1.77-.98,3.62-1.79,5.63-2.18.28-.05.54-.2.81-.25,1.46-.24,1.89-1.1,2.03-2.55.4-4.19,1.03-8.36,1.55-12.53.33-2.63.57-5.27.94-7.89.45-3.18.98-6.34,1.72-9.48-3.23,30.08-6.46,60.15-9.69,90.23.05.03.11.05.16.08.14-.24.31-.47.4-.73.9-2.56,2.16-4.96,3.78-7.12.92-1.24,2.11-2.29,3.25-3.36.83-.77,1.71-1.51,2.67-2.12.8-.51,1.14-1.17,1.31-2.05.64-3.34,1.33-6.68,2.01-10.02,1.27-6.21,2.54-12.41,3.81-18.62,2.38-11.63,4.76-23.26,7.14-34.88.07-.36.2-.71.3-1.07.07.02.14.03.22.05-.24,1.72-.51,3.44-.72,5.16ZM348.03,343.14c-5.4-.31-10.55.77-15.42,3.09-1.19.57-2.16.47-2.93-.44-1.18-1.41-2.38-2.84-3.27-4.43-2.16-3.86-3.58-8.03-4.54-12.34-.15-.69-.22-1.4-.25-2.11-.05-1.21-.39-2.33-.99-3.37-.15-.26-.42-.46-.7-.76-.22.25-.41.39-.51.59-2.23,4.17-4.47,8.34-6.66,12.53-1.39,2.66-2.36,5.44-2.44,8.52-.04,1.55-.33,3.11-.69,4.62-.64,2.72-1.08,5.47-1.3,8.26-.41,5.14-.87,10.28-1.23,15.43-.06.89-.57,1.24-1.19,1.59-3.27,1.81-6.64,3.43-10.23,4.53-1.81.55-3.62,1.12-5.47,1.46-2.51.46-4.99-.06-7.45-.6-1.15-.25-2.32-.48-3.5-.55-2.17-.14-3.98.67-5.35,2.38-.09.11-.17.23-.22.36-.03.07.02.17.05.35.18-.08.36-.12.48-.22,2.2-1.85,4.62-1.55,7.12-.77,1.44.45,2.91.83,4.39,1.11,3.11.59,6.17.16,9.07-.96,6.02-2.33,11.8-5.15,16.74-9.42,2.59-2.24,4.83-4.81,6.89-7.53,2.17-2.87,4.31-5.76,6.46-8.65,3.4-4.57,7.56-8.21,12.9-10.36,4.37-1.76,8.88-2.17,13.51-1.25.42.08.83.14,1.25.21.02,0,.05-.06.13-.16-1.48-.75-3.06-1-4.65-1.09ZM150.79,344.62c4.47-3.94,9.55-6.83,15.28-8.42,2.4-.66,4.92-.93,7.4-1.2,4.99-.54,9.92-1.43,14.82-2.49,10.68-2.32,21.2-5.22,31.67-8.35.4-.12.8-.28,1.15-.61-3.92.76-7.84,1.56-11.77,2.27-3.95.71-7.93,1.34-11.89,2-3.99.66-7.99,1.18-12.09,1.47.07-.29.06-.41.11-.45,2.78-1.99,3.9-4.91,4.46-8.11.56-3.26.33-6.51-.25-9.74-.03-.16-.14-.31-.36-.77-.09.6-.16.89-.17,1.18-.11,3.48-.72,6.87-1.79,10.17-.63,1.94-1.6,3.75-2.92,5.32-1.33,1.59-2.93,2.82-4.99,3.34-3.58.9-7.15,1.79-10.73,2.65-3.6.87-7.13,1.91-10.39,3.71-3.47,1.92-6.21,4.62-8.38,7.91-.17.26-.3.56-.45.84.08.06.15.12.23.18.35-.31.7-.61,1.05-.92ZM230.22,216.56c1.21,1.91,2.42,3.85,3.85,5.6,1.91,2.34,3.87,4.64,5.69,7.07,2.09,2.79,4.71,5.01,8.19,5.75,2.15.46,4.41.4,6.62.54.71.04,1.42-.06,2.13-.04,4.87.11,8.64-2.05,11.68-5.69.79-.94,1.45-1.99,2.23-2.94,1.13-1.39,2.37-2.7,3.45-4.13,1.43-1.88,2.82-3.79,4.1-5.78.81-1.26,1.32-2.68,1.23-4.28-.67,1.01-1.31,2.05-2.03,3.01-1.48,1.96-3.01,3.89-4.51,5.83-1.56,2.02-3.07,4.09-4.7,6.05-1.98,2.37-4.39,4.16-7.45,4.93-.73.18-1.48.34-2.23.36-2.36.07-4.73.09-7.09.11-4.48.03-7.98-2.01-10.88-5.26-.16-.18-.32-.35-.46-.54-3.03-3.93-6.07-7.86-9.07-11.81-.65-.86-1.19-1.8-1.78-2.7-.13,1.46.3,2.77,1.03,3.92ZM330.18,303.84c-1.51-1.56-3.5-2-5.55-2.22-3.65-.39-7.29,0-10.91.37-4.38.45-8.73,1.06-13.1,1.62-1.5.19-3,.4-4.5.62-.2.03-.4.15-.8.31,1.32.68,2.5.57,3.64.42,4.69-.64,9.38-1.28,14.11-1.48,4.06-.17,8.13-.77,12.19-.11.92.15,1.85.43,2.69.84,1.83.89,2.25,2.48,1.24,4.24-.07.12-.12.25-.29.59,2.58-1.17,3.05-3.35,1.28-5.19ZM292.33,322.37c-.42.99-.62,4.71-.39,6.6.76-.28.99-1,1.38-1.53.92-1.22.9-1.24,2.28-.62.43.19.87.38,1.26.64,2.17,1.42,4.58,1.98,7.14,1.94,2.02-.03,3.78.71,5.44,1.76.16.1.31.21.46.33,1.67,1.33,1.86,2.22.83,4.27.89-.15,1.27-.62,1.45-1.36.42-1.75-.29-3.6-1.9-4.69-1.89-1.27-3.99-1.9-6.27-1.97-3.42-.11-7.23-.96-10.44-2.32.72-1.53-.89-1.96-1.26-3.07ZM328.69,320.02c.08-1.17-.26-2.24-1.03-3.15-1.28-1.5-2.95-2.44-4.86-2.68-1.96-.25-3.96-.29-5.93-.24-4.02.1-8.04.31-12.05.49-1.68.08-3.35.21-5.03.32,0,.11,0,.22-.01.33.38.02.76.06,1.14.07,6.58.13,13.15.25,19.73.39,1.63.03,3.2.4,4.64,1.16,2.34,1.23,2.79,2.33,2.03,5,1.08-.2,1.33-.9,1.38-1.68ZM324.89,294.35c-.45-.56-1.12-1.09-1.79-1.3-1.48-.47-3.01-.91-4.54-1.03-5.81-.46-11.63-.51-17.42.22-1.03.13-2.04.35-3.05.78.31,0,.62,0,.93,0,5.34-.05,10.69-.18,16.03-.1,1.92.03,3.82.56,5.73.87.23.04.45.14.67.22,2.46.88,2.92,1.8,2.15,4.26,1.71-.57,2.39-2.52,1.28-3.92ZM248.43,280.89c-.7-1.71-1.5-3.37-2.25-5.05-.17-.39-.36-.77-.48-1.18-.4-1.4.17-2.21,1.64-2.25,2.9-.08,5.38.97,7.36,3.07,1.84,1.95,3.08,4.29,4.15,6.73.2.46.4.93.69,1.36-.81-3.11-1.7-6.19-3.88-8.67-1.64-1.87-3.74-3.05-6.17-3.56-.77-.16-1.62-.17-2.39-.03-2.02.37-2.92,2.19-2.13,4.08,1.03,2.49,2.16,4.94,3.04,7.47.68,1.94,1.05,4,1.59,6.12.41-2.89-.13-5.54-1.17-8.1ZM291.44,334.96c1.25.07,2.44.14,3.73.21-.19-1.21-.97-2.01-1.54-2.88-.52-.8-.78-1.85-1.82-2.42-.13,1.74-.24,3.33-.37,5.09Z"/>
      <g>
        <path class="cls-81" d="M265.82,369.96c2.14-17.78,4.55-35.93,7.3-54.94-1.97,18.85-4.65,37.52-7.3,54.94Z"/>
        <path class="cls-78" d="M274.36,304.86c-3.89,26.23-7.39,52.5-10.39,78.87,4.04-26.2,8.02-52.43,10.39-78.87h0Z"/>
      </g>
      <g>
        <path class="cls-81" d="M267.51,371.16l1.6-8.02c-.87,5.34-2.32,12.57-3.46,17.33l1.86-9.31Z"/>
        <path class="cls-78" d="M270.13,356.74c-1.91,9.57-3.82,19.15-5.73,28.72,1.29-1.84,5.79-25.15,5.73-28.72h0Z"/>
      </g>
    </g>
  </g>
  <circle id="Vntorn" class="cls-16" cx="256" cy="256.96" r="178.32"/>
  <circle id="Stredn" class="cls-15" cx="256" cy="256.96" r="215.14"/>
  <text class="cls-83" transform="translate(83.03 404.43) rotate(47.11)"><tspan x="0" y="0">B</tspan></text>
  <text class="cls-83" transform="translate(106.53 428.37) rotate(38.04)"><tspan x="0" y="0">O</tspan></text>
  <text class="cls-83" transform="translate(137.03 450.7) rotate(29.05)"><tspan x="0" y="0">X</tspan></text>
  <text class="cls-83" transform="translate(167.46 466.19) rotate(21.88)"><tspan x="0" y="0">I</tspan></text>
  <text class="cls-83" transform="translate(188.51 474.17) rotate(14.28)"><tspan x="0" y="0">N</tspan></text>
  <text class="cls-83" transform="translate(225.39 482.3) rotate(4.79)"><tspan x="0" y="0">G</tspan></text>
  <text class="cls-83" transform="translate(262.19 484.01) rotate(-2.47)"><tspan x="0" y="0"> </tspan></text>
  <text class="cls-83" transform="translate(283.56 482.64) rotate(-9.49)"><tspan x="0" y="0">C</tspan></text>
  <text class="cls-83" transform="translate(317.13 476.08) rotate(-18.66)"><tspan x="0" y="0">O</tspan></text>
  <text class="cls-83" transform="translate(353.01 462.64) rotate(-28.03)"><tspan x="0" y="0">A</tspan></text>
  <text class="cls-83" transform="translate(383.76 445.01) rotate(-36.83)"><tspan x="0" y="0">C</tspan></text>
  <text class="cls-83" transform="translate(411.07 423.27) rotate(-45.91)"><tspan x="0" y="0">H</tspan></text>
  <text class="cls-83" transform="translate(83.54 148.55) rotate(-53.78)"><tspan x="0" y="0">M</tspan></text>
  <text class="cls-83" transform="translate(107.23 118.16) rotate(-43.93)"><tspan x="0" y="0">A</tspan></text>
  <text class="cls-83" transform="translate(131.12 96.39) rotate(-35.24)"><tspan x="0" y="0">R</tspan></text>
  <text class="cls-83" transform="translate(155.94 79.87) rotate(-27.06)"><tspan x="0" y="0">E</tspan></text>
  <text class="cls-83" transform="translate(181.32 67.7) rotate(-18.82)"><tspan x="0" y="0">K</tspan></text>
  <text class="cls-83" transform="translate(210.24 58.92) rotate(-11.89)"><tspan x="0" y="0"> </tspan></text>
  <text class="cls-83" transform="translate(227.1 55.63) rotate(-5.61)"><tspan x="0" y="0">T</tspan></text>
  <text class="cls-83" transform="translate(255.4 53.56) rotate(2.48)"><tspan x="0" y="0">R</tspan></text>
  <text class="cls-83" transform="translate(285.01 55.5) rotate(11.42)"><tspan x="0" y="0">N</tspan></text>
  <text class="cls-83" transform="translate(317.91 63) rotate(21.16)"><tspan x="0" y="0">O</tspan></text>
  <text class="cls-83" transform="translate(350.11 76.57) rotate(30.4)"><tspan x="0" y="0">V</tspan></text>
  <text class="cls-83" transform="translate(375.98 92.74) rotate(38.65)"><tspan x="0" y="0">S</tspan></text>
  <text class="cls-83" transform="translate(397.57 110.91) rotate(46.8)"><tspan x="0" y="0">K</tspan></text>
  <text class="cls-83" transform="translate(417.33 133.07) rotate(55.13)"><tspan x="0" y="0"></tspan></text>
  <circle id="Vonkaj" class="cls-16" cx="256" cy="256.96" r="252.35"/>
  <path class="cls-36" d="M20.09,279.51c4.93-3.92,10.23.88,10.23.88,1.01-3.16,6.32-5.68,6.32-5.68v-8.34c-12.12-.25-18.31,1.77-18.31,1.77v-11.62s3.54,1.61,18.31,1.5v-7.05s-4.93-.88-10.99,1.89v-11.11s3.66,1.39,10.99,2.15c0,0,.51-7.96-2.27-11.62h12.88s-3.28,3.41-2.65,11.49c0,0,5.43.38,11.49-1.89v11.24s-1.63-2.27-11.75-2.27v7.18s16.67-.11,19.07-1.69v12.06s-4.27-2.36-18.82-2.15l-.13,9.09s3.54.76,5.18,5.05c0,0,5.3-4.67,10.36,1.26"/>
  <path class="cls-36" d="M450.36,279.51c4.93-3.92,10.23.88,10.23.88,1.01-3.16,6.32-5.68,6.32-5.68v-8.34c-12.12-.25-18.31,1.77-18.31,1.77v-11.62s3.54,1.61,18.31,1.5v-7.05s-4.93-.88-10.99,1.89v-11.11s3.66,1.39,10.99,2.15c0,0,.51-7.96-2.27-11.62h12.88s-3.28,3.41-2.65,11.49c0,0,5.43.38,11.49-1.89v11.24s-1.63-2.27-11.75-2.27v7.18s16.67-.11,19.07-1.69v12.06s-4.27-2.36-18.82-2.15l-.13,9.09s3.54.76,5.18,5.05c0,0,5.3-4.67,10.36,1.26"/>
</svg>