<?xml version="1.0" encoding="UTF-8"?>
<svg id="Layer_1" data-name="Layer 1" xmlns="http://www.w3.org/2000/svg" viewBox="0 0 512 512">
  <defs>
    <style>
      .cls-1 {
        fill: #dfac87;
      }

      .cls-1, .cls-2, .cls-3 {
        stroke-width: 0px;
      }

      .cls-2 {
        fill: #7f7f7f;
      }

      .cls-3 {
        fill: #a0bca1;
      }
    </style>
  </defs>
  <g id="Untitled">
    <g>
      <path class="cls-2" d="M297.07,11.43c3.5,10.64-10.17,17.11-18.23,19.15-5.27,1.33-10.61,2.92-16.04,4.76-.23.07-.37.3-.32.54.05.24.27.4.51.39,23.78-1.45,47.18.79,70.22,6.71.5.13,1.01-.12,1.22-.59,6.21-14.07,21.75-25.27,37.37-18.43,6,3.33,9.9,10.08,6.14,16.77-3.86,3.66-8.53,5.23-14.03,4.7-7.55-.72-15.15-1.04-22.83-.95-.16,0-.31.11-.33.27-.02.16.08.32.24.35,19.54,6,38.01,14.35,55.41,25.05,1.27.78,2.32,1.28,3.15,1.51.08.42.27.69.58.82.27.11.49.04.66-.2l3.92-5.56c4.19-3.33,8.93-5.54,14.21-6.63,3.82.1,8-.32,11.42.34,7.43,1.42,13.98,5.71,13.54,14.24-6.44,11.43-29.06,4.19-38.11.57-.18-.06-.39.02-.48.19-.09.17-.05.38.11.5,16.31,11.05,30.95,23.99,43.92,38.83.11.12.26.2.42.21.16,0,.32-.05.44-.16,3.43-3.17,6.95-5.06,10.55-5.65,9.53-1.56,17,1.42,22.41,8.95.79,4.89-1.03,7.88-5.46,8.95-7.55.46-14.5-3.27-20.67-6.93-1.06-.63-2.18-1-3.36-1.12-.53-.05-.63.13-.28.54,6.03,7.24,11.68,14.77,16.93,22.59.17.24.5.32.76.16,9.43-5.82,16.82-4.08,22.16,5.21-1.43,4.71-4.42,6.19-8.97,4.45-3.47-1.36-6.97-3.28-10.51-5.75-.16-.12-.39-.1-.53.04-.15.14-.18.36-.07.53l4.72,7.74c.16.26.39.45.68.57,8.52,3.37,12.74,9.59,12.67,18.67-1.04,2.61-2.66,3.9-4.86,3.87-1.42-.02-2.78-.75-4.06-2.18-4.66-5.2-6.11-11.46-4.35-18.77.07-.3-.05-.5-.34-.58-.12-.03-.26-.03-.42,0-.02-2.78-8.64-14.29-10.91-17.66-.17-.26-.5-.37-.79-.27-.29.1-.49.37-.48.68.26,7.09,2.95,16.71.7,23.55-1.24,3.76-4.41,5.28-7.64,2.23-.6-.56-1.34-1.97-2.23-4.24-1.18-9.53,1.27-17.94,7.34-25.22.2-.23.23-.49.09-.76-.17-.34-.49-.57-.95-.69.07-.42.03-.72-.12-.92-8.83-11.44-18.63-22.01-29.4-31.7-.34-.3-.43-.24-.27.19,3.79,9.99,12.98,22.49,9.01,33.45-2.91,4.78-7.18,4.13-10.75.55-2.09-2.09-3.74-4.54-4.95-7.34-2.84-10.41-2.4-20.82,1.31-31.24.11-.3.02-.64-.23-.85-14.38-12-29.91-22.26-46.6-30.78-.72-.36-.81-.24-.27.36,7.84,8.83,19.72,18.85,19.63,31.8-.03,5.47-4.85,9.21-10.07,7.59-10.23-3.2-15.04-18.4-16.91-27.58-.37-4.84-.48-9.68-.34-14.53.03-1.22-.68-2.42-2.02-1.39-.17-.64-.75-1.17-1.76-1.6-21.62-9.02-43.93-14.84-66.95-17.48-.2-.03-.4.09-.47.28-.07.19,0,.41.17.52,9.63,6.83,35.17,17.98,26.3,33.62-8.63,1.81-15.69-1.05-21.17-8.58-6.03-8.28-9.94-16.86-11.75-25.71-.06-.29-.21-.5-.47-.64-.68-.38-1.43-.5-2.25-.34-21.63-1.42-43.01.09-64.14,4.51-.2.04-.33.22-.31.42s.18.35.37.36c7.6.52,32.65,4.03,31.48,15.89-1.03,10.5-16.08,5.77-22.15,2.71-7.64-3.9-13.71-9.48-18.22-16.75-.17-.27-.41-.36-.71-.28l-4.04,1.1c-13.84,3.89-27.32,9.03-40.44,15.43-.17.09-.27.28-.23.47s.21.33.4.33c10.3.3,22.92,0,31.75,6.14,7.53,5.25,8.29,12.8-.77,17.14-4.9-.03-9.8-1.1-14.68-3.21-9-3.9-16.97-9.35-23.9-16.35-.21-.21-.52-.31-.81-.25-.49.09-.71.4-.64.91-.22-.21-.41-.26-.58-.16-27.48,14.95-51.27,34.28-71.36,58.01-.27.33-.34.78-.18,1.17,18.63,45.59,37.11,91.22,55.42,136.89.26.66.64,1.15,1.14,1.46.06.04.14.04.21.02.07-.03.11-.09.12-.16,1.47-7.98,3.23-15.43,5.28-22.36,7.66-25.85,14.84-50.83,28.77-75.13,8.81-15.37,18.33-29.3,30.73-42.06,1.3-1.32,8.34-8.08,9.03-7.29.15.17.14.33-.03.48-6.62,5.88-11.81,11.69-15.56,17.42-14.53,22.16-25.33,46.16-32.41,72.01-7.06,25.79-12.48,44.44-16.15,70.17-2.65,18.55-4.09,37.38-4.87,56.04-.02.52-.41.95-.93,1.02l-7.68,1.06c-.45.07-.9-.17-1.1-.58-27.67-54.98-55-110.1-81.99-165.38-.43-.89-.47-1.47.04-2.38,4.99-8.79,8.53-14.91,10.62-18.37,26.95-44.67,66.89-79.69,115.52-99.16.18-.07.28-.26.24-.45-3.17-15.82,4.25-35.03,21.54-38.73,5.32-1.13,9.87,1.61,9.46,7.35-.39,5.55-4.26,10.27-8.48,13.8-6.25,5.23-12.62,10.36-19.14,15.39-.24.19-.31.53-.16.79.15.27.47.38.76.27,20.1-7.6,41.04-12.38,62.8-14.33.71-.06,1.1-.39,1.17-.97.72-3.43,1.48-6.1,2.3-7.99,4.66-10.77,15.37-21.24,27.72-20.99,3.85.07,7.14,1.62,9.86,4.62ZM259.38,34.63c.4.27.59.4,1.01.12,3.82-2.55,8.38-4.4,13.66-5.53,6.31-1.35,21.13-6.34,21.12-14.99-3.15-5.99-11.91-5.41-16.56-2.96-9.64,5.07-16.05,12.86-19.23,23.36ZM202.88,20.79c-5.76,4.4-9.44,10.19-11.03,17.38-.64,2.85-1.01,5.76-1.13,8.73,0,.17.07.26.24.28.07.01.16.02.25.03-.37.46-.5.99-.37,1.57.08.39.25.43.51.12,6.35-7.65,22.37-14.52,25.79-26.73.64-2.3-.45-5.03-2.94-5.29-3.97-.4-7.74.9-11.31,3.9ZM337.29,42.96c9.47-3.26,18.38-1.47,27.73-1.12,18.24.7,12.37-15-.23-16.73-11.23-1.54-22.77,8.16-27.76,17.54-.17.32-.09.42.26.31ZM326.67,71.27c.53-3.3-.5-6.32-3.1-9.07-4.11-4.34-8.11-7.61-11.98-9.81l-14.32-9.64c-.33-.22-.43-.15-.3.23,3.75,10.84,9.46,23.68,20.26,29.95,2.6,1.51,9.32,3.56,9.44-1.66ZM252.4,65.43c1.94.21,3.26-.38,3.96-1.79,3.46-6.95-11.08-11.58-15.75-12.81-2.9-.77-7.84-1.62-14.83-2.54l-3.81-.89c-.49-.11-.59.03-.28.44,6.09,8.19,19.48,18.84,30.71,17.59ZM391.89,102.05c3.79-.11,5.4-2.22,4.82-6.33-.32-2.27-.87-4.27-1.65-6-2.32-5.15-5.56-9.84-9.72-14.07l-10.4-12.05c-.21-.24-.3-.2-.28.12.63,12.1,3.01,29.18,13.6,37.1.77.58,1.98.99,3.63,1.22ZM409.23,73.25c2.29,1.02,5.41,1.97,9.34,2.84,6.14,1.38,15.47,3.23,20.43-.4,5.16-3.35-1.5-9.45-5.41-10.42-11.13-2.75-21.1-.6-29.92,6.45-.14.11-.2.28-.15.45.05.17.19.29.36.31l5.35.76ZM208.18,82.97c.66-3.94-.8-7.04-4.38-9.31-4.23-2.66-8.57-4.25-13.04-4.77-4.67-.54-8.32-.69-10.97-.46-3.52-.67-7.1-.94-10.73-.82-.4.01-.44.14-.14.4,7.95,6.66,18.23,13.28,28.13,16.48,4.02,1.3,7.73.79,11.13-1.53ZM429.48,99.57s-.07-.08-.13-.07c-.05,0-.1.04-.11.09-2.42,7.81-2.82,15.85-1.19,24.13.69,3.54,4.22,12.87,9.13,12.17,6.49-.94,1.51-15.15-.14-18.74-2.5-5.42-5.02-11.28-7.55-17.57ZM452.46,116.19c9.14,1.41,14.3,8.85,24.35,8.65,4.17-.09,5.68-3.17,3.5-6.7-5.45-8.81-20.53-6.79-27.93-2.41-.41.25-.38.4.09.47ZM460.62,162.79c-.15.11-.22.3-.21.57.01.3.17.47.47.51,1.9.2,3.02-.7,3.36-2.71.69-4.02.58-8.45-.33-13.28-.45-3.29-.56-6.62-.32-9.99.01-.1-.05-.19-.14-.22-.09-.03-.2.01-.24.1-3.8,6.35-7.67,17.48-3.64,24.51.21.37.56.54,1.06.52ZM472.92,143.85c3.09,1.58,16.36,11.03,18.17,5.2.27-.88.22-1.62-.15-2.23-4.19-6.81-11.52-5.67-17.98-3.43-.09.03-.16.12-.17.22,0,.1.04.19.13.24ZM489.45,169.5c-1.74-5.61-5.17-9.07-9.93-12.3-.37-.25-.59-.16-.67.27-1.03,5.41.33,16.82,6.53,19.16,4.55,1.72,4.85-4.62,4.06-7.13Z"/>
      <path class="cls-2" d="M324.61,313.79l-24.11-.02c-.33,0-.55.16-.64.48-8.17,27.9-22.94,54.67-38.25,76.4-5.41,7.67-11.59,14.7-18.54,21.09-.04.03-.09.05-.14.03-.05-.01-.09-.05-.11-.1-.11-.34-.06-.66.17-.94,16.08-19.96,28.62-41.95,37.62-65.96,9.56-25.49,16.3-51.36,22.35-77.86,9.99-43.75,24.86-85.84,55.49-119.13.14-.13.35-.14.5-.02.15.12.19.33.1.5-3.23,4.78-6.62,9.68-10.17,14.7-9.6,13.6-16.09,29.52-22.19,47.5-.1.29-.1.57,0,.86l82.66,260.02c.2.65-.04,1.35-.6,1.73-63.16,42.58-145.16,50.47-216.14,22.46-60.72-23.96-110.37-68.33-140.65-125.87-1.34-2.55-11.99-24.2-10.68-25.31.09-.08.2-.1.31-.08.11.03.2.1.25.21,36.26,84.08,108.65,143.54,199.36,159.5,42.68,7.52,84.27,3.86,124.75-10.97.39-.14.61-.55.52-.95l-41.25-177.81c-.06-.28-.31-.48-.6-.48ZM303.24,303.23c-.02.08,0,.16.05.22.05.06.13.1.21.1l18.7-.37c.08,0,.15-.04.2-.1.05-.06.07-.14.05-.22l-8.87-39.39c-.03-.11-.13-.19-.25-.2-.12,0-.22.07-.25.19l-9.84,39.76Z"/>
      <path class="cls-2" d="M479.24,158.01c.19-.13.83.49,1.41,1.37.59.89.9,1.71.71,1.84-.19.13-.83-.49-1.41-1.37-.59-.89-.9-1.71-.71-1.84Z"/>
      <path class="cls-2" d="M350.14,182.68c-7.34,7.86-13.97,16.42-18.98,25.97-.4.77-.76.87-1.08.3-.07-.12-.07-.26-.03-.4,4.01-10,8.51-19.53,13.49-28.57.23-.42.92-1.02,2.06-1.81.3-.21.61-.22.92-.02l3.33,2.16c.39.25.64.66.69,1.12.05.46-.1.92-.41,1.25Z"/>
      <path class="cls-2" d="M259.24,268.91c-5.37-2.21-9.94-.98-14.09,3.19-10.1,10.17-11.46,26.71-8.6,40,2.26,10.52,10.5,19.53,22.02,17.46,4.52-.81,8.12-3.22,10.79-7.23,3.82-5.74,6.63-19.65.34-25.06-7.44-6.39-19.08-1.24-25.08,4.86-.33.33-.51.27-.56-.2-.02-.26.07-.52.28-.76,6.31-7.31,14.75-12.05,24.4-8.44,10.16,3.8,9.8,18.76,6.8,27.08-2.92,8.08-8.02,13.12-15.31,15.11-11.05,3.02-22.15-1.58-27.72-11.74-6.98-12.74-6.57-28.71-2.63-42.48,2.76-9.65,8.32-19.67,17.63-23.53,11.31-4.69,24.49,1.69,26.4,14.22.11.74-.21,1.12-.95,1.13l-8.53.18c-.29,0-.54-.09-.75-.29-1.5-1.41-2.58-2.75-4.45-3.51Z"/>
      <path class="cls-2" d="M174.57,291.17c-.4.14-.69.5-.71.93-.73,11.94,1.7,39.41,18.23,40.47,14.99.95,21.11-14.94,24.04-26.53.14-.56.39-.57.76-.05.18.26.22.78.12,1.58-1.07,8.56-3.77,18.9-11.09,24.38-6.5,4.88-15.17,6.39-22.43,2.45-8.05-4.38-13.03-14.93-14.88-24.01-3.33-16.31-.38-30.92,8.86-43.82,4.35-6.07,11.58-9.59,19.16-8.87,14.27,1.37,19.37,14.94,17.69,27.72-.35,2.68-1.62,3.71-4.2,3.88-10.55.69-21.1,1.27-31.67,1.74-.87.04-2.77-.23-3.87.13ZM176.39,281.75l28.75-1.71c.15,0,.29-.08.39-.19.1-.11.15-.26.14-.41-.46-8.64-7.25-13.55-15.47-12.3-7.3,1.12-11.65,7.45-14.19,14.07-.15.38-.02.56.39.53Z"/>
      <path class="cls-2" d="M390.58,315.04c4.95-8.48,13.22-16.42,23.87-14.88,13.42,1.96,15.23,21.06,14.52,31.88-.83,12.72-1.98,25.76-3.44,39.12-.02.1-.11.18-.22.18-.11,0-.2-.07-.22-.18-.1-.69-.16-1.43-.17-2.23-.22-13.05.21-25.52-1.36-39.05-.77-6.59-3.1-11.87-7.01-15.84-11.26-11.43-26.6,8.42-26.66,18.64-.09,14.11-.31,26.34-.66,36.68-.09,2.65-8.42,2.73-8.32-.15.8-22.4-.5-45.39-.46-66.18,0-1.67.23-3.46.66-5.38.09-.37.32-.55.69-.56l7.43-.11c.43,0,.65.2.65.63l.23,17.29c0,.11.07.22.18.24.11.03.23-.02.28-.12Z"/>
      <path class="cls-2" d="M470.18,308.91c-10.53-5.11-19.24,4.17-23.15,12.78-5.65,12.43-7.41,37.65,7.04,45.69,7.72,4.3,15.86-1.5,20.14-8.37,9.4-15.1,8.19-34.6.28-49.95-.1-.15-.06-.35.09-.46.15-.1.35-.06.46.09,11.67,13.33,9.91,36.11,3.61,51.47-2.53,6.16-8.22,13.31-15.35,14.73-10.36,2.05-20.37-5.63-23.75-15.11-6.64-18.58-4.21-54.79,19.62-60.74,5.55-1.39,10.66-.27,15.31,3.35.48.37.77.93.79,1.54.02.6-.23,1.19-.68,1.59l-3.66,3.29c-.22.21-.47.24-.74.1Z"/>
      <path class="cls-2" d="M43.95,318.14c-.19,1.67-.46,3-.81,3.99-1.88,5.3-3.44,10.69-4.68,16.17-1.11,4.95-13.86-3.32-15.19-4.58-3.39-3.22-6.26-9.54-3.45-14.04,1.07-1.72,2.99-1.88,4.79-1.07,1.92.88,3.62,2.13,5.09,3.77,0,.63.27,1.21.82,1.75.31.31.46.25.46-.19,0-5.54,2.09-9.84,6.27-12.9,3.7-2.71,6.65-.21,6.66,3.87,0,1.07.02,2.15.04,3.23ZM25.77,321.93c-.7-1.45-1.91-1.89-3.62-1.31-.27.09-.44.28-.52.55-2.11,7.3,3.88,10.62,8.48,14.42,1.86,1.53,3.92,1.99,6.19,1.38.42-.46.67-.78.73-.96,2.76-7.67,4.68-13.99,5.77-18.95.6-2.75-.4-4.37-2.97-4.85-.3-.06-.57,0-.81.19-4.26,3.22-6.51,7.56-6.77,13.02-.02.45-.13.75-.31.89-.2.16-.44.24-.67.24s-.42-.09-.54-.24c-1.4-1.85-3.05-3.3-4.95-4.37Z"/>
      <path class="cls-2" d="M58.95,337.7c-.57,4.07-2.31,8.89-6.36,10.41-2.17.82-3.67-.63-4.46-2.6-1.81-4.51-1.45-8.83,1.07-12.96,3.58-3.2,8.65-3.08,9.4,2.28.13.96.25,1.92.35,2.88ZM50.37,346.62c1.97,1.09,3.13.54,3.51-1.68,2.32-2.93,3.23-6.28,2.74-10.05-.23-1.75-1.6-2.82-3.39-2.25-5.54,1.77-4.43,9.86-2.86,13.98Z"/>
      <path class="cls-2" d="M73.24,343.01c.41,1.06.85,2.1,1.31,3.12,3.02,6.63-3.02,22.76-12.36,18.88-3.85-6-4.44-12.16-1.76-18.48,2.52-5.95,7.67-5.61,12.8-3.52ZM61.99,355.75c-.22,1.71.2,9.25,3.68,8.06,5.74-1.97,11.09-16.48,4.43-19.82-4.42-.93-7.11,1.03-8.07,5.86-.48,2.4-.49,4.37-.03,5.9Z"/>
      <path class="cls-2" d="M37.97,349.51c1.3,7.43-4.83,6.53-9.47,4.98-3.85-1.28-5.9-3.96-6.14-8.04,1.52-3.02,3.79-4.23,6.81-3.64,3.59.7,6.52,2.94,8.8,6.69ZM24.75,348.56c-.15,1.44.64,2.52,2.35,3.24,1.76.74,9.95,3.76,9.94.64-.95-4-3.39-6.61-7.32-7.84-2.42-.76-6.99.82-4.98,3.96Z"/>
      <path class="cls-2" d="M92.84,356.76c9.02,11.16.83,26.31-10.13,32.19-1.35.62-2.72.59-4.12-.09-.25-.12-.44-.31-.57-.57-3.94-7.95-4.19-16.04-.76-24.26,2.59-6.19,8.82-10.33,15.57-7.27ZM83.28,360.07c-2.44,1.39-4.06,3.38-4.85,5.98-1.1,3.63-1.42,7.5-.95,11.6.32,2.77.69,4.64,1.13,5.61l.43,3.43c.06.5.37.93.82,1.16.45.22.98.21,1.42-.05,5.2-3.03,9.64-8.11,11.82-13.47,1.56-3.84,2.29-14.11-3.09-15.91-2.42-.8-4.66-.26-6.72,1.64Z"/>
      <path class="cls-2" d="M46.61,371.06c.92,3.44-.51,5.33-4.29,5.67-6.2.57-15.26-.54-18.07-6.72-1.28-2.81-.73-5.83,1.64-9.06.33.51.43.7,1.01.39,7.55-4.11,16.33,3.21,19.71,9.72ZM26.42,364.58c-1.65,4.12-.35,6.87,3.9,8.25,4.53,1.47,9.13,2.01,13.82,1.62.51-.05.92-.45.97-.95.05-.53-.11-.88-.47-1.05-2.53-5.61-6.82-8.9-12.86-9.88-2.12-.34-3.91.33-5.36,2.01Z"/>
      <path class="cls-2" d="M108.48,384.3c12.12,2.97,6.45,14.33.35,19.44-3,2.5-4.96,4.18-5.9,5.02-3,1.55-9.31,4.36-10.8-.85-3.32-11.54,4.6-22.4,16.35-23.61ZM100.67,389.28c-4.39,3.08-6.73,7.34-7.03,12.8l.06,4.8c0,.64.32,1.24.85,1.61.52.37,1.19.46,1.8.25,5.83-2.05,16.39-8.74,17.05-15.67.77-8.12-8.35-6.94-12.73-3.78Z"/>
      <path class="cls-2" d="M60.14,400.84c-8.41,3.07-26.47,3.87-26.83-9.69,3.63-16.3,35.38,1.31,26.83,9.69ZM36.55,395.01c1.33,4.33,8.22,5.61,11.8,4.86,3.62.42,6.98.16,10.11-.77.51-.15.91-.54,1.09-1.04.18-.5.11-1.06-.19-1.5-3.63-5.4-14.55-12.77-20.93-8.89-2.77,1.69-3.39,4.14-1.88,7.34Z"/>
      <path class="cls-2" d="M78.16,419.5c.63,1.61.61,2.85-.07,3.71-4.49,5.79-10.23,8.85-17.2,9.2-7.61.37-16.74-6.7-10.38-14.45.11-.14.18-.3.19-.48l.03-.55h.31c.14,0,.26-.05.36-.15,8.06-8.07,18.87-3.29,26.76,2.73ZM52.5,419.6c-2.03,3.32-1.5,6.08,1.61,8.28,6.88,4.89,17.23-.72,22.71-5.59.15-.13.24-.32.24-.53s-.09-.39-.24-.53l-.55-.49c.03-.22,0-.38-.11-.46-6.19-4.99-18.07-9.08-23.65-.69Z"/>
    </g>
    <g>
      <path class="cls-3" d="M297.07,11.43c-2.72-3.01-6.01-4.55-9.86-4.62-12.35-.25-23.06,10.22-27.72,20.99-.82,1.9-1.59,4.56-2.3,7.99-.75-16.98,6.33-28.43,21.22-34.33,6.43-2.55,25.69-3.09,18.66,9.98Z"/>
      <path class="cls-3" d="M295.18,14.23c-5.9,4.69-12.34,6.78-21.9,10.81-4.72,1.99-9.35,5.18-13.9,9.59,3.18-10.5,9.59-18.29,19.23-23.36,4.65-2.45,13.42-3.03,16.56,2.96Z"/>
      <path class="cls-3" d="M191.2,47.21c.76-.81,1.19-1.4,1.29-1.75,2.42-8.6,5.88-16.82,10.39-24.66,3.57-3,7.34-4.3,11.31-3.9,2.49.26,3.58,2.98,2.94,5.29-3.42,12.21-19.44,19.08-25.79,26.73-.26.31-.43.27-.51-.12-.13-.58,0-1.11.37-1.57Z"/>
      <path class="cls-3" d="M371.79,23.96c2.18.57,4.2,1.44,6.06,2.63,5.52,3.53,7.52,11.1.09,14.14,3.76-6.69-.15-13.44-6.14-16.77Z"/>
      <path class="cls-3" d="M365.02,41.84c-9.35-.35-18.26-2.14-27.73,1.12-.34.11-.43.01-.26-.31,4.99-9.38,16.53-19.08,27.76-17.54,12.6,1.73,18.47,17.43.23,16.73Z"/>
      <path class="cls-3" d="M327.65,76.66c-1.22,7.84-9.21,8.82-15.05,4.87-10.73-7.24-22.54-27.04-20.59-40.15.83-.15,1.58-.04,2.25.34.26.14.42.36.47.64,1.8,8.86,5.72,17.43,11.75,25.71,5.48,7.53,12.53,10.39,21.17,8.58Z"/>
      <path class="cls-3" d="M311.58,52.39c5.98,5.52,11.01,11.82,15.08,18.88-.11,5.22-6.83,3.17-9.44,1.66-10.8-6.26-16.52-19.11-20.26-29.95-.13-.38-.03-.46.3-.23l14.32,9.64Z"/>
      <path class="cls-3" d="M225.77,48.29c2.64,1.5,4.79,2.35,6.45,2.57,6.34.84,12.45,2.46,18.35,4.84,4.15,1.68,7.23,7.28,1.82,9.74-11.23,1.25-24.62-9.4-30.71-17.59-.3-.41-.21-.55.28-.44l3.81.89Z"/>
      <path class="cls-3" d="M237.26,65.27c-8.03-1.51-20.75-6.58-22.97-15.92l4.04-1.1c.3-.09.54,0,.71.28,4.51,7.27,10.58,12.85,18.22,16.75Z"/>
      <path class="cls-3" d="M443.9,74.67c.45-8.53-6.1-12.82-13.54-14.24-3.42-.65-7.6-.23-11.42-.34,7.32-2.17,14.34-2.26,21.06-.27,5.78,1.71,15.96,11.49,3.89,14.84Z"/>
      <path class="cls-3" d="M372.72,77.24c-1.82-5.14-2.61-10.45-2.36-15.92,1.34-1.03,2.05.17,2.02,1.39-.14,4.85-.02,9.7.34,14.53Z"/>
      <path class="cls-3" d="M385.34,75.66c3.63,5.96,9.13,13.32,9.77,20.06.23,2.36-.84,4.47-3.22,6.33-1.65-.23-2.86-.64-3.63-1.22-10.6-7.92-12.98-25-13.6-37.1-.02-.32.08-.36.28-.12l10.4,12.05Z"/>
      <path class="cls-3" d="M439,75.69c-2.42-.32-5.02-.33-7.25-.63-7.44-1.01-14.95-1.61-22.52-1.81l-5.35-.76c-.17-.02-.31-.15-.36-.31-.04-.17.01-.34.15-.45,8.82-7.05,18.79-9.2,29.92-6.45,3.91.97,10.58,7.07,5.41,10.42Z"/>
      <path class="cls-3" d="M404.72,66.72l-3.92,5.56c-.17.24-.39.31-.66.2-.3-.13-.5-.4-.58-.82,1.35-2.05,3.07-3.69,5.16-4.94Z"/>
      <path class="cls-3" d="M179.8,68.44c9.88,2.17,22.78,4.6,28.39,14.53-3.4,2.32-7.11,2.83-11.13,1.53-9.9-3.21-20.18-9.82-28.13-16.48-.3-.25-.26-.38.14-.4,3.63-.13,7.21.15,10.73.82Z"/>
      <path class="cls-3" d="M204.99,88.85c-5.71,1.89-11.19,1.79-16.43-.29-7.75-3.09-19.56-11.22-23.6-18.61-.06-.52.15-.82.64-.91.29-.06.59.03.81.25,6.93,7.01,14.9,12.46,23.9,16.35,4.88,2.11,9.77,3.19,14.68,3.21Z"/>
      <path class="cls-3" d="M429.48,99.57c2.53,6.3,5.05,12.15,7.55,17.57,1.65,3.59,6.63,17.81.14,18.74-4.91.7-8.44-8.63-9.13-12.17-1.62-8.28-1.22-16.32,1.19-24.13.02-.05.06-.09.11-.09.05,0,.1.03.13.07Z"/>
      <path class="cls-3" d="M476.81,124.83c-10.05.21-15.21-7.24-24.35-8.65-.47-.07-.5-.23-.09-.47,7.4-4.37,22.48-6.39,27.93,2.41,2.18,3.53.67,6.62-3.5,6.7Z"/>
      <path class="cls-3" d="M483.18,118.1c2.02,4.86,1.29,9.91-5.46,8.95,4.43-1.08,6.25-4.06,5.46-8.95Z"/>
      <path class="cls-3" d="M425.87,127.94c1.21,2.8,2.86,5.25,4.95,7.34,3.58,3.58,7.84,4.23,10.75-.55-.21,3.13-1.66,4.96-4.35,5.48-6.16,1.19-10.56-7.5-11.35-12.27Z"/>
      <path class="cls-3" d="M462.34,133.72c.46.12.77.35.95.69.14.28.11.53-.09.76-6.07,7.28-8.52,15.69-7.34,25.22-6.71-7.4-5.2-18.79,1.79-25.09,1.09-.98,2.66-1.51,4.69-1.59Z"/>
      <path class="cls-3" d="M463.91,147.88c-.41,3.86-.72,7.67-.93,11.44-.07,1.31-.86,2.46-2.36,3.47-.49.02-.84-.15-1.06-.52-4.03-7.03-.15-18.16,3.64-24.51.05-.09.15-.13.24-.1.09.03.15.12.14.22-.24,3.37-.13,6.71.32,9.99Z"/>
      <path class="cls-3" d="M491.08,149.05c-1.8,5.84-15.08-3.62-18.17-5.2-.09-.05-.14-.14-.13-.24,0-.1.07-.18.17-.22,6.46-2.24,13.78-3.39,17.98,3.43.37.61.42,1.35.15,2.23Z"/>
      <path class="cls-3" d="M493.26,147.51c.7,6.26-4.87,8.04-8.97,4.45,4.55,1.74,7.54.26,8.97-4.45Z"/>
      <path class="cls-3" d="M477.2,156.1c.16-.03.3-.03.42,0,.3.08.41.27.34.58-1.76,7.31-.31,13.57,4.35,18.77,1.29,1.43,2.64,2.16,4.06,2.18,2.21.03,3.83-1.25,4.86-3.87.34,3.74-.58,6.78-2.74,9.12-1.23,1.32-3.7,1.61-5.05.68-7.72-5.28-9.14-19.1-6.25-27.46Z"/>
      <path class="cls-3" d="M479.53,157.2c4.75,3.23,8.18,6.69,9.93,12.3.78,2.51.48,8.85-4.06,7.13-6.2-2.34-7.56-13.75-6.53-19.16.08-.44.3-.53.67-.27ZM481.36,161.22c.19-.13-.12-.95-.71-1.84-.59-.89-1.22-1.5-1.41-1.37-.19.13.12.95.71,1.84.59.89,1.22,1.5,1.41,1.37Z"/>
      <path class="cls-1" d="M43.95,318.14c-.02-1.08-.04-2.16-.04-3.23,0-4.08-2.96-6.57-6.66-3.87-4.18,3.06-6.27,7.36-6.27,12.9,0,.44-.15.5-.46.19-.54-.54-.82-1.12-.82-1.75,1-5.95,3.34-13.81,7.68-17.25,3.34-2.66,7.06-.7,7.76,3.32.54,3.15.15,6.38-1.19,9.69Z"/>
      <path class="cls-1" d="M36.3,336.96c-3.57-.76-15.98-9.02-12.78-13.86.52-.77,1.27-1.17,2.25-1.18,1.9,1.07,3.55,2.53,4.95,4.37.12.16.32.24.54.24s.47-.09.67-.24c.18-.14.29-.43.31-.89.26-5.46,2.52-9.8,6.77-13.02.24-.18.51-.25.81-.19,2.58.48,3.57,2.1,2.97,4.85-1.08,4.96-3.01,11.28-5.77,18.95-.06.18-.31.5-.73.96Z"/>
      <path class="cls-1" d="M58.95,337.7c-.1-.96-.22-1.92-.35-2.88-.75-5.35-5.82-5.47-9.4-2.28,4.11-8.28,16.88-6.26,9.75,5.16Z"/>
      <path class="cls-1" d="M53.88,344.95l-3.51,1.68c-1.57-4.13-2.68-12.21,2.86-13.98,1.79-.57,3.15.5,3.39,2.25.49,3.78-.42,7.13-2.74,10.05Z"/>
      <path class="cls-1" d="M37.97,349.51c-2.28-3.76-5.21-5.99-8.8-6.69-3.02-.6-5.29.62-6.81,3.64-1.73-2.84-4.22-6.39.4-8.35.92-.4,2.26-.34,4.03.18,5.79,1.67,9.52,5.41,11.17,11.23Z"/>
      <path class="cls-1" d="M62.2,365.02c9.34,3.88,15.37-12.25,12.36-18.88-.46-1.02-.9-2.06-1.31-3.12,17-3.12-2.61,30.27-11.04,22Z"/>
      <path class="cls-1" d="M37.05,352.43c-4.42-.24-8.52-1.53-12.3-3.88-2.01-3.14,2.55-4.72,4.98-3.96,3.94,1.23,6.38,3.84,7.32,7.84Z"/>
      <path class="cls-1" d="M70.1,343.99c6.66,3.33,1.31,17.85-4.43,19.82-3.48,1.19-3.9-6.35-3.68-8.06,1.63-4.46,4.33-8.38,8.1-11.76Z"/>
      <path class="cls-1" d="M46.61,371.06c-3.39-6.51-12.16-13.83-19.71-9.72-.58.32-.68.12-1.01-.39,3.25-4.8,7.32-6.04,12.2-3.72,4.32,2.05,13.36,7.9,8.52,13.83Z"/>
      <path class="cls-1" d="M92.84,356.76c11.87,3.8,3.57,19.88-.83,25.83-2.57,3.47-5.67,5.59-9.3,6.36,10.96-5.89,19.16-21.03,10.13-32.19Z"/>
      <path class="cls-1" d="M78.61,383.27c.54-4.63.19-9.76,1.07-13.74.73-3.27,1.93-6.42,3.59-9.45,2.06-1.9,4.3-2.44,6.72-1.64,5.39,1.8,4.66,12.07,3.09,15.91-2.17,5.35-6.62,10.44-11.82,13.47-.43.25-.97.27-1.42.05-.45-.22-.76-.66-.82-1.16l-.43-3.43Z"/>
      <path class="cls-1" d="M44.64,372.45c-7.25-.45-13.35-2.3-18.22-7.87,1.45-1.68,3.24-2.35,5.36-2.01,6.04.98,10.32,4.27,12.86,9.88Z"/>
      <path class="cls-1" d="M60.14,400.84c8.55-8.37-23.2-25.99-26.83-9.69-4.76-6.69.9-12.45,7.92-11.19,7.4,1.33,13.64,4.88,18.73,10.63,2.17,2.46,5.79,9.11.18,10.24Z"/>
      <path class="cls-1" d="M102.93,408.76c.93-.84,2.9-2.52,5.9-5.02,6.1-5.11,11.77-16.47-.35-19.44,6.51-2.41,9.69,1.52,9.32,7.61-.55,8.83-6.93,14.01-14.86,16.84Z"/>
      <path class="cls-1" d="M48.35,399.86c-4.28-.9-8.21-2.52-11.8-4.86-1.51-3.2-.89-5.65,1.88-7.34,6.38-3.88,17.3,3.49,20.93,8.89.3.44.37,1,.19,1.5-.18.5-.58.89-1.09,1.04-3.12.93-6.49,1.19-10.11.77Z"/>
      <path class="cls-1" d="M93.64,402.08c1.67-4.64,4.01-8.91,7.03-12.8,4.37-3.15,13.5-4.34,12.73,3.78-.66,6.93-11.22,13.62-17.05,15.67-.61.21-1.27.12-1.8-.25-.52-.37-.84-.97-.85-1.61l-.06-4.8Z"/>
      <path class="cls-1" d="M78.16,419.5c-7.89-6.02-18.7-10.8-26.76-2.73-.1.1-.22.15-.36.15h-.31c-1.09-3.94-.33-6.83,2.28-8.66,6.29-4.43,18.75-.34,23.56,4.86,1.5,1.63,2.03,3.76,1.59,6.39Z"/>
      <path class="cls-1" d="M76.26,420.75c-8.96,3.03-15.82,5.6-23.76-1.15,5.58-8.39,17.46-4.31,23.65.69.11.09.15.24.11.46Z"/>
    </g>
  </g>
</svg>