<?xml version="1.0" encoding="UTF-8"?>
<svg id="Layer_1" data-name="Layer 1" xmlns="http://www.w3.org/2000/svg" viewBox="0 0 512 512">
  <defs>
    <style>
      .cls-1 {
        fill: #000;
        stroke-width: 0px;
      }
    </style>
  </defs>
  <path class="cls-1" d="M287.21,6.81c-12.35-.25-23.06,10.22-27.72,20.99-.82,1.9-1.59,4.56-2.3,7.99-.07.58-.46.91-1.17.97-21.77,1.96-42.7,6.74-62.8,14.33-.29.11-.61,0-.76-.27-.15-.27-.08-.6.16-.79,6.51-5.03,12.89-10.16,19.14-15.39,4.22-3.53,8.1-8.25,8.48-13.8.4-5.74-4.14-8.48-9.46-7.35-17.28,3.7-24.71,22.91-21.54,38.73.04.19-.06.38-.24.45-48.63,19.47-88.57,54.49-115.52,99.16-2.09,3.46-5.63,9.58-10.62,18.37-.52.91-.47,1.49-.04,2.38,26.98,55.28,54.31,110.4,81.99,165.38.2.41.65.64,1.1.58l7.68-1.06c.52-.07.91-.5.93-1.02.78-18.66,2.23-37.49,4.87-56.04,3.67-25.73,9.09-44.38,16.15-70.17,7.08-25.84,17.88-49.85,32.41-72.01,3.75-5.73,8.94-11.54,15.56-17.42.17-.15.18-.31.03-.48-.69-.79-7.73,5.96-9.03,7.29-12.4,12.76-21.92,26.69-30.73,42.06-13.93,24.29-21.12,49.28-28.77,75.13-2.05,6.93-3.81,14.39-5.28,22.36-.01.07-.06.13-.12.16-.07.03-.15.02-.21-.02-.5-.32-.88-.8-1.14-1.46-18.32-45.67-36.79-91.3-55.42-136.89-.16-.39-.09-.84.18-1.17,20.1-23.73,43.89-43.06,71.36-58.01.17-.1.37-.04.58.16-.06-.52.15-.82.64-.91.29-.06.59.03.81.25,6.93,7.01,14.9,12.46,23.9,16.35,4.88,2.11,9.77,3.19,14.68,3.21,9.07-4.33,8.3-11.89.77-17.14-8.83-6.15-21.45-5.84-31.75-6.14-.19,0-.36-.14-.4-.33s.05-.38.23-.47c13.13-6.39,26.61-11.54,40.44-15.43l4.04-1.1c.3-.09.54,0,.71.28,4.51,7.27,10.58,12.85,18.22,16.75,6.07,3.06,21.12,7.79,22.15-2.71,1.17-11.86-23.88-15.37-31.48-15.89-.2,0-.36-.17-.37-.36s.12-.38.31-.42c21.13-4.42,42.52-5.93,64.14-4.51.83-.15,1.58-.04,2.25.34.26.14.42.36.47.64,1.8,8.86,5.72,17.43,11.75,25.71,5.48,7.53,12.53,10.39,21.17,8.58,8.88-15.64-16.66-26.79-26.3-33.62-.17-.11-.24-.33-.17-.52.07-.19.27-.31.47-.28,23.01,2.64,45.33,8.46,66.95,17.48,1.01.42,1.6.96,1.76,1.6,1.34-1.03,2.05.17,2.02,1.39-.14,4.85-.02,9.7.34,14.53,1.87,9.18,6.69,24.38,16.91,27.58,5.23,1.62,10.04-2.12,10.07-7.59.09-12.94-11.79-22.97-19.63-31.8-.53-.6-.44-.72.27-.36,16.68,8.52,32.22,18.78,46.6,30.78.25.21.34.55.23.85-3.71,10.42-4.15,20.83-1.31,31.24,1.21,2.8,2.86,5.25,4.95,7.34,3.58,3.58,7.84,4.23,10.75-.55,3.96-10.96-5.23-23.45-9.01-33.45-.16-.43-.07-.49.27-.19,10.77,9.69,20.57,20.26,29.4,31.7.15.2.19.5.12.92.46.12.77.35.95.69.14.28.11.53-.09.76-6.07,7.28-8.52,15.69-7.34,25.22.89,2.26,1.63,3.68,2.23,4.24,3.23,3.04,6.4,1.53,7.64-2.23,2.24-6.84-.45-16.46-.7-23.55,0-.31.19-.59.48-.68.29-.1.62.02.79.27,2.27,3.37,10.89,14.88,10.91,17.66.16-.03.3-.03.42,0,.3.08.41.27.34.58-1.76,7.31-.31,13.57,4.35,18.77,1.29,1.43,2.64,2.16,4.06,2.18,2.21.03,3.83-1.25,4.86-3.87.07-9.08-4.15-15.3-12.67-18.67-.29-.11-.52-.3-.68-.57l-4.72-7.74c-.11-.17-.08-.39.07-.53.15-.14.37-.15.53-.04,3.54,2.47,7.04,4.39,10.51,5.75,4.55,1.74,7.54.26,8.97-4.45-5.35-9.29-12.73-11.03-22.16-5.21-.26.15-.59.08-.76-.16-5.25-7.83-10.9-15.36-16.93-22.59-.34-.41-.25-.59.28-.54,1.18.11,2.3.49,3.36,1.12,6.17,3.65,13.11,7.39,20.67,6.93,4.43-1.08,6.25-4.06,5.46-8.95-5.41-7.53-12.88-10.51-22.41-8.95-3.6.59-7.12,2.47-10.55,5.65-.12.11-.28.17-.44.16-.16,0-.32-.08-.42-.21-12.97-14.83-27.61-27.78-43.92-38.83-.15-.12-.2-.33-.11-.5.09-.17.29-.25.48-.19,9.05,3.63,31.67,10.86,38.11-.57.45-8.53-6.1-12.82-13.54-14.24-3.42-.65-7.6-.23-11.42-.34-5.28,1.08-10.02,3.29-14.21,6.63l-3.92,5.56c-.17.24-.39.31-.66.2-.3-.13-.5-.4-.58-.82-.84-.23-1.89-.73-3.15-1.51-17.4-10.7-35.87-19.05-55.41-25.05-.16-.04-.27-.19-.24-.35.02-.16.17-.28.33-.27,7.67-.09,15.28.23,22.83.95,5.49.53,10.17-1.04,14.03-4.7,3.76-6.69-.15-13.44-6.14-16.77-15.62-6.84-31.15,4.36-37.37,18.43-.21.47-.72.72-1.22.59-23.04-5.92-46.44-8.16-70.22-6.71-.24.02-.46-.15-.51-.39-.05-.24.09-.47.32-.54,5.43-1.84,10.78-3.43,16.04-4.76,8.06-2.04,21.73-8.51,18.23-19.15-2.72-3.01-6.01-4.55-9.86-4.62ZM278.62,11.27c4.65-2.45,13.42-3.03,16.56,2.96.02,8.65-14.81,13.64-21.12,14.99-5.29,1.13-9.84,2.98-13.66,5.53-.42.28-.61.15-1.01-.12,3.18-10.5,9.59-18.29,19.23-23.36ZM214.19,16.89c2.49.26,3.58,2.98,2.94,5.29-3.42,12.21-19.44,19.08-25.79,26.73-.26.31-.43.27-.51-.12-.13-.58,0-1.11.37-1.57-.09,0-.17-.01-.25-.03-.17-.02-.25-.12-.24-.28.12-2.97.5-5.88,1.13-8.73,1.6-7.18,5.28-12.98,11.03-17.38,3.57-3,7.34-4.3,11.31-3.9ZM337.03,42.65c4.99-9.38,16.53-19.08,27.76-17.54,12.6,1.73,18.47,17.43.23,16.73-9.35-.35-18.26-2.14-27.73,1.12-.34.11-.43.01-.26-.31ZM317.23,72.93c-10.8-6.26-16.52-19.11-20.26-29.95-.13-.38-.03-.46.3-.23l14.32,9.64c3.87,2.21,7.87,5.48,11.98,9.81,2.6,2.74,3.64,5.77,3.1,9.07-.11,5.22-6.83,3.17-9.44,1.66ZM221.68,47.84c-.3-.41-.21-.55.28-.44l3.81.89c6.99.92,11.93,1.77,14.83,2.54,4.68,1.24,19.22,5.86,15.75,12.81-.7,1.4-2.02,2-3.96,1.79-11.23,1.25-24.62-9.4-30.71-17.59ZM388.26,100.83c-10.6-7.92-12.98-25-13.6-37.1-.02-.32.08-.36.28-.12l10.4,12.05c4.16,4.23,7.4,8.92,9.72,14.07.78,1.72,1.33,3.72,1.65,6,.58,4.1-1.03,6.21-4.82,6.33-1.65-.23-2.86-.64-3.63-1.22ZM403.87,72.49c-.17-.02-.31-.15-.36-.31-.04-.17.01-.34.15-.45,8.82-7.05,18.79-9.2,29.92-6.45,3.91.97,10.58,7.07,5.41,10.42-4.96,3.64-14.29,1.78-20.43.4-3.94-.88-7.05-1.82-9.34-2.84l-5.35-.76ZM197.05,84.5c-9.9-3.21-20.18-9.82-28.13-16.48-.3-.25-.26-.38.14-.4,3.63-.13,7.21.15,10.73.82,2.64-.23,6.3-.08,10.97.46,4.46.52,8.81,2.11,13.04,4.77,3.59,2.26,5.05,5.37,4.38,9.31-3.4,2.32-7.11,2.83-11.13,1.53ZM437.04,117.14c1.65,3.59,6.63,17.81.14,18.74-4.91.7-8.44-8.63-9.13-12.17-1.62-8.28-1.22-16.32,1.19-24.13.02-.05.06-.09.11-.09.05,0,.1.03.13.07,2.53,6.3,5.05,12.15,7.55,17.57ZM452.38,115.72c7.4-4.37,22.48-6.39,27.93,2.41,2.18,3.53.67,6.62-3.5,6.7-10.05.21-15.21-7.24-24.35-8.65-.47-.07-.5-.23-.09-.47ZM459.56,162.28c-4.03-7.03-.15-18.16,3.64-24.51.05-.09.15-.13.24-.1.09.03.15.12.14.22-.24,3.37-.13,6.71.32,9.99.9,4.83,1.01,9.26.33,13.28-.34,2-1.46,2.91-3.36,2.71-.3-.03-.46-.2-.47-.51,0-.27.07-.46.21-.57-.49.02-.84-.15-1.06-.52ZM472.79,143.61c0-.1.07-.18.17-.22,6.46-2.24,13.78-3.39,17.98,3.43.37.61.42,1.35.15,2.23-1.8,5.84-15.08-3.62-18.17-5.2-.09-.05-.14-.14-.13-.24ZM485.39,176.63c-6.2-2.34-7.56-13.75-6.53-19.16.08-.44.3-.53.67-.27,4.75,3.23,8.18,6.69,9.93,12.3.78,2.51.48,8.85-4.06,7.13ZM325.21,314.27l41.25,177.81c.09.4-.13.81-.52.95-40.48,14.83-82.07,18.49-124.75,10.97-90.71-15.96-163.1-75.42-199.36-159.5-.04-.1-.13-.18-.25-.21-.11-.03-.23,0-.31.08-1.31,1.11,9.34,22.76,10.68,25.31,30.28,57.54,79.92,101.91,140.65,125.87,70.99,28.01,152.99,20.12,216.14-22.46.56-.38.81-1.08.6-1.73l-82.66-260.02c-.09-.29-.09-.57,0-.86,6.1-17.98,12.59-33.89,22.19-47.5,3.55-5.02,6.94-9.93,10.17-14.7.09-.17.05-.38-.1-.5-.15-.12-.37-.11-.5.02-30.63,33.28-45.5,75.38-55.49,119.13-6.05,26.5-12.8,52.37-22.35,77.86-9,24.01-21.54,46-37.62,65.96-.23.28-.29.59-.17.94.02.05.06.09.11.1.05.01.1,0,.14-.03,6.95-6.39,13.13-13.42,18.54-21.09,15.31-21.73,30.08-48.5,38.25-76.4.1-.32.31-.48.64-.48l24.11.02c.29,0,.54.2.6.48ZM313.08,263.46c.03-.11.14-.19.25-.19.12,0,.22.08.25.2l8.87,39.39c.02.08,0,.16-.05.22-.05.06-.12.1-.2.1l-18.7.37c-.08,0-.16-.03-.21-.1-.05-.06-.07-.14-.05-.22l9.84-39.76ZM479.95,159.84c.59.89,1.22,1.5,1.41,1.37.19-.13-.12-.95-.71-1.84-.59-.89-1.22-1.5-1.41-1.37-.19.13.12.95.71,1.84ZM350.55,181.42c-.06-.46-.31-.87-.69-1.12l-3.33-2.16c-.31-.2-.62-.2-.92.02-1.15.79-1.83,1.39-2.06,1.81-4.98,9.05-9.48,18.57-13.49,28.57-.05.13-.04.27.03.4.32.57.68.47,1.08-.3,5.01-9.55,11.64-18.11,18.98-25.97.31-.34.46-.8.41-1.25ZM263.69,272.42c.21.2.46.3.75.29l8.53-.18c.75-.02,1.06-.4.95-1.13-1.91-12.53-15.09-18.92-26.4-14.22-9.32,3.86-14.88,13.88-17.63,23.53-3.94,13.77-4.35,29.73,2.63,42.48,5.57,10.16,16.66,14.76,27.72,11.74,7.29-1.99,12.39-7.02,15.31-15.11,3-8.32,3.36-23.28-6.8-27.08-9.65-3.61-18.09,1.13-24.4,8.44-.21.24-.3.49-.28.76.05.46.23.53.56.2,6-6.1,17.63-11.25,25.08-4.86,6.3,5.41,3.49,19.32-.34,25.06-2.68,4-6.27,6.41-10.79,7.23-11.52,2.06-19.76-6.94-22.02-17.46-2.85-13.29-1.5-29.83,8.6-40,4.14-4.17,8.71-5.4,14.09-3.19,1.87.76,2.96,2.11,4.45,3.51ZM178.44,291.04c10.56-.47,21.12-1.05,31.67-1.74,2.59-.17,3.85-1.2,4.2-3.88,1.68-12.78-3.42-26.36-17.69-27.72-7.58-.72-14.81,2.8-19.16,8.87-9.24,12.9-12.19,27.51-8.86,43.82,1.86,9.08,6.83,19.63,14.88,24.01,7.26,3.94,15.93,2.43,22.43-2.45,7.31-5.48,10.01-15.82,11.09-24.38.1-.8.06-1.32-.12-1.58-.37-.52-.62-.5-.76.05-2.93,11.59-9.05,27.48-24.04,26.53-16.53-1.06-18.96-28.53-18.23-40.47.03-.43.31-.79.71-.93,1.1-.36,3-.09,3.87-.13ZM176.01,281.22c2.54-6.62,6.89-12.95,14.19-14.07,8.22-1.25,15,3.66,15.47,12.3,0,.15-.04.29-.14.41-.1.11-.24.18-.39.19l-28.75,1.71c-.41.02-.54-.15-.39-.53ZM390.3,315.17c-.11-.03-.18-.13-.18-.24l-.23-17.29c0-.42-.22-.63-.65-.63l-7.43.11c-.37,0-.6.19-.69.56-.44,1.92-.66,3.71-.66,5.38-.04,20.79,1.25,43.78.46,66.18-.1,2.88,8.22,2.79,8.32.15.35-10.34.58-22.57.66-36.68.06-10.22,15.4-30.07,26.66-18.64,3.91,3.96,6.25,9.24,7.01,15.84,1.57,13.54,1.13,26.01,1.36,39.05.01.8.07,1.54.17,2.23.02.1.12.18.22.18.11,0,.2-.08.22-.18,1.46-13.35,2.61-26.39,3.44-39.12.7-10.82-1.1-29.92-14.52-31.88-10.65-1.55-18.92,6.39-23.87,14.88-.05.1-.17.15-.28.12ZM470.91,308.81l3.66-3.29c.45-.4.7-.99.68-1.59-.02-.61-.31-1.17-.79-1.54-4.66-3.62-9.76-4.74-15.31-3.35-23.83,5.95-26.26,42.16-19.62,60.74,3.39,9.48,13.39,17.15,23.75,15.11,7.12-1.42,12.82-8.57,15.35-14.73,6.3-15.36,8.06-38.14-3.61-51.47-.1-.15-.31-.19-.46-.09-.15.1-.19.31-.09.46,7.91,15.35,9.12,34.85-.28,49.95-4.27,6.87-12.42,12.67-20.14,8.37-14.45-8.04-12.68-33.26-7.04-45.69,3.91-8.61,12.62-17.89,23.15-12.78.27.14.52.1.74-.1ZM43.9,314.9c0-4.08-2.96-6.57-6.66-3.87-4.18,3.06-6.27,7.36-6.27,12.9,0,.44-.15.5-.46.19-.54-.54-.82-1.12-.82-1.75-1.47-1.64-3.17-2.9-5.09-3.77-1.8-.82-3.72-.65-4.79,1.07-2.8,4.5.07,10.82,3.45,14.04,1.33,1.26,14.09,9.53,15.19,4.58,1.23-5.48,2.79-10.87,4.68-16.17.35-.99.62-2.31.81-3.99-.02-1.08-.04-2.16-.04-3.23ZM30.72,326.3c.12.16.32.24.54.24s.47-.09.67-.24c.18-.14.29-.43.31-.89.26-5.46,2.52-9.8,6.77-13.02.24-.18.51-.25.81-.19,2.58.48,3.57,2.1,2.97,4.85-1.08,4.96-3.01,11.28-5.77,18.95-.06.18-.31.5-.73.96-2.26.61-4.33.15-6.19-1.38-4.61-3.8-10.6-7.12-8.48-14.42.08-.28.26-.46.52-.55,1.71-.58,2.92-.15,3.62,1.31,1.9,1.07,3.55,2.53,4.95,4.37ZM58.6,334.82c-.75-5.35-5.82-5.47-9.4-2.28-2.52,4.13-2.88,8.45-1.07,12.96.79,1.98,2.29,3.42,4.46,2.6,4.05-1.51,5.79-6.33,6.36-10.41-.1-.96-.22-1.92-.35-2.88ZM53.24,332.64c1.79-.57,3.15.5,3.39,2.25.49,3.78-.42,7.13-2.74,10.05-.37,2.21-1.54,2.77-3.51,1.68-1.57-4.13-2.68-12.21,2.86-13.98ZM60.44,346.54c-2.68,6.32-2.09,12.48,1.76,18.48,9.34,3.88,15.37-12.25,12.36-18.88-.46-1.02-.9-2.06-1.31-3.12-5.14-2.09-10.29-2.42-12.8,3.52ZM62.03,349.86c.96-4.84,3.65-6.79,8.07-5.86,6.66,3.33,1.31,17.85-4.43,19.82-3.48,1.19-3.9-6.35-3.68-8.06-.45-1.53-.44-3.5.03-5.9ZM29.17,342.82c-3.02-.6-5.29.62-6.81,3.64.24,4.08,2.29,6.76,6.14,8.04,4.64,1.55,10.77,2.45,9.47-4.98-2.28-3.76-5.21-5.99-8.8-6.69ZM29.73,344.6c3.94,1.23,6.38,3.84,7.32,7.84,0,3.13-8.18.1-9.94-.64-1.72-.72-2.5-1.8-2.35-3.24-2.01-3.14,2.55-4.72,4.98-3.96ZM77.26,364.04c-3.43,8.22-3.18,16.31.76,24.26.13.26.32.45.57.57,1.39.68,2.76.71,4.12.09,10.96-5.89,19.16-21.03,10.13-32.19-6.75-3.06-12.99,1.08-15.57,7.27ZM90,358.43c5.39,1.8,4.66,12.07,3.09,15.91-2.17,5.35-6.62,10.44-11.82,13.47-.43.25-.97.27-1.42.05-.45-.22-.76-.66-.82-1.16l-.43-3.43c-.44-.97-.82-2.84-1.13-5.61-.46-4.1-.15-7.97.95-11.6.79-2.6,2.41-4.6,4.85-5.98,2.06-1.9,4.3-2.44,6.72-1.64ZM26.89,361.34c-.58.32-.68.12-1.01-.39-2.37,3.23-2.92,6.25-1.64,9.06,2.81,6.18,11.88,7.29,18.07,6.72,3.78-.34,5.21-2.23,4.29-5.67-3.39-6.51-12.16-13.83-19.71-9.72ZM31.78,362.57c6.04.98,10.32,4.27,12.86,9.88.37.17.52.52.47,1.05-.05.51-.46.91-.97.95-4.69.39-9.29-.15-13.82-1.62-4.25-1.38-5.55-4.13-3.9-8.25,1.45-1.68,3.24-2.35,5.36-2.01ZM92.13,407.91c1.5,5.21,7.8,2.4,10.8.85.93-.84,2.9-2.52,5.9-5.02,6.1-5.11,11.77-16.47-.35-19.44-11.75,1.2-19.66,12.07-16.35,23.61ZM113.4,393.07c-.66,6.93-11.22,13.62-17.05,15.67-.61.21-1.27.12-1.8-.25-.52-.37-.84-.97-.85-1.61l-.06-4.8c.3-5.45,2.64-9.72,7.03-12.8,4.37-3.15,13.5-4.34,12.73,3.78ZM33.31,391.16c.36,13.55,18.42,12.75,26.83,9.69,8.55-8.37-23.2-25.99-26.83-9.69ZM38.43,387.67c6.38-3.88,17.3,3.49,20.93,8.89.3.44.37,1,.19,1.5-.18.5-.58.89-1.09,1.04-3.12.93-6.49,1.19-10.11.77-3.58.76-10.47-.52-11.8-4.86-1.51-3.2-.89-5.65,1.88-7.34ZM51.4,416.77c-.1.1-.22.15-.36.15h-.31l-.03.55c-.01.18-.07.34-.19.48-6.36,7.75,2.77,14.82,10.38,14.45,6.98-.34,12.71-3.41,17.2-9.2.68-.87.7-2.1.07-3.71-7.89-6.02-18.7-10.8-26.76-2.73ZM76.15,420.29c.11.09.15.24.11.46l.55.49c.15.14.24.33.24.53s-.09.39-.24.53c-5.47,4.86-15.83,10.48-22.71,5.59-3.1-2.21-3.64-4.97-1.61-8.28,5.58-8.39,17.46-4.31,23.65.69Z"/>
</svg>