<?xml version="1.0" encoding="UTF-8"?>
<svg id="Layer_1" data-name="Layer 1" xmlns="http://www.w3.org/2000/svg" viewBox="0 0 512 512">
  <defs>
    <style>
      .cls-1 {
        fill: #a9a375;
        stroke-width: 0px;
      }
    </style>
  </defs>
  <path class="cls-1" d="M405.33,471.73H108.71v-7.09h296.62v7.09ZM405.32,504.91H108.71v7.09h296.62v-7.09ZM139.69,492.33h-8.35v4.54h-10.86v-16.05h10.86v4.27h8.35v-5.05c0-1.32-1.71-1.99-5.13-1.99h-17.49c-3.32,0-4.98.66-4.98,1.99v17.64c0,1.32,1.66,1.97,4.98,1.97h17.49c3.42,0,5.13-.66,5.13-1.97v-5.34ZM174.57,480.03c0-1.32-1.7-1.99-5.09-1.99h-18.21c-3.32,0-4.98.66-4.98,1.99v17.64c0,1.32,1.66,1.97,4.98,1.97h18.21c3.39,0,5.09-.66,5.09-1.97v-17.64ZM154.67,480.82h11.51v16.05h-11.51v-16.05ZM215.22,478.05h-7.92l-8.82,11.94c-.14.42-.21.75-.21.98-.05-.52-.12-.85-.22-.98l-8.82-11.94h-7.92v21.6h8.07v-10.66c0-.54-.17-1.33-.5-2.35l7.28,11.03h4.27l7.24-11.03c-.33,1-.5,1.79-.5,2.35v10.66h8.07v-21.6ZM255.83,478.05h-7.92l-8.82,11.94c-.14.42-.22.75-.22.98-.05-.52-.12-.85-.22-.98l-8.82-11.94h-7.92v21.6h8.07v-10.66c0-.54-.17-1.33-.5-2.35l7.28,11.03h4.27l7.24-11.03c-.33,1-.5,1.79-.5,2.35v10.66h8.07v-21.6ZM290.6,478.05h-8.39v18.83h-11.29v-18.83h-8.39v19.63c0,1.32,1.7,1.97,5.09,1.97h17.82c3.44,0,5.16-.66,5.16-1.97v-19.63ZM325.77,478.05h-8.17v11.76c0,.38.18.9.54,1.56l-13.44-13.32h-7.35v21.6h8.17v-12.04c0-.38-.18-.9-.54-1.56l13.44,13.6h7.35v-21.6ZM341.04,478.05h-8.39v21.6h8.39v-21.6ZM372.3,478.05h-26.85v2.86h9.25v18.75h8.35v-18.75h9.25v-2.86ZM404.77,478.05h-8.6l-6.67,9.39-6.7-9.39h-8.64c-.02.07-.02.12,0,.12l7.38,9.03c.1.12.78.86,2.04,2.24.72.8,1.27,1.56,1.65,2.28v7.94h8.42v-7.94c1.55-2.12,2.78-3.62,3.69-4.51l7.42-9.03v-.12ZM263.29,211.8l-10.02-1.48s5.59-7.4,18.9-5.75c13.31,1.64,24.18,7.97,30.41,13.48,4.96,4.39,13.48,15.12,20.22,17.09l1.64,5.92s-8.24-3.78-28.76-21.86c-6.23-5.49-19.07-13.15-32.38-7.4M242.89,245.38c28.41-30.71,67.25.57,74.75,5.31,7.51,4.74,4.86-4.56,4.86-4.56-91.63-73.48-140.27,5.23-140.79,6.08,37.36-44.1,61.18-6.82,61.18-6.82M261.54,241.05l-6.25,3.57s19.28,19.99,29.81-.89c0,0-10,12.32-23.56-2.68M93.5,372.54c-29.5-50.4,16.47-54.09,16.47-54.09,5.17-11.56,14.26-13.77,14.26-13.77,2.7-7.62-1.47-6.15-1.47-6.15-78.43,34.67-29.26,74.01-29.26,74.01M301.53,424.52l-3.54,8.98-2.84,6.91s-.03.08-.04.12l-2.58,9.63-2.45,9.51s-.01.06-.02.1l-1.01,6.77c-.17,1.14-1.85,1.04-1.88-.11l-4.87-169.03c0-.26-.12-.51-.32-.68-1.33-1.17-6.61-5.81-8.16-7.24-1.48-1.37-1.91-.55-2.02-.24-.02.07-.06.15-.1.21l-3.34,5.39c-.09.15-.14.33-.14.51l1.08,89.31c0,.25.1.48.28.66l.93.93c.11.11.24.19.39.24l1.41.44c.09.03.18.04.28.04h2.89c.07,0,.14-.01.22-.03l2.06-.48c.1-.02.2-.07.29-.12l2.84-1.81s.04-.03.06-.04c2.42-1.33,1.61.29,1.61.29l-.71,1.78c-.07.17-.19.32-.34.43l-2.74,1.86s-.04.02-.06.04c-.49.39-8.01,6.44-15.4,15.54-7.42,9.15-12.97,24.04-13.29,24.9-.01.03-.02.05-.03.08-.21.44-2.24,4.69-1.83,5.86.42,1.18,5.9-.13,6.39-.25.03,0,.05-.01.07-.02l5.18-1.73s13.39-3.81,17.98-13.39c2.38-4.95.71-8.25-1.44-10.29-.81-.77.17-2.08,1.12-1.5,3.76,2.27,7.04,7.11,6.67,12.26-.54,7.49-7.84,16.46-8.25,16.96-.01.02-.02.03-.03.05-.55.77-14.47,20.17-28.93,23.89-14.75,3.8-16.76,4.36-36.2,2.35-19.01-1.97-37.38-17.07-38.19-17.74-.02-.02-.04-.03-.05-.05-.83-.82-22.39-22.01-42.44-34.5-9-5.61-17.98-9.02-24.54-8.61-8.34.51-12.79,5.78-8.87,5.04,7.04-1.33,11.51,1.45,13.97,2.01,2.46.56,24.81,14.08,28.94,22.69,3.25,6.76,22.99,20.76,31.3,26.46.86.58.28,1.92-.74,1.7-24.05-5.28-44.42-26.04-44.42-26.04,0,0-28.72-28.94-37.54-19.78-5.49,5.69-2.9,10.91-.16,14.05.76.87-.43,2.08-1.32,1.34-6.3-5.21-14.19-20.08,2.71-34.95,22.35-19.67,38.13-14.27,41.57-13.86,3.64.43,17.66,8.94,14.98,3.8-2.68-5.14-6.82-10.73-11.51-11.17-2.61-.25-3.67-.88-4.09-1.39-.26-.31-.28-.76-.06-1.09.49-.75,1.88-2.62,5.04-5.01,4.13-3.13-4.36-7.38-4.36-7.38l-6.44-2.87c-.68-.3-.76-1.23-.14-1.65,4.73-3.16,5.61-11.66,5.68-12.41,0-.04,0-.07,0-.11l-1.12-45.17s0-.04,0-.06l-2.46-26.68-1.45-33.58s0-.07-.01-.1c-2.27-15.86-14.8-6.06-16.08-5.47-.09.04-.25.14-.31.17-5.19,2.32-7.62,12.55-5.95,19.99,1,4.44,6.98,9.83,11.69,13.47.92.72-.02,2.14-1.04,1.57-6.31-3.52-12.01-9.26-12.02-9.29-8.79-15.04-5.89-19.29-3.88-31.68,2.01-12.4,33.64-30.39,35.64-32.07,2.01-1.67,7.93-9.05,3.91-16.76-4.02-7.71-2.23-4.36,4.69-1.01,6.56,3.17,7.31,17.37,7.37,18.87,0,.09.02.17.05.25,4.85,15.57,19.53,25.47,23.2,26.02,3.23.49,2.68,2.23,2.49,2.66-.03.07-.06.14-.07.21-17.48,90.61-.91,173.32.3,179.1.04.21.15.4.32.53l12.28,10.11s.04.03.05.04l7.67,5.47,7.66,5.14s.06.04.08.05l7.43,3.98s.03.02.05.02l7.51,3.44s.09.04.13.05l8.27,2.41s4.11,1.06,7.49,2.01c3.38.95,3.17-1.58,3.17-1.58,0,0-2.11-129.49-2.01-132.34.09-2.39-1.24-2.92-1.66-3.03-.1-.02-.2-.07-.29-.13-7.9-5.43-10.19-9.3-11.24-11.08-1.06-1.79-2.11-.84-2.11-.84l-1.97,2.16c-.16.17-.25.4-.25.63-.02,7.43-.33,125.88-.84,129.96-.45,3.62-2.85,3.13-3.52,2.91-.11-.04-.21-.09-.3-.17l-29.99-24.55c-.38-.31-.46-.87-.17-1.27,7.95-11,3.81-27.87,4.43-46.26.6-17.87-4.34-23.8-4.82-24.34-.02-.03-.05-.06-.07-.09-.45-.64-5.18-7.38-5.98-8.08-.84-.74-1.27-3.38-1.48-6.44-.15-2.24,1.38-2.72,2.22-2.83.3-.04.61.07.81.3,1,1.09,4.29,4.63,5.62,5.17,1.58.63,1.16-1.48,1.16-1.48,0,0-.74-15.09-.63-25.54.11-10.45-3.16-12.24-3.16-12.24,0,0-5.81-4.12-3.48-3.91,2.32.21,33.35-27.33,35.77-30.6,2.06-2.78,3.28-.61,3.61.11.06.13.08.26.08.4-.04,2.59-.48,31.34.42,33.16.95,1.9,1.69.63,1.69.63l12.62-19.77s.06-.09.07-.14c.44-1.05,5.74-13.31,9.68-3.2,3.95,10.12,22.35,14.22,23.86,14.54.07.01.13.02.2.02h1.4c.51-.01.94.39.95.91l.36,11.73c.03.9,1.18,1.26,1.71.53l24.75-33.86s.06-.1.09-.14c.36-.75,3.47-6.93,4.47.55,1,7.42,17.22,26.44,19.33,28.9.15.17.23.39.23.61l.24,102.37s0,.05,0,.07l.23,2.8c0,.08.02.17.06.25l.76,2.08s.02.06.03.1l.58,2.37s.02.07.03.1l.37,1c.04.1.09.19.16.27l.43.53c.12.15.29.26.48.31.08.02.17.04.26.04.19,0,.38-.06.54-.17l.58-.41s.03-.02.04-.03l1.12-.88s.04-.03.05-.04l.31-.18c.2-.12.45-.07.6.11.07.08.11.19.11.3v.65c0,.15-.03.29-.1.42l-.64,1.28s-.02.05-.04.08l-1.32,2.1s-.04.06-.06.08l-4.48,5.69-5.3,6.65s-.04.05-.05.07l-4.62,7.07-3.53,5.97s-.02.05-.04.08l-3.93,8.26s-.02.04-.02.06M142.09,325.77l-1.04-25.54s-.98-31.36-1.16-36.01c-.18-4.66-3.43-21.32-4.9-25.91-1.47-4.59-3-2.2-3-2.2,0,0,2.45,49,2.88,49.92.43.92,1.35,16.35,1.35,16.35,0,0-.12,19.3.49,26.46.61,7.17-.98,19.66-1.71,22.42-.74,2.76.12,3.12.12,3.12,0,0,.8,1.41,3.49,2.88,2.7,1.47,2.88-1.71,2.88-1.71,2.64-14.03.61-29.77.61-29.77M428.66,385.53c-28.34,11.06-38.15,38.46-38.15,38.46,0,0-3.74,11.99-4.67,8.25-.94-3.74-31.45-26.16-37.21-23.2-5.76,2.96-3.43,7.94-3.43,7.94,17.44,4.83,12.15,4.36,28.34,14.64,16.19,10.27,24.76,7.01,24.76,7.01,19.46-4.36,9.03-16.35,9.03-16.35,16.19,5.76,4.36,24.29-11.68,28.03-16.03,3.74-17.75,11.21-17.75,11.21-20.55-13.86-37.84-16.66-37.84-16.66-.15,10.74-3.43,21.64-3.43,21.64-5.45-3.11-4.2-23.2-4.2-23.2-38.46.15-16.82,22.58-16.82,22.58-7.49-.62-23.4-21.57-12.53-36.94,10.86-15.36,29.81-13.98,29.81-13.98,6.07-11.99-5.91-115.53-3.89-152.9,2.02-37.37-9.34-40.17-9.34-40.17,0,0,.47-4.52,12.92-10.43,12.46-5.92,19.46-40.8,19.46-40.8,0,0,14.79,26,25.54,33.01,10.75,7.01,19.31,17.44,26.94,25.85,7.63,8.41,8.25,31.14,3.42,41.11-4.83,9.97-24.29,12.92-24.29,12.92,0,0-4.98.78-7.16-2.49-2.18-3.27,3.89-1.71,6.69-2.18,2.8-.46,4.83-2.33.78-2.8-4.05-.47-6.23-2.49-6.23-2.49-2.49-4.67.31-3.27.31-3.27,10.12,5.45,13.55-2.18,13.39-4.51-.16-2.34.93-2.02.93-2.02,33.32-16.82-11.83-48.42-11.83-48.42-7.78,5.3-7.01,83.3-6.54,86.26.46,2.96,1.71,1.25,1.71,1.25,0,0,11.83-15.1,13.08-16.97,1.25-1.87,3.43-.78,3.43-.78,2.02-1.71,2.8,0,2.8,0,6.54,16.97,26.78,30.05,31.3,30.05s3.11,2.8,3.11,2.8c-6.23,10.28-3.11,55.43.62,61.81,3.74,6.39-1.4,5.76-1.4,5.76M363.59,264.73c2.69,44.2.9,47.34.9,47.34,0,0-.9,3.36,2.24,2.47,3.14-.9,4.26-9.87,4.26-9.87l-.9-49.58s-.67-24.23,7.4-42.18l-3.36-2.24s-13.24,9.87-10.55,54.07M367.85,368.6c3.37-.9,6.96-8.3,5.39-10.55-1.57-2.24-4.04-35.22-3.14-36.57.9-1.35-.9-2.47-2.69,0-1.79,2.47-3.37,2.91-3.14,5.16.23,2.24,1.35,39.93,1.35,39.93,0,0-1.12,2.92,2.24,2.02M391.64,338.09l-16.6-20.87s-1.57-2.02-1.12,3.14c.45,5.16.67,40.83,5.61,43.75,0,0-12.34,6.73-12.34,9.2s3.14,3.36,3.14,3.36l19.74,12.34s3.14,3.81,3.59-.9c.45-4.71-2.02-50.03-2.02-50.03M256.08,96.52c-3.29-.03-6.32,2.72-6.26,5.88.06,3.34,2.69,6.34,6.13,6.22,3.36.04,6.15-2.55,6.2-5.74.05-3.56-2.58-6.32-6.07-6.35M365.68,130.29c-3.4.01-6.07,2.7-6.06,6.11.01,3.38,2.63,5.94,6.06,5.93,3.43,0,6.1-2.66,6.1-6.05,0-3.25-2.81-6-6.1-6M375.07,79.58c-3.24,0-6,2.8-6,6.09.02,3.56,2.48,5.86,6,6.06,3.27.18,6.18-2.78,6.2-6.03.02-3.39-2.75-6.12-6.2-6.11M166.25,36c-3.25-.01-6.16,2.8-6.18,5.96-.02,3.35,2.84,6.21,6.17,6.19,3.3-.02,6.09-2.76,6.12-6.01.03-3.29-2.79-6.12-6.11-6.13M150.7,60.19c-.23-3.4-2.74-5.95-6.34-5.95-2.97,0-5.95,2.28-5.88,6.15.06,3.42,2.8,6.03,6.31,5.96,3.24-.06,6.13-2.94,5.91-6.16M456.13,92.64c-3.36.01-6.19,2.78-6.19,6.06s2.89,6.04,6.12,6.07c3.39.03,6.13-2.67,6.13-6.04,0-3.42-2.66-6.09-6.07-6.08M345.85,35.99c-3.37,0-6.22,2.78-6.2,6.04.01,3.22,2.97,6.14,6.2,6.13,3.35-.02,6.15-2.87,6.13-6.24-.02-3.1-2.95-5.93-6.13-5.93M104.07,47.15c-3.35.04-6.04,2.81-6.01,6.2.03,3.25,2.77,5.9,6.07,5.88,3.66.02,6.1-2.78,6.22-5.89.13-3.37-2.87-6.22-6.28-6.19M76.03,154.54c-3.33.02-6.17,2.81-6.2,6.08-.03,3.23,2.85,6.07,6.16,6.08,3.35,0,6.08-2.73,6.1-6.09.01-3.22-2.86-6.09-6.06-6.06M146.37,130.29c-3.22.01-6.02,2.85-6.14,6.01-.12,3.07,2.89,6.39,5.96,6.03,3.2.28,6.2-2.35,6.33-5.95.12-3.25-2.86-6.11-6.15-6.1M436.06,154.55c-3.39.04-6.13,2.76-6.13,6.08,0,3.16,2.89,6.06,6.05,6.07,3.45.01,6.14-2.67,6.15-6.13,0-3.24-2.84-6.06-6.07-6.02M56.43,126.86c-3.32-.04-6.1,2.8-6.19,6.31-.08,3.09,2.8,5.84,6.13,5.86,3.31.01,6.09-2.79,6.16-6.23.06-3.03-2.89-5.9-6.1-5.94M73.84,64.27c-3.18.13-6.12,2.53-6.11,6.16,0,3.2,2.87,5.97,6.14,5.98,3.43,0,6.08-2.6,6.14-6.05.06-3.19-2.91-6.23-6.17-6.09M455.66,126.87c-3.25.02-6.11,2.77-6.12,5.89-.01,3.44,2.84,6.32,6.21,6.27,3.35-.05,6.09-2.9,6.08-6.31-.01-3.05-2.99-5.88-6.17-5.86M375.69,106.29c-3.27-.06-6.16,2.76-6.21,6.05-.04,3.27,2.8,6.12,6.12,6.13,3.29.02,6.09-2.71,6.15-5.99.06-3.28-2.74-6.13-6.07-6.19M408.06,47.15c-3.47-.05-6.2,2.59-6.26,6.05-.06,3.34,2.59,5.98,6.02,6.03,3.43.05,6.18-2.57,6.24-5.95.06-3.22-2.73-6.07-6.01-6.13M367.48,54.29c-3.98.05-6.1,3.5-6.16,6.01,0,3.2,2.95,6.16,6.16,6.18,3.23.02,6.14-2.88,6.16-6.15.02-3.33-2.78-6.1-6.16-6.05M438.08,64.28c-3.62.08-5.9,2.54-6.07,6.13-.16,3.37,2.76,6,6.37,5.99,3.24,0,5.8-2.7,5.78-6.09.24-3.48-2.94-6.1-6.08-6.03M256.03,73.6c-3.26,0-6.27,2.98-6.18,6.13.1,3.34,2.93,6.13,6.2,6.11,3.22-.02,6.18-2.91,6.19-6.02,0-3.31-2.89-6.21-6.21-6.21M136.89,79.58c-3.36,0-6.07,2.73-6.07,6.09-.34,2.6,2.39,6.03,6.14,6.07,3.16.04,6.15-2.94,6.18-6.03.04-3.28-2.88-6.14-6.25-6.13M136.51,106.29c-3.32-.02-6.16,2.77-6.15,6.06,0,3.42,2.65,6.08,6.07,6.12,3.38.04,6.15-2.69,6.15-6.04s-2.72-6.11-6.07-6.14M232.82,68.81c-3.87-.84-7.78-1.53-11.6-2.54-4.51-1.18-8.96-2.61-13.43-3.97-3.28-1.01-6.51-2.19-9.99-2.45-2.94-.23-5.86-.66-8.8-.89-2.09-.17-4.21-.4-6.27-.19-5.69.61-10.4,3.22-14.15,7.55-.27.31-.35.78-.52,1.18.4.15.8.41,1.21.44,2.1.18,4.2.3,6.3.45,3.67.28,7.34.62,11.02.84,2.52.15,5.05.13,7.58.22,4.2.15,8.41.39,12.62.46,3.79.07,7.57-.06,11.36-.07,4.29,0,8.57.06,12.85.06,1.24,0,2.48-.14,3.72-.21.02-.11.03-.22.05-.32-.65-.19-1.29-.42-1.95-.57M343.57,66.43c-1.93-2.43-4.33-4.3-7.14-5.62-3.09-1.46-6.34-2.4-9.76-2.22-3.29.17-6.55.72-9.83,1.1-2.29.27-4.66.26-6.87.85-4.5,1.21-8.88,2.89-13.39,4.09-5.56,1.48-11.19,2.68-16.78,4-1.04.25-2.09.47-3.13.7,0,.14,0,.29,0,.43.47.07.94.19,1.41.19,1.23-.01,2.46-.1,3.69-.11,11.66-.12,23.33-.23,35-.36,3.34-.04,6.68-.06,10.01-.27,5.39-.34,10.77-.82,16.16-1.26.35-.03.92-.2.98-.41.08-.32-.11-.81-.34-1.1M256.08,96.52c-3.29-.03-6.32,2.72-6.26,5.88.06,3.34,2.69,6.34,6.13,6.22,3.36.04,6.15-2.55,6.2-5.74.05-3.56-2.58-6.32-6.07-6.35M271.12,84.21c-.33-3.03-.73-6.06-1.11-9.09-.1-.75-.57-1.07-1.31-1.12-1.29-.07-2.58-.19-3.88-.24-.42-.01-.85.15-1.27.23.13.38.19.8.39,1.14,2.96,5,.64,12.11-6.25,13.55-3.88.81-7.13-.72-9.34-3.94-2.15-3.14-2.16-6.51-.17-9.83.15-.25.33-.72.23-.82-.21-.21-.6-.32-.91-.31-1.33.04-2.66.15-3.99.2-.9.04-1.43.4-1.52,1.37-.4,4.19-1.03,8.36-1.2,12.56-.23,5.62.3,11.22,1.13,16.78.6,4.06,1.28,8.11,1.96,12.15.21,1.28.5,1.39,1.7.9.39-.16.8-.26,1.2-.38,2.93-.88,5.95-.97,9.32-.91,3.31-.18,6.9.2,10.38,1.32,1.28.41,1.52.3,1.73-1.06.64-4.05,1.42-8.09,1.85-12.16.57-5.37.89-10.76,1.24-16.15.09-1.39-.03-2.81-.18-4.2M265.26,102.46c-.24,6-4.67,9.1-9.24,9.16-4.94-.01-9.01-3.99-9.16-8.62-.16-5.21,4.15-9.57,9.15-9.57,4.99,0,9.45,4.18,9.25,9.03M256.08,96.52c-3.29-.03-6.32,2.72-6.26,5.88.06,3.34,2.69,6.34,6.13,6.22,3.36.04,6.15-2.55,6.2-5.74.05-3.56-2.58-6.32-6.07-6.35M138.34,52.18c-2.45-.15-4.91-.42-7.35-.35-5.26.14-10.52.47-15.78.71-1.45.07-1.74.31-1.95,1.78-.99,7.05-8.78,10.45-14.46,6.26-.97-.71-1.73-1.72-2.55-2.63-.42-.46-.75-.88-1.5-.6-4.5,1.67-8.73,3.87-12.74,6.51-.71.48-.75.91-.3,1.65,1.8,2.96,1.98,6.02.31,9.11-2.71,4.99-8.86,6.17-13.27,3.27-.88-.57-1.43-.37-1.92.4-2.26,3.56-4.5,7.13-6.78,10.67-.66,1.02-.15,1.51.67,1.98,2.83,1.65,5.08,5.51,4.17,9.6-.88,3.96-4.08,6.92-8.15,7.25-1.14.09-1.59.64-1.51,1.79.12,1.61.17,3.23.36,4.82.33,2.68.74,5.35,1.15,8.02.15.94.64,1.62,1.7,1.71.34.03.69.15,1.02.27,5.88,2.1,7.98,9.1,4.22,14.1-.47.62-.83,1.18-.38,1.99,2.14,3.83,4.26,7.68,6.37,11.53.48.88,1.05,1.09,1.97.57,5.73-3.17,13.08.64,13.52,7.4.06.92.5,1.31,1.4,1.32.77,0,1.56.01,2.31.16,3.8.77,7.04,2.58,9.69,5.41.66.7,1.24.73,2.14.36,1.4-.58,2.9-.97,4.39-1.3,1.06-.23,2.17-.23,3.59-.36-.56-.62-.87-1.04-1.25-1.37-4.5-3.86-8.47-8.22-12.31-12.72-4.88-5.73-9.03-11.95-12.2-18.78-2.56-5.51-4.33-11.24-4.94-17.34-.46-4.6-.29-9.13.59-13.62,1.02-5.24,3.18-10.01,6.2-14.43,3.22-4.71,7.13-8.71,11.84-11.89,6.79-4.57,14.47-6.79,22.49-7.82,5.18-.66,10.41-.91,15.62-1.33,1.4-.11,2-1.05,1.4-2.32-.97-2.04-1.01-4.12-.37-6.26.52-1.74,1.5-3.15,2.87-4.34.23-.2.31-.57.46-.87-.24-.12-.48-.33-.72-.34M455.35,107.78c-3.8-.24-7.08-2.98-8.07-6.68-1.06-3.97.46-7.81,4.04-10.13.71-.46,1.31-.9.72-1.84-2.29-3.66-4.58-7.33-6.88-10.99-.49-.78-1.04-.87-1.83-.32-3.62,2.5-8.63,2.05-11.74-1.01-3.06-3.01-3.55-7.6-1.16-11.31.48-.75.31-1.14-.38-1.62-3.83-2.6-7.91-4.7-12.25-6.33-1.4-.53-1.47-.52-2.27.75-2.26,3.61-7.43,5.18-11.26,3.33-3.15-1.52-5.17-3.92-5.51-7.53-.07-.75-.35-1.38-1.25-1.44-3.92-.29-7.84-.75-11.77-.83-3.96-.08-7.93.2-11.89.34-.34.01-.67.21-1.01.33-.06.13-.12.25-.18.38.42.32.87.59,1.25.95,2.69,2.52,3.59,6.79,2.12,9.99-.73,1.58-.15,2.42,1.64,2.48,2.39.08,4.78.11,7.15.36,3.42.35,6.83.83,10.23,1.33,4.88.72,9.65,1.98,14.15,3.99,6.9,3.09,12.58,7.81,17.05,13.9,3.79,5.16,6.38,10.89,7.49,17.25.96,5.47.81,10.94-.23,16.35-1.16,6.08-3.42,11.82-6.39,17.23-5.76,10.51-13.45,19.47-22.38,27.4-.4.36-.75.79-1.13,1.18.04.11.08.23.13.34.4.04.79.09,1.19.11,2.11.09,4.22.27,6.13,1.27,1.51.78,1.48.8,2.68-.36,3.27-3.15,7-5.28,11.68-5.33.98-.01,1.43-.43,1.51-1.46.47-6.41,7.57-10.32,13.28-7.35,1.31.68,1.41.71,2.15-.58,2.08-3.63,4.08-7.3,6.15-10.93.55-.96.42-1.67-.23-2.58-4.1-5.73-.86-12.85,5.34-14.27,1.05-.24,1.52-.81,1.7-1.72.83-4.35,1.36-8.74,1.37-13.18,0-.96-.36-1.38-1.35-1.44M368.13,159.64c-2.11-1.74-4.62-2.65-7.25-3.23-1.3-.29-1.35-.42-1.08-1.7.85-4.06.22-7.76-3.05-10.57-1.25-1.07-2.79-1.91-4.34-2.49-3.23-1.2-6.62-1.68-10.05-.94-4.83,1.05-7.86,4.13-9.43,8.73-.28.82-.66,1.2-1.54.78-1.96-.92-4.04-1.11-6.18-1.02-3.93.17-6.84,1.93-8.64,5.44-1.7,3.3-2.06,6.88-1.78,10.48.44,5.74,3.69,9.52,9.28,10.65,2.37.48,4.87.31,7.32.47.42.02.82.21,1.23.33-.18.36-.29.78-.55,1.05-.74.75-1.52,1.46-2.34,2.13-3.62,2.98-7.75,4.47-12.44,3.78-6.67-.98-11.86-6.08-13.17-12.7-.43-2.17-.9-4.33-1.37-6.5-.3-1.4-.3-1.43,1.16-1.66,6.27-1.02,9.61-8.39,6.14-13.71-2.11-3.24-5.24-4.61-9.08-4.15-4.41.54-8.02,4.35-7.84,9.23.14,3.75,2.17,6.37,5.47,8.02.77.39,1.09.79.71,1.63-.82,1.83-1.65,3.66-2.4,5.51-1.51,3.72-4.16,6.36-7.62,8.29-2.79,1.56-5.78,2.25-8.95,2.5-7.17.56-13.12-1.59-17.66-7.36-1.32-1.68-2.08-3.2-.89-5.3.64-1.12.91-1.51,2.19-1.14,1.14.33,2.28.72,3.35,1.24,2.3,1.11,4.7,1.81,7.25,2.08,5.85.61,10.54-2.13,12.83-7.51,1.14-2.68,1.82-5.48,2.01-8.36.34-5.48-1.32-9.95-6.95-12.52-3.12-1.42-6.47-1.83-9.89-1.7-.32.01-.8-.07-.93-.27-.12-.2.04-.67.2-.93,2.03-3.18,2.19-6.53.77-9.95-1.91-4.64-5.62-7.17-10.32-8.38-3.44-.88-6.91-.97-10.45-.44-4.56.68-8.45,2.49-11.08,6.35-2.71,3.98-3.11,8.19-.54,12.46.15.25.31.72.2.84-.2.21-.61.33-.93.32-2.83-.07-5.59.16-8.33,1.03-5.24,1.67-8.44,5.77-8.59,11.26-.1,4.05.78,7.91,2.64,11.49,2.03,3.91,5.29,6.15,9.75,6.37,3.58.18,6.95-.69,10.15-2.33,1.08-.55,2.28-.89,3.47-1.17.39-.09,1.12.21,1.31.54.5.88.83,1.85,1.13,2.83.1.32-.01.8-.2,1.09-1.96,3.12-4.38,5.77-7.74,7.42-5.65,2.79-11.48,2.8-17.33.86-4.15-1.38-7.68-3.76-9.75-7.75-1.28-2.45-2.27-5.06-3.36-7.61-.33-.77.12-1.11.8-1.41,4.42-1.99,6.56-6.77,5.08-11.19-1.03-3.1-4.55-6.61-9.91-6.08-3.94.39-7.25,3.52-7.89,7.64-.75,4.81,2.73,9.53,7.58,10.26,1.19.18,1.29.37,1.04,1.51-.45,1.99-.91,3.97-1.28,5.97-.49,2.65-1.56,5.01-3.1,7.2-3.86,5.5-11.25,7.73-17.54,5.34-2.94-1.12-5.3-3.01-7.51-5.15-.26-.25-.33-.7-.49-1.05.38-.1.78-.32,1.15-.28,2.65.28,5.26.08,7.84-.57,4.36-1.1,7.28-3.71,8.4-8.12,1.04-4.12.59-8.19-.96-12.09-1.27-3.2-3.63-5.38-7.06-6.06-2.62-.52-5.25-.32-7.78.68-1.46.57-1.48.5-2.02-.93-1.65-4.34-4.46-7.46-9.21-8.4-3.66-.72-7.18-.15-10.65,1.1-5.5,1.98-8.29,7.09-6.91,12.78.34,1.39.26,1.52-1.2,1.83-2.76.58-5.32,1.61-7.45,3.52-2.19,1.97-3.37,4.44-3.05,7.41.1.92.28,1.81.51,2.67,4.75,2.52,8.51,5.88,10.39,11.08.66.07,1.34.07,2.06,0,2.32-.24,4.41-1.14,6.43-2.23,1.39-.76,2.73-1.62,4.16-2.28.5-.23,1.4-.19,1.8.12.31.25.36,1.22.14,1.69-1.79,3.84-4.31,7.07-8,9.29-1.62.97-3.31,1.65-5.06,2.08.22,2.32.49,4.63,1.24,6.84.95,2.78,2.49,5.28,4.39,7.5,2.65-.37,5.31-.74,7.96-1.08,9.31-1.2,18.63-2.31,27.97-3.28,8.33-.86,16.66-1.56,25.01-2.15,6.49-.46,12.99-.64,19.49-.92,2.31-.1,4.62-.14,6.94-.21,3.57-.11,7.14-.27,10.72-.31,2.66-.03,5.32.05,7.98.14,4.95.17,9.91.34,14.85.61,5.37.29,10.74.64,16.1,1.04,6.69.5,13.39,1.04,20.07,1.62,6.79.59,13.58,1.24,20.37,1.86.24.02.49.03.73.04,1.39-2.01,2.51-4.15,3.47-6.42l-19.96-2.48c0-.11-.01-.22-.02-.33.23-.06.46-.15.7-.17,4.52-.44,8.76-1.7,12.45-4.44,1.49-1.11,2.86-2.37,4.24-3.62.84-.77,1.09-.77,1.65.19.94,1.64,1.99,3.17,3.16,4.59.75-2.36,1.53-4.74,2.28-7.13.92-3.71,1.71-7.43,2.74-11.09.02-.11.04-.23.06-.34.01-.09.04-.17.06-.26-1.57,1.78-3.9,2.96-6.78,3.04-4.81.13-8.95-4.05-8.86-8.87.11-5.57,4.71-8.92,9.02-8.84,4.82-.02,8.84,3.91,8.83,8.72,0,.96-.15,1.88-.43,2.76,2.02-1.68,5.43-1.82,6.67.96,1.98,4.43,4.09,8.83,6.79,12.83,1.03-.42,2.01-1.03,2.9-1.89,3.15-3.01,5-6.78,5.6-11.09.45-3.25-.75-5.93-3.26-8.01M162.19,164.01c.07-4.89,4.14-8.79,9.09-8.71,4.76.08,8.88,4.29,8.79,9.01-.09,4.86-4.18,8.79-9.04,8.69-4.99-.11-8.91-4.09-8.84-8.99M191.69,192.61c-10.17,1.26-20.34,2.51-30.5,3.77l-.14-.21c.22-.21.41-.49.67-.64,4.79-2.77,8.35-6.7,11.04-11.48.48-.86.82-.84,1.6-.02,3.56,3.72,7.77,6.34,12.83,7.5,1.26.29,2.56.39,3.85.58.24.04.48.1.72.15l-.06.35ZM243.76,151.57c.08-6.83,5.51-12.06,12.47-11.99,5.98-.07,12.22,5.08,12.06,12.32-.13,6.13-5.12,12.12-12.79,11.92-6.35-.17-11.82-5.76-11.75-12.25M313.62,191.9c-.4.03-.82.12-1.22.09-7.49-.61-14.98-1.26-22.48-1.83-3.82-.29-7.65-.46-11.47-.67-3.8-.2-7.6-.49-11.41-.52-6.45-.05-12.91,0-19.36.14-5.48.11-10.95.36-16.42.61-5.58.25-11.16.5-16.74.89-4.84.34-9.66.88-14.49,1.32-.51.05-1.04,0-1.56,0-.02-.12-.04-.23-.06-.35.26-.12.5-.27.77-.35,5.46-1.58,9.88-4.64,13.14-9.33.43-.62.84-.75,1.46-.21,5.13,4.45,11.2,6.43,17.88,6.81,4.1.24,8.13-.04,12.05-1.44,4.45-1.59,8.12-4.28,11.21-7.8,1.06-1.21,1.19-1.22,2.24.01,3.21,3.76,7.26,6.33,11.82,8.02,1.97.73,4.18.88,6.3,1.16,4.79.62,9.45-.13,13.99-1.64,3.27-1.08,6.23-2.75,8.86-4.99.86-.73,1.04-.71,1.73.25,2.66,3.71,6.02,6.56,10.31,8.25.91.36,1.87.61,2.8.92.24.08.46.23.69.34,0,.1-.01.2-.02.31M436.71,173.51c-1.62-3.4-4.19-5.89-7.59-7.46-2.05-.95-4.2-1.03-6.37-.25-3.43,1.24-6,3.58-8.22,6.38-.81,1.03-.95,1.06-1.91.25-1.43-1.2-3.05-2.01-4.89-2.34-5.2-.96-9.62.75-13.26,4.34-2.88,2.84-3.8,6.33-2.15,10.24,1.77,4.2,5.05,6.52,9.37,7.58.38.1.73.3,1.1.45-.25.38-.43.87-.77,1.14-3.09,2.42-6.52,3.77-10.54,3.54-3.85-.22-7.65-2.79-8.59-6.51-.57-2.21-.55-4.58-.71-6.88-.11-1.49-.02-1.52,1.44-1.73,4.62-.66,8.11-5.65,7.33-10.24-.65-3.81-4.36-8.18-9.95-7.67-4.09.37-7.78,3.8-8.25,7.89-.43,3.71,1.1,6.47,4.01,8.6,1,.73,1.05.95.37,1.95-.71,1.05-1.31,2.2-2.14,3.13-.91,1.03-1.9,2.15-3.1,2.75-.52.26-1.05.48-1.57.68,2.59,2.84,5.12,5.75,7.77,8.53,2.02,1.8,4.07,3.52,6.03,5.16,4.23,3.53,8.15,7.27,11.99,11.11,3.42.87,6.84,1.73,10.25,2.59,1.6.4,3.05.15,4.42-.74,3.43-2.22,3.42-5.7-.23-7.5-2.08-1.02-4.43-1.52-6.66-2.23-1.41-.45-2.84-.86-4.26-1.28.02-.15.03-.31.05-.46.51-.22,1.02-.43,1.52-.67,4.79-2.26,8.44-5.89,11.86-9.81.56-.64.26-1.03-.45-1.33-4.1-1.73-6.15-5.38-5.5-9.72.55-3.68,3.62-6.66,7.52-7.28,3.77-.6,7.65,1.32,9.19,4.73.55,1.21.69,2.61.99,3.94.14.61.08,1.4,1.05,1.2,3.79-.79,7.28-2.21,9.89-5.21,1.78-2.04,2.14-4.38.96-6.87M109.7,192.32c.23-.08.48-.12.71-.18,2.92-.68,5.56-1.93,7.42-4.33,3.01-3.9,3.69-7.67,1.13-11.68-1.67-2.61-4.1-4.35-6.98-5.37-4.48-1.6-8.77-1.44-12.6,1.77-.88.74-1.14.69-1.85-.26-1.56-2.07-3.37-3.88-5.59-5.23-3.37-2.04-6.82-2.54-10.34-.37-2.6,1.6-4.64,3.74-6.07,6.45-1.29,2.46-1.17,4.83.57,7,2.61,3.26,6.33,4.54,10.2,5.47.75.18.86-.43.93-1.06.12-1.07.17-2.2.57-3.18,2.46-5.97,9.35-7.64,14.28-3.45,2.36,2.01,3.34,4.65,2.92,7.73-.46,3.38-2.32,5.73-5.48,7.03-.92.38-1.03.75-.38,1.47,1.27,1.41,2.51,2.85,3.89,4.16,2.15,2.03,4.45,3.86,7.08,5.23,2.21-1.56,4.5-3.02,6.77-4.42.9-.56,1.8-1.13,2.7-1.7-3.67.06-6.97-1.58-10.08-4-.55-.42-.41-.85.23-1.08M132.84,164.71c-3.53-1.03-6.8-.18-9.36,2.56-2.44,2.61-3.05,5.75-1.9,9.12,1.17,3.44,3.73,5.36,7.26,5.99.8.14,1.1.48,1.05,1.25-.11,1.64-.25,3.29-.31,4.93-.04,1.11-.29,2.17-.69,3.15.75-.52,1.45-1.1,2.04-1.81,2.87-3.46,2.98-8.22,1.66-12.38-.05-.07-.08-.13-.13-.2-.43-.6-.63-1.24-.67-1.87-.18-.4-.37-.79-.57-1.16-1.67-3.08,1.18-7.97,4.98-6.47.61.24,1.21.49,1.81.75-1.1-1.85-2.83-3.17-5.17-3.86M100.88,208.77c-1.97,1.3-2.61,3.09-1.91,4.75,1.97-2.43,4.24-4.62,6.68-6.63-1.65.43-3.29.91-4.76,1.88M60.45,94.5c-1.88-1.82-4.75-2.34-7.1-1.2-2.17,1.05-3.11,2.96-3.56,5.2.01.17.02.33.03.5.17.57.31,1.14.5,1.69,1.09,3.08,4.23,4.73,7.35,3.78,2.59-.79,4.21-2.54,4.49-5.26.19-1.87-.43-3.47-1.71-4.72M377.53,94.51c-2.54.61-4.92.26-7.2-1.07-2.91-1.7-5.42-6.26-4.11-10.2,1.28-3.9,4.46-6.49,8.57-6.65,1.36-.06,1.58-.33,1.08-1.6-.78-2-1.61-3.98-2.45-5.95-.44-1.03-.74-1.01-1.81-.64-1.31.46-2.71,1.06-4.04,1.02-3.88-.12-6.86-1.93-8.49-5.57-1.53-3.42-.78-7.15,1.89-9.93.8-.83.82-1.12-.12-1.86-1.88-1.48-3.77-2.95-5.7-4.35-1.29-.95-1.37-.89-2.4.3-2.49,2.89-6.78,3.92-10.3,2.5-3.82-1.54-6.02-4.87-5.78-8.9.06-1.06-.4-1.53-1.3-1.67-1.63-.25-3.27-.45-4.91-.61-4.32-.42-8.63-.2-12.93.37-4.8.64-9.46,1.81-13.81,3.98-5.84,2.93-11.65,5.94-17.49,8.88-.65.33-1.32.64-1.98.96,3.72-5,6.07-11.06,6.56-17.62.03-.4.12-.79.18-1.19v-2.89c-.43-2.43-.7-4.91-1.33-7.29-3.38-12.85-14.93-22.92-28.16-24.28-14.88-1.53-26.52,4.04-34.24,16.91-7.11,11.88-5.29,27.08,3.04,37.49-.92-.42-1.83-.86-2.74-1.29-2.57-1.22-5.15-2.41-7.69-3.69-3.98-2.02-7.87-4.24-11.9-6.14-4.44-2.09-9.18-3.22-14.05-3.92-5.7-.81-11.34-.57-16.99.3-1.19.18-1.41.58-1.45,1.76-.08,3.2-1.23,5.9-3.91,7.78-3.85,2.7-9.1,2.08-12.27-1.4-1.06-1.16-1.1-1.2-2.43-.24-1.88,1.35-3.73,2.76-5.56,4.18-1.09.85-1.07,1.08-.09,2.07,1.88,1.89,2.73,4.2,2.53,6.8-.55,7.02-8.26,10.62-13.51,7.51-.67-.4-1.2-.28-1.52.5-.87,2.15-1.77,4.28-2.62,6.44-.34.87-.06,1.18.89,1.29.9.1,1.82.2,2.69.44,3.46.93,6.37,4.67,6.53,8.14.27,5.85-5.31,11.14-11.77,9.27-.86-.25-1.23.08-1.17.91.17,2.35.34,4.69.56,7.04.08.84.53,1.2,1.46,1.04,4.55-.75,9.25,2.51,10.19,7.03.88,4.24-1.13,8.23-5.17,10.3-1.1.57-1.2.8-.69,1.88.71,1.49,1.44,2.97,2.15,4.47.34.71.81.97,1.62.69,6.87-2.35,13.51,3.91,12.05,10.33-.06.27-.05.7.12.85.16.14.58.06.85-.04,1.66-.56,3.28-1.26,4.96-1.71,3.95-1.05,7.91-1.08,11.82.31.37.13.78.15,1.47.28-.3-.67-.45-1.07-.67-1.45-1.03-1.8-2.14-3.55-3.11-5.38-5.28-9.97-9.27-20.41-11.08-31.57-.69-4.24-1.14-8.58-1.16-12.87-.02-4.52.64-9.02,2.12-13.36,1.73-5.07,4.37-9.51,8.67-12.83,5.26-4.06,11.38-5.62,17.88-5.65,5.53-.03,10.98.93,16.3,2.48,5.82,1.71,11.61,3.52,17.45,5.18,3.16.9,6.38,1.65,9.6,2.29,3.95.78,7.91,1.52,11.9,2.02,4.55.57,9.13,1.1,13.72,1.21,3.56.09,7.17-.29,10.7-.8,5.17-.74,10.34-1.58,15.43-2.74,6.46-1.47,12.89-3.15,19.25-5.03,4.95-1.47,9.81-3.21,14.96-3.92,4.93-.67,9.85-1.01,14.78-.03,9.24,1.83,15.74,7.08,19.22,15.81,2.47,6.19,3.04,12.75,2.79,19.36-.27,7.09-1.84,13.96-3.94,20.73-2.77,8.91-6.6,17.32-11.42,25.3-.16.27-.18.63-.26.95.33,0,.69.1.97,0,3.26-1.18,6.63-1.37,9.97-.69,2.32.47,4.54,1.4,6.81,2.11.31.1.75.23.95.09.19-.12.19-.6.18-.92-.02-.49-.17-.97-.19-1.46-.18-6.24,6.07-10.87,12.02-8.87.94.31,1.53.2,1.94-.76.5-1.2,1.06-2.37,1.62-3.54,1-2.07,1.13-2.01-1-3.18-3.77-2.08-5.61-6.65-4.3-10.56,1.47-4.4,5.61-7,10.1-6.3.87.13,1.32-.21,1.4-1,.22-2.3.42-4.62.55-6.93.06-1.06-.24-1.24-1.26-.99M256.79,43.41c1.1-.02,2.01.76,2.04,1.75.03,1.06-.84,1.94-1.96,1.99-1.11.05-2.09-.79-2.11-1.82-.02-.99.94-1.9,2.04-1.92M252.23,33.29c.01-2.59,2.11-4.64,4.69-4.6,2.54.04,4.55,2.1,4.54,4.65-.01,2.54-2.05,4.59-4.58,4.61-2.57.02-4.66-2.07-4.65-4.66M256.69,52.68c-.81-.02-1.52-.69-1.53-1.44-.01-.79.74-1.45,1.63-1.44.87.01,1.53.63,1.52,1.4-.02.81-.77,1.5-1.61,1.48M257.73,56.33c-.19.44-.68.94-1.13,1.01-.27.05-.92-.62-.94-.99-.02-.35.56-.74,1.06-1.32.49.61,1.09,1.09,1.01,1.29M278.09,51.61c-4.96,5.51-11.12,8.72-18.87,9.38-.06-.67-.25-1.41-.19-2.14.47-5.5,1-10.99,1.5-16.49.1-1.09.54-1.95,1.34-2.71.79-.76,1.4-1.71,2.18-2.48.69-.68,1.42-1.48,2.29-1.77,3.19-1.07,6.42-2.05,9.69-2.87,1.29-.33,2.71-.13,4.06-.21,1.65-.11,3.3-.27,4.88-.41.05,7.5-1.89,14.16-6.88,19.7M266.7,31.52c-.04-1.17.88-2.16,2.01-2.17,1.02,0,1.85.84,1.88,1.91.02,1.15-.84,2.08-1.96,2.1-1.06.02-1.9-.78-1.93-1.84M273.12,30.24c-.02-.9.71-1.68,1.57-1.66.79.02,1.43.72,1.4,1.55-.03.86-.73,1.52-1.7,1.51-.77-.06-1.25-.52-1.27-1.41M256.96,5.8c12.82.06,21.5,6.69,26.67,18.71-1.63.47-3.09.74-4.43,1.31-4.32,1.83-8.97,1.71-13.48,2.38-1.44.21-2.64-.12-3.81-1.05-3.09-2.48-7.12-2.36-10.26.07-.64.5-1.53,1.07-2.24,1.01-4.01-.36-8.02-.8-12-1.43-1.92-.3-3.77-1.05-5.63-1.66-.58-.19-1.09-.62-1.51-.87,5.2-11.78,13.85-18.53,26.69-18.47M247.14,31.29c.03,1.05-.88,2.01-1.93,2.02-1.1.02-2.05-.93-2.06-2.03,0-1.08.8-1.93,1.84-1.95,1.13-.02,2.11.88,2.14,1.96M240.72,30.12c.02.79-.64,1.46-1.46,1.47-.83.01-1.57-.67-1.61-1.5-.05-.81.6-1.52,1.39-1.54.85-.03,1.65.72,1.68,1.57M228.75,33.46c0-.32-.09-.63-.2-1.34.84,0,1.62-.04,2.4,0,1.62.09,3.24.2,4.86.34.99.09,1.99.18,2.93.44,2.82.76,5.62,1.63,8.43,2.4,1.14.31,1.95.94,2.59,1.93.56.86,1.24,1.66,1.98,2.36.81.75,1.29,1.6,1.38,2.69.48,5.76.96,11.52,1.43,17.27.09,1.1-.21,1.41-1.23,1.36-5.76-.28-10.65-2.7-14.92-6.36-6.44-5.51-9.53-12.65-9.67-21.1"/>
</svg>