<?xml version="1.0" encoding="UTF-8"?>
<svg id="Layer_1" data-name="Layer 1" xmlns="http://www.w3.org/2000/svg" viewBox="0 0 512 512">
  <defs>
    <style>
      .cls-1 {
        fill: #1c1c84;
        stroke-width: 0px;
      }
    </style>
  </defs>
  <path id="Grafika" class="cls-1" d="M477.62,231.08c0,7.68-10.03,13.9-22.4,13.9-7.35,0-13.88-2.19-17.96-5.59-1.28-1.06-3.07-1.25-4.52-.43l-9.55,5.4c-1.12.63-1.87,1.78-2,3.06-3.34,35.41-17.81,67.59-39.88,92.99-.89,1.03-1.21,2.44-.81,3.74l2.63,8.7c.5,1.66,2.02,2.78,3.75,2.82,5.51.14,12.17,3.26,17.73,8.81,8.75,8.75,11.44,20.24,6.01,25.67-5.43,5.43-16.92,2.74-25.67-6.01-5.23-5.23-8.29-11.43-8.75-16.74-.14-1.62-1.31-2.98-2.88-3.41l-10.75-2.99c-1.23-.34-2.55-.06-3.55.73-13.08,10.37-27.75,18.82-43.59,24.9-2.59,1-5.38-.93-5.38-3.71v-22.87c0-1.55.91-2.97,2.32-3.61,7.61-3.45,14.85-7.58,21.65-12.3,1.74-1.21,2.2-3.59,1.06-5.38l-31.69-49.67c-2.28-3.57,1.88-7.75,5.46-5.49l50.7,32.02c1.73,1.09,4.02.7,5.26-.93,12.64-16.54,21.6-36.04,25.65-57.29.47-2.44-1.41-4.71-3.9-4.71h-.78c-2.19,0-3.97-1.78-3.97-3.97v-34.25c0-2.19,1.78-3.97,3.97-3.97h.78c2.49,0,4.37-2.27,3.9-4.72-3.98-20.87-12.69-40.05-24.98-56.4-1.24-1.65-3.55-2.05-5.29-.94l-51,32.54c-3.57,2.28-7.75-1.88-5.49-5.46l32-50.67c1.12-1.78.67-4.14-1.05-5.35-6.98-4.91-14.43-9.18-22.28-12.73-1.41-.64-2.32-2.05-2.32-3.61v-22.88c0-2.78,2.79-4.71,5.39-3.71,16.62,6.38,31.95,15.36,45.49,26.44,1.03.84,2.4,1.13,3.68.74l8.33-2.51c1.66-.5,2.78-2.02,2.82-3.75.14-5.51,3.26-12.17,8.81-17.73,8.75-8.75,20.24-11.44,25.67-6.01,5.43,5.43,2.74,16.92-6.01,25.67-5.23,5.23-11.43,8.29-16.74,8.75-1.62.14-2.98,1.31-3.41,2.88l-2.57,9.27c-.36,1.28-.04,2.64.82,3.65,21.63,25.38,35.75,57.35,38.92,92.48.12,1.32.9,2.49,2.07,3.12l8.47,4.54c1.53.82,3.39.53,4.65-.66,4-3.8,10.91-6.31,18.77-6.31,12.37,0,22.4,6.22,22.4,13.9ZM176.86,338.85l31.81-49.86c2.26-3.55-1.87-7.7-5.43-5.45l-50.92,32.16c-1.72,1.09-3.99.69-5.22-.92-12.68-16.56-21.67-36.11-25.72-57.4-.46-2.43,1.4-4.68,3.88-4.68h.98c2.18,0,3.94-1.76,3.94-3.94v-34.3c0-2.18-1.76-3.94-3.94-3.94h-.98c-2.48,0-4.34-2.26-3.87-4.69,3.98-20.91,12.72-40.14,25.04-56.51,1.23-1.64,3.53-2.04,5.26-.94l51.22,32.68c3.55,2.26,7.7-1.87,5.45-5.43l-32.12-50.86c-1.13-1.78-.64-4.13,1.09-5.34,7.23-5.08,14.98-9.47,23.14-13.09,1.42-.63,2.34-2.04,2.34-3.6v-22.86c0-2.75-2.75-4.66-5.33-3.69-17.02,6.4-32.7,15.52-46.53,26.82-1.02.84-2.39,1.12-3.65.74l-8.25-2.49c-1.65-.5-2.76-2.01-2.8-3.73-.14-5.52-3.25-12.19-8.81-17.75-8.75-8.75-20.24-11.44-25.67-6.01-5.43,5.43-2.74,16.92,6.01,25.67,5.23,5.23,11.44,8.3,16.75,8.76,1.61.14,2.96,1.3,3.39,2.87l2.55,9.17c.35,1.27.04,2.63-.82,3.63-21.71,25.42-35.88,57.48-39.04,92.72-.12,1.31-.9,2.48-2.06,3.1l-8.35,4.48c-1.52.81-3.37.53-4.61-.65-4-3.8-10.92-6.32-18.79-6.32-12.37,0-22.4,6.22-22.4,13.9,0,7.68,10.03,13.9,22.4,13.9,7.36,0,13.89-2.2,17.97-5.6,1.27-1.06,3.05-1.24,4.49-.43l9.43,5.33c1.12.63,1.86,1.76,1.98,3.04,3.33,35.51,17.85,67.76,39.98,93.21.9,1.03,1.21,2.44.82,3.75l-2.59,8.59c-.5,1.65-2.01,2.76-3.73,2.8-5.52.14-12.19,3.25-17.75,8.81-8.75,8.75-11.44,20.24-6.01,25.67,5.43,5.43,16.92,2.74,25.67-6.01,5.23-5.23,8.3-11.44,8.76-16.75.14-1.61,1.3-2.96,2.86-3.39l10.66-2.96c1.22-.34,2.53-.06,3.52.72,13.36,10.6,28.39,19.18,44.63,25.29,2.57.97,5.32-.94,5.32-3.69v-22.88c0-1.55-.91-2.97-2.33-3.6-7.94-3.52-15.49-7.77-22.55-12.67-1.73-1.2-2.19-3.57-1.06-5.35ZM221.33,25.62V3.97c0-2.19,1.78-3.97,3.97-3.97h35.61c9.59,0,16.83.79,21.72,2.36,4.94,1.58,9.29,4.54,13.05,8.91,6.57,7.57,9.86,17.11,9.86,28.64,0,12.34-3.51,22.12-10.53,29.34-7.02,7.22-12.31,10.83-24.23,10.83h3.2l.23,94.42c0,2.2-1.77,3.98-3.97,3.98h-28.37c-2.19,0-3.97-1.78-3.97-3.97V29.59h-12.61c-2.19,0-3.97-1.78-3.97-3.97ZM269.82,53.08c4.46-1.53,10.4-2.69,10.4-13.32,0-9.92-6.78-11.11-10.4-12.24v25.56ZM241.87,284.61c-2.19,0-3.96,1.77-3.97,3.96l-.35,149.42c0,5.34-1.62,10.61-4.84,14.87-3.56,4.69-8.34,7.54-13.89,8.95-10.8,2.75-22.17-.61-30.29-8.23-3.9-3.66-7.38-7.81-10.04-11.58-5.39-11.67.48-7.57,8.59-8.18.13-.01.16-.18.05-.24-.04-.03-.08-.05-.13-.08-12.61-7.33-19.26-21.78-16.94-36.19,1.23-7.62,3.11-11.61-.79-7.76-2.43,2.39-4.48,5.13-6.16,8.09-5.79,10.21-11.51,23.48-15.61,33.97-.34.86.29,1.78,1.21,1.78h8.43c1.65,0,3.11,1.07,3.57,2.65,1.64,5.72,5.73,13.66,8.39,17.68,18.96,31.77,67.35,28.1,86.82,58.27,19.46-30.17,67.85-26.5,86.81-58.27,2.66-4.02,6.75-11.96,8.39-17.68.46-1.58,1.92-2.65,3.56-2.65h8.43c.93,0,1.55-.92,1.21-1.78-4.1-10.5-9.81-23.77-15.61-33.97-1.68-2.96-3.73-5.69-6.16-8.09-3.9-3.84-2.02.14-.79,7.76,2.32,14.41-4.33,28.85-16.95,36.19-.04.02-.09.05-.13.08-.11.06-.07.23.06.24,8.1.61,13.97-3.49,8.59,8.18-2.66,3.77-6.14,7.92-10.04,11.58-8.12,7.62-19.49,10.98-30.28,8.23-5.56-1.41-10.35-4.26-13.9-8.95-3.23-4.26-4.84-9.53-4.84-14.87l-.07-149.41c0-2.19-1.78-3.97-3.97-3.97h-28.4Z"/>
  <g id="Text">
    <path class="cls-1" d="M137.5,251.75v-40.98h6.88v16.13h13.47v-16.13h6.88v40.98h-6.88v-17.92h-13.47v17.92h-6.88Z"/>
    <path class="cls-1" d="M202.55,251.75h-7.48l-2.97-9.31h-13.61l-2.81,9.31h-7.29l13.26-40.98h7.27l13.64,40.98ZM189.89,235.54l-4.69-15.21-4.6,15.21h9.29Z"/>
    <path class="cls-1" d="M206.38,251.75v-40.65h6.88v33.74h17.1v6.91h-23.97Z"/>
    <path class="cls-1" d="M265.97,251.75h-7.48l-2.97-9.31h-13.61l-2.81,9.31h-7.29l13.26-40.98h7.27l13.64,40.98ZM253.31,235.54l-4.69-15.21-4.6,15.21h9.29Z"/>
    <path class="cls-1" d="M269.64,251.75v-40.98h6.88v16.13h13.47v-16.13h6.88v40.98h-6.88v-17.92h-13.47v17.92h-6.88Z"/>
    <path class="cls-1" d="M303.76,251.75v-40.98h6.88v40.98h-6.88Z"/>
    <path class="cls-1" d="M329.48,210.77h6.85v25.94c0,3.39-.25,6-.74,7.83-.67,2.39-1.87,4.3-3.62,5.75-1.75,1.44-4.06,2.17-6.92,2.17-3.36,0-5.95-1.13-7.76-3.4-1.81-2.26-2.73-5.59-2.74-9.97l6.48-.89c.08,2.35.36,4.01.86,4.98.74,1.47,1.87,2.21,3.39,2.21s2.62-.53,3.25-1.58c.63-1.05.95-3.24.95-6.56v-26.47Z"/>
    <path class="cls-1" d="M374.36,251.75h-7.48l-2.97-9.31h-13.61l-2.81,9.31h-7.29l13.26-40.98h7.27l13.64,40.98ZM361.7,235.54l-4.69-15.21-4.6,15.21h9.29Z"/>
  </g>
</svg>