<?xml version="1.0" encoding="UTF-8"?>
<svg id="Layer_1" data-name="Layer 1" xmlns="http://www.w3.org/2000/svg" viewBox="0 0 512 512">
  <defs>
    <style>
      .cls-1 {
        fill: #4d285e;
      }

      .cls-1, .cls-2, .cls-3 {
        stroke-width: 0px;
      }

      .cls-2 {
        fill: #7f3f97;
      }

      .cls-3 {
        fill: #231f20;
      }
    </style>
  </defs>
  <path class="cls-3" d="M62.95,189.89V0h96.23v109.15l-96.23,80.74ZM246.58,415.74h-87.4v-46.43l-96.23-51.12v193.77h364.76l-181.13-96.22Z"/>
  <polygon class="cls-1" points="156.11 240.47 159.67 242.36 448.51 0 304.79 0 159.18 122.18 71.66 195.61 156.11 240.47"/>
  <path class="cls-2" d="M342.17,399.54c.49,1.6.65,3.25.48,4.97-.17,1.72-.68,3.37-1.52,4.95-.84,1.58-1.93,2.93-3.26,4.03-1.33,1.1-2.79,1.9-4.39,2.38-1.6.49-3.26.67-5,.53-1.74-.13-3.44-.64-5.1-1.52-1.58-.84-2.91-1.95-3.99-3.31-1.08-1.37-1.86-2.85-2.35-4.45-.49-1.6-.67-3.26-.53-5,.13-1.74.62-3.4,1.46-4.98.84-1.58,1.95-2.91,3.31-3.99,1.37-1.08,2.85-1.86,4.45-2.35,1.6-.49,3.26-.67,5-.53,1.74.13,3.4.62,4.98,1.46,1.66.88,3.03,2.01,4.11,3.37,1.08,1.37,1.86,2.85,2.35,4.45ZM449.05,407.39v104.61l-.07-.03-181.13-96.22-108.67-57.73-84.1-44.67-12.13-6.44v-104.61l.46.24,88.01,46.75,7.76,4.12,289.87,153.99ZM135.04,274.57l-2.9-1.54-5.85,11c-.39-2.44-1.32-4.73-2.8-6.88-1.48-2.15-3.38-3.84-5.7-5.07-2.05-1.09-4.15-1.72-6.3-1.91-2.16-.18-4.23.03-6.21.64-1.98.61-3.82,1.6-5.52,2.97-1.7,1.38-3.08,3.07-4.15,5.07-1.09,2.05-1.72,4.15-1.91,6.3-.18,2.16.03,4.23.64,6.21.6,1.98,1.59,3.81,2.94,5.5,1.36,1.69,3.06,3.07,5.1,4.16,2.01,1.07,4.1,1.7,6.28,1.89,2.18.19,4.25-.01,6.24-.62,1.98-.61,3.81-1.59,5.5-2.94,1.69-1.36,3.08-3.06,4.16-5.1l10.47-19.69ZM187.22,314.4c-.61-1.98-1.6-3.82-2.97-5.52-1.38-1.7-3.07-3.08-5.07-4.15-2.05-1.09-4.15-1.72-6.3-1.91-2.16-.18-4.23.03-6.21.64-1.98.61-3.82,1.6-5.52,2.97-1.7,1.38-3.08,3.07-4.15,5.07-1.09,2.05-1.72,4.15-1.91,6.3-.18,2.16.03,4.23.64,6.21.6,1.98,1.59,3.82,2.94,5.5,1.36,1.69,3.06,3.07,5.1,4.16,1.58.84,3.25,1.39,4.99,1.65,1.74.26,3.46.27,5.15.03,1.69-.24,3.31-.74,4.88-1.49,1.56-.75,2.99-1.73,4.27-2.93l-3.19-1.69c-2.06,1.73-4.38,2.75-6.97,3.05-2.59.31-5.12-.2-7.59-1.51-1.47-.78-2.71-1.77-3.72-2.98-1.02-1.21-1.81-2.53-2.38-3.98-.57-1.44-.87-2.96-.88-4.56-.02-1.59.25-3.19.8-4.78l20.85,11.09,5.21,2.77.77-1.45c1.07-2.01,1.7-4.1,1.89-6.28.19-2.18-.01-4.25-.62-6.24ZM255.03,345.08l-20.85-11.09c-1.16-.62-2.34-.98-3.54-1.1-1.2-.12-2.36-.02-3.47.31-1.11.32-2.12.85-3.03,1.58-.91.73-1.65,1.64-2.23,2.72-.58,1.08-.92,2.22-1.04,3.42-.12,1.2,0,2.36.34,3.49.34,1.12.89,2.17,1.64,3.14.75.97,1.7,1.76,2.86,2.38l6.37,3.39,6.66,3.54c1.31.7,2.22,1.76,2.72,3.19.5,1.43.36,2.88-.42,4.35-.78,1.47-1.93,2.44-3.45,2.92-1.52.48-2.93.37-4.25-.33l-21.13-11.24-1.54,2.9,21.13,11.24c1.08.57,2.21.89,3.39.95,1.18.06,2.32-.09,3.43-.44,1.1-.35,2.12-.91,3.05-1.68s1.68-1.69,2.26-2.77c.58-1.08.91-2.2,1.01-3.36.1-1.16-.02-2.29-.36-3.38-.34-1.09-.87-2.1-1.6-3-.73-.91-1.64-1.65-2.72-2.23l-6.66-3.54-6.37-3.39c-1.47-.78-2.44-1.94-2.91-3.48-.47-1.54-.31-3.04.47-4.51.78-1.47,1.91-2.39,3.4-2.76,1.49-.37,2.96-.17,4.43.61l20.85,11.09,1.54-2.9ZM290.35,363.87l-2.9-1.54-15.4,28.95,2.9,1.54,15.4-28.95ZM293.12,358.66l-2.9-1.54-1.54,2.89,2.9,1.54,1.54-2.9ZM345.29,398.49c-.61-1.98-1.6-3.82-2.97-5.52-1.38-1.7-3.07-3.08-5.07-4.15-1.97-1.05-4.02-1.66-6.16-1.83-2.14-.17-4.22.04-6.24.62-2.02.59-3.89,1.56-5.6,2.92-1.72,1.37-3.11,3.05-4.18,5.06-1.09,2.05-1.71,4.15-1.88,6.32-.16,2.17.08,4.25.72,6.25.64,2,1.63,3.84,2.97,5.52,1.34,1.68,2.99,3.04,4.96,4.09,2.47,1.31,4.97,1.96,7.51,1.95,2.53-.01,4.92-.54,7.15-1.58l-3.08,5.79c-.84,1.58-1.93,2.92-3.26,4.03-1.33,1.1-2.79,1.9-4.39,2.38-1.6.49-3.26.67-5,.53-1.74-.13-3.44-.64-5.1-1.52-1.58-.84-2.91-1.95-3.99-3.31-1.08-1.37-1.86-2.85-2.35-4.45-.49-1.6-.67-3.26-.53-5,.13-1.74.62-3.4,1.46-4.98l-2.9-1.54c-1.05,1.97-1.65,4.03-1.8,6.18-.15,2.15.08,4.24.71,6.28s1.6,3.91,2.93,5.6c1.33,1.7,2.97,3.07,4.94,4.12,2.01,1.07,4.1,1.69,6.29,1.86,2.19.17,4.28-.06,6.28-.71,2-.64,3.84-1.63,5.52-2.97,1.68-1.34,3.04-2.99,4.09-4.96l7.55-14.19.15-.29c1.07-2.01,1.7-4.1,1.89-6.28.19-2.18-.02-4.25-.62-6.24ZM406.49,431.19c-.62-2.04-1.6-3.91-2.92-5.6-1.33-1.7-2.97-3.07-4.94-4.12-2.05-1.09-4.15-1.71-6.32-1.88-2.17-.16-4.25.08-6.25.72-2,.64-3.84,1.63-5.52,2.97-1.68,1.34-3.04,2.99-4.09,4.96l-7.7,14.48,2.89,1.54,7.7-14.48c.84-1.58,1.95-2.91,3.31-3.99,1.37-1.08,2.85-1.86,4.45-2.35s3.26-.67,5-.53c1.74.13,3.4.62,4.98,1.46,1.58.84,2.91,1.95,3.99,3.31,1.08,1.37,1.87,2.85,2.35,4.45s.67,3.26.53,5c-.13,1.74-.62,3.4-1.46,4.98l-7.7,14.48,2.9,1.54,7.7-14.48c1.05-1.97,1.65-4.03,1.8-6.18.15-2.15-.08-4.24-.71-6.28ZM120.25,278.29c-1.08-1.37-2.41-2.47-3.99-3.31-1.58-.84-3.24-1.33-4.98-1.46-1.74-.13-3.4.05-5,.53-1.6.49-3.08,1.27-4.45,2.35-1.37,1.08-2.47,2.41-3.31,3.99-.84,1.58-1.33,3.24-1.46,4.98-.13,1.74.05,3.4.53,5,.49,1.6,1.27,3.08,2.35,4.45,1.08,1.37,2.41,2.47,3.99,3.31,1.58.84,3.24,1.33,4.98,1.46,1.74.13,3.41-.05,5-.53,1.6-.49,3.08-1.27,4.45-2.35,1.37-1.08,2.47-2.41,3.31-3.99.84-1.58,1.33-3.24,1.46-4.98.13-1.74-.05-3.41-.53-5s-1.27-3.08-2.35-4.45ZM181.33,310.6c-1.04-1.22-2.27-2.21-3.7-2.97-1.47-.78-2.99-1.25-4.56-1.42-1.57-.17-3.11-.08-4.63.25-1.51.33-2.94.95-4.29,1.84-1.34.9-2.51,2-3.5,3.3l23.16,12.32c.53-1.55.79-3.13.78-4.75,0-1.61-.3-3.14-.87-4.58-.57-1.44-1.37-2.77-2.41-3.99Z"/>
</svg>